<?xml version="1.0" standalone="no"?>
<!DOCTYPE svg PUBLIC "-//W3C//DTD SVG 20010904//EN"
 "http://www.w3.org/TR/2001/REC-SVG-20010904/DTD/svg10.dtd">
<svg version="1.0" xmlns="http://www.w3.org/2000/svg"
 width="254.000000pt" height="211.000000pt" viewBox="0 0 254.000000 211.000000"
 preserveAspectRatio="xMidYMid meet">

<g transform="translate(0.000000,211.000000) scale(0.100000,-0.100000)"
fill="#000000" stroke="none">
<path d="M2110 2021 l-125 -85 35 -9 c19 -5 39 -12 43 -17 24 -22 -122 -178
-238 -255 -185 -122 -482 -216 -776 -245 -214 -22 -245 -29 -94 -24 386 13
671 75 907 196 120 61 206 126 290 218 l66 72 44 -7 45 -7 -26 116 c-14 63
-30 119 -36 124 -6 5 -59 -25 -135 -77z"/>
<path d="M2226 1684 c-3 -9 -6 -184 -6 -390 0 -344 4 -399 25 -365 3 6 6 181
8 390 1 281 -1 381 -9 381 -7 0 -15 -7 -18 -16z"/>
<path d="M1917 1463 c-4 -3 -7 -127 -7 -275 0 -211 3 -269 13 -266 9 4 13 70
15 276 2 248 -1 286 -21 265z"/>
<path d="M1597 1353 c-4 -3 -7 -102 -7 -220 0 -183 2 -213 15 -213 13 0 15 31
15 220 0 201 -4 233 -23 213z"/>
<path d="M1278 1143 c-5 -160 -1 -214 17 -214 6 1 11 72 13 186 2 152 0 185
-11 185 -11 0 -15 -32 -19 -157z"/>
<path d="M960 1104 c0 -144 3 -185 13 -182 9 4 13 52 15 186 2 158 0 182 -13
182 -13 0 -15 -26 -15 -186z"/>
<path d="M441 1004 c-69 -18 -108 -43 -161 -100 -64 -70 -84 -123 -85 -224 0
-76 3 -92 32 -150 36 -73 86 -126 155 -164 47 -26 47 -26 293 -26 l246 0 -3
53 -3 52 -154 3 -154 3 7 51 c4 29 9 55 12 60 3 4 61 8 130 8 l124 0 0 55 0
55 -116 0 -116 0 7 53 c4 28 9 55 12 60 2 4 58 7 124 7 l119 0 0 55 0 55 -73
0 c-62 0 -77 3 -93 21 -27 30 -99 64 -162 78 -65 14 -74 13 -141 -5z m-1 -33
c0 -5 -7 -14 -14 -21 -8 -6 -20 -27 -26 -46 -11 -33 -14 -34 -61 -34 -27 0
-49 4 -49 8 0 14 53 59 95 80 45 24 55 26 55 13z m70 -26 c0 -19 -4 -35 -10
-35 -5 0 -10 -9 -10 -20 0 -16 -7 -20 -35 -20 -19 0 -35 3 -35 6 0 22 65 104
82 104 4 0 8 -16 8 -35z m73 5 c39 -45 64 -39 31 8 -8 12 -13 22 -10 22 13 0
86 -33 86 -39 0 -3 -15 -13 -33 -21 -49 -23 -76 -83 -108 -247 -35 -175 -55
-243 -83 -277 -21 -24 -75 -49 -62 -27 4 5 -6 17 -22 25 -38 20 -92 65 -92 77
0 6 21 9 48 7 43 -3 49 -6 67 -40 11 -21 24 -38 29 -38 9 0 4 31 -9 63 -6 14
-2 17 18 17 39 0 42 18 5 22 -23 2 -36 10 -45 28 -13 29 -21 124 -10 128 4 1
27 2 52 2 l45 0 1 -52 c1 -29 3 -44 6 -33 2 11 16 72 30 135 13 63 35 134 48
158 l24 42 -30 0 c-27 0 -29 3 -29 35 0 43 11 44 43 5z m-218 -172 c-3 -40 -9
-76 -11 -80 -3 -5 -35 -8 -71 -8 l-66 0 5 43 c3 23 13 59 23 80 17 36 19 37
72 37 l56 0 -8 -72z m125 -8 l0 -80 -27 -2 c-30 -1 -76 2 -80 6 -3 3 16 127
22 144 3 7 21 12 45 12 l40 0 0 -80z m-125 -185 c4 -42 6 -77 4 -79 -2 -2 -28
-1 -57 1 -46 5 -55 10 -68 34 -8 16 -18 49 -23 74 l-8 45 72 0 73 0 7 -75z"/>
<path d="M980 614 l0 -276 173 4 c191 5 247 19 319 78 111 92 121 282 20 371
-82 72 -187 99 -389 99 l-123 0 0 -276z m303 202 c87 -36 138 -143 118 -244
-23 -115 -87 -169 -206 -174 l-70 -3 -3 218 -2 217 65 0 c36 0 80 -6 98 -14z"/>
<path d="M1700 693 c0 -223 9 -258 71 -306 116 -87 356 -70 428 32 33 46 42
114 39 296 l-3 170 -42 3 -42 3 -3 -205 c-3 -224 -5 -230 -72 -280 -38 -29
-124 -29 -162 0 -67 50 -69 56 -72 280 l-3 204 -70 0 -69 0 0 -197z"/>
<path d="M766 268 c-88 -208 -105 -238 -132 -238 -7 0 -33 26 -58 59 l-45 58
25 13 c27 15 39 48 29 79 -12 38 -55 51 -175 51 -101 0 -140 -10 -90 -23 18
-5 20 -14 20 -117 0 -103 -2 -112 -20 -117 -46 -12 -14 -23 66 -23 54 0 83 4
79 10 -3 6 -12 10 -20 10 -16 0 -25 22 -25 66 0 29 3 34 24 34 19 0 33 -13 61
-60 l36 -60 102 0 c100 0 101 1 79 18 -15 12 -21 24 -16 35 9 24 109 25 118 1
10 -25 7 -34 -9 -34 -8 0 -15 -4 -15 -10 0 -6 32 -10 75 -10 41 0 75 3 75 6 0
3 -9 13 -20 22 -11 10 -43 71 -72 136 -29 66 -59 121 -66 124 -7 2 -19 -11
-26 -30z m-276 -18 c38 -38 15 -90 -41 -90 -28 0 -29 2 -29 48 0 27 3 52 7 55
13 13 43 7 63 -13z m279 -138 c-17 -2 -33 -2 -35 1 -2 2 3 21 12 43 l17 39 18
-40 18 -40 -30 -3z"/>
<path d="M1372 286 c-56 -18 -71 -32 -95 -85 -13 -29 -17 -54 -13 -77 25 -131
237 -168 321 -56 28 38 27 120 -1 159 -44 59 -133 84 -212 59z m112 -35 c25
-28 37 -81 30 -135 -8 -59 -32 -86 -78 -86 -53 0 -76 36 -76 120 0 53 4 73 21
94 25 32 77 36 103 7z"/>
<path d="M2060 283 c-44 -23 -60 -64 -39 -101 8 -15 41 -41 73 -58 32 -18 63
-39 68 -48 20 -36 -36 -60 -81 -36 -10 5 -24 23 -31 40 -20 48 -40 38 -40 -20
0 -36 4 -50 14 -50 8 0 16 5 18 10 2 7 16 5 37 -6 66 -33 151 7 151 71 0 44
-20 66 -88 99 -34 16 -64 36 -67 44 -8 21 13 42 41 42 24 0 64 -31 64 -50 0
-5 7 -10 15 -10 11 0 15 11 15 40 0 36 -2 39 -27 38 -16 0 -41 2 -58 6 -20 5
-41 1 -65 -11z"/>
<path d="M932 253 c3 -35 28 -61 28 -30 0 25 29 47 61 47 l30 0 -3 -117 c-3
-114 -4 -118 -25 -121 -13 -2 -23 -8 -23 -13 0 -5 38 -9 85 -9 80 0 111 11 65
23 -19 5 -20 14 -20 121 l0 116 25 0 c25 0 65 -31 65 -50 0 -5 5 -10 10 -10 6
0 10 18 10 40 l0 40 -156 0 -155 0 3 -37z"/>
<path d="M1640 283 c0 -4 10 -13 23 -18 20 -9 22 -18 25 -100 4 -109 -2 -135
-28 -135 -11 0 -20 -4 -20 -10 0 -6 35 -10 85 -10 80 0 111 11 65 23 -16 4
-20 14 -20 51 0 39 3 46 20 46 14 0 32 -19 57 -60 l38 -60 52 0 c29 0 53 5 53
10 0 6 -6 10 -13 10 -8 0 -35 27 -60 60 -26 33 -42 60 -37 60 20 0 50 41 50
68 0 55 -28 67 -166 70 -68 2 -124 0 -124 -5z m188 -29 c41 -28 22 -94 -27
-94 -28 0 -29 2 -33 51 -1 28 -1 53 1 55 9 9 38 3 59 -12z"/>
</g>
</svg>
