<svg id="Group_40648" data-name="Group 40648" xmlns="http://www.w3.org/2000/svg" xmlns:xlink="http://www.w3.org/1999/xlink" width="16" height="15" viewBox="0 0 16 15">
  <defs>
    <clipPath id="clip-path">
      <rect id="Rectangle_23431" data-name="Rectangle 23431" width="16" height="15" fill="#393939"/>
    </clipPath>
  </defs>
  <g id="Group_40647" data-name="Group 40647" clip-path="url(#clip-path)">
    <path id="Path_77402" data-name="Path 77402" d="M2.812,12.656v-.469H5.379a.468.468,0,0,0,.435-.3L7.548,7.528l3.232.57a.469.469,0,0,0,.543-.381l.57-3.231L1.737,2.695l-.57,3.232a.468.468,0,0,0,.38.543l5.058.892L5.06,11.25H2.812v-.469A1.407,1.407,0,0,0,1.406,9.375H.937V8.906a.469.469,0,1,0-.937,0v5.625a.469.469,0,1,0,.937,0v-.469h.469a1.407,1.407,0,0,0,1.406-1.406m7.533-7.491a.469.469,0,1,1-.543.38A.468.468,0,0,1,10.345,5.165Z" fill="#393939"/>
    <path id="Path_77403" data-name="Path 77403" d="M15.613,2.286,2.687.007a.468.468,0,0,0-.543.38L1.9,1.772l12.464,2.2a1.406,1.406,0,0,0,1.629-1.141A.468.468,0,0,0,15.613,2.286Z" fill="#393939"/>
    <path id="Path_77404" data-name="Path 77404" d="M12.328,7.419l1.385.244a.468.468,0,0,0,.543-.38l.407-2.308-1.847-.326Z" fill="#393939"/>
  </g>
</svg>
