<?xml version="1.0" encoding="utf-8"?>
<!-- Generator: Adobe Illustrator 26.3.1, SVG Export Plug-In . SVG Version: 6.00 Build 0)  -->
<svg version="1.1" id="Layer_1" xmlns="http://www.w3.org/2000/svg" xmlns:xlink="http://www.w3.org/1999/xlink" x="0px" y="0px"
	 viewBox="0 0 810 310" style="enable-background:new 0 0 810 310;" xml:space="preserve">
<style type="text/css">
	.st0{fill:#FFFFFF;}
	
		.st1{clip-path:url(#SVGID_00000034810028644587090020000006085069584782951337_);fill:url(#SVGID_00000125580482190026120280000005252792103883572405_);}
	.st2{opacity:0.5;clip-path:url(#SVGID_00000034810028644587090020000006085069584782951337_);}
	.st3{fill:#BEB8F2;}
	.st4{fill:#217515;}
	.st5{opacity:0.5;clip-path:url(#SVGID_00000071517200816706694170000009625475426645584288_);}
	.st6{fill:#FCFDFE;}
	.st7{fill:#78BA4C;}
	.st8{opacity:0.5;clip-path:url(#SVGID_00000139274721288914762530000013849003498348100530_);}
	.st9{fill:#BFC8D6;}
	.st10{fill:#D8DEE8;}
	.st11{opacity:0.48;fill:#FFFFFF;}
	.st12{fill:url(#SVGID_00000155835843812608375990000013817354651186304177_);}
	.st13{fill:url(#SVGID_00000005985261785577783630000014079771734805411756_);}
	.st14{fill:url(#SVGID_00000174570912630953963270000010338982949207371687_);}
	.st15{fill:url(#SVGID_00000026853812479599383690000014007704621234183051_);}
	.st16{opacity:0.3;fill:#BFC8D6;}
	.st17{fill:url(#SVGID_00000057123827150614793740000006706339300486025089_);}
	.st18{fill:url(#SVGID_00000116231582474679564280000002758155094857598909_);}
	.st19{fill:url(#SVGID_00000129895728951961634930000007566914488458078627_);}
	.st20{fill:#FCB048;}
	.st21{fill:url(#SVGID_00000022524262709777868750000005402731392304388786_);}
	.st22{fill:url(#SVGID_00000092422053099672329030000010333398030966324882_);}
	.st23{fill:url(#SVGID_00000062912986472876854000000013403828213164552885_);}
	.st24{fill:url(#SVGID_00000111907005049239529610000008206763336407834516_);}
	.st25{fill:url(#SVGID_00000109707986058908665950000014270588867408342921_);}
	.st26{fill:url(#SVGID_00000042729216639774308470000017791338292410422445_);}
	.st27{fill:url(#SVGID_00000070808177219961980880000010477002655269534873_);}
	.st28{fill:url(#SVGID_00000085960987758316822440000009709071393942690726_);}
	.st29{fill:url(#SVGID_00000104685740424338921000000011977936534220640163_);}
	.st30{fill:url(#SVGID_00000052795339168770703120000005664048743132566687_);}
	.st31{fill:url(#SVGID_00000067956577232231803390000015242694908216213942_);}
	.st32{fill:url(#SVGID_00000083767689502950773200000014660740280824197777_);}
	.st33{fill:url(#SVGID_00000134211589055576488590000010994663165186093698_);}
	.st34{fill:url(#SVGID_00000136391898948736101820000014957634337493811588_);}
	.st35{fill:url(#SVGID_00000052073476874445939870000009395142665216079017_);}
	.st36{fill:url(#SVGID_00000059299301612037998420000010103941036277860281_);}
	.st37{fill:url(#SVGID_00000126320101953890725440000011764022996219733382_);}
	.st38{fill:url(#SVGID_00000131364925897334711640000017608312409331890314_);}
	.st39{fill:url(#SVGID_00000119114326038768633530000015839673374262167479_);}
	.st40{fill:url(#SVGID_00000168106849693610042310000016489049117179999888_);}
	.st41{fill:url(#SVGID_00000057837134875871706180000004163219085359994545_);}
	.st42{fill:url(#SVGID_00000179643980844508260070000002901472944253679262_);}
	.st43{fill:url(#SVGID_00000090973676169011027130000016884843682810968238_);}
	.st44{fill:url(#SVGID_00000016755353546097185410000003351884841450567359_);}
	.st45{fill:url(#SVGID_00000145760372226727878080000011313746341157662869_);}
	.st46{fill:url(#SVGID_00000018928283399786467290000015323698075746166193_);}
	.st47{fill:url(#SVGID_00000044167714468930135330000010390300414274708653_);}
	.st48{fill:url(#SVGID_00000172423680848273942140000001846515124096997305_);}
	.st49{fill:url(#SVGID_00000050644373385408545220000000519259323538364061_);}
	.st50{fill:url(#SVGID_00000052825557091161807310000015884748562909208763_);}
	.st51{fill:url(#SVGID_00000125567604705782423820000002734359305496890268_);}
	.st52{fill:url(#SVGID_00000131352187590416459560000001381799689362748586_);}
	.st53{fill:url(#SVGID_00000097484603098057029590000010741732105141774487_);}
	.st54{fill:url(#SVGID_00000169528550839678062510000002707056059928923810_);}
	.st55{fill:url(#SVGID_00000073691953743606913730000008154350538523417989_);}
	.st56{fill:url(#SVGID_00000136406514764649835030000008656515127290144426_);}
	.st57{opacity:0.3;}
	.st58{fill:url(#SVGID_00000085231350939197870560000000641177907057233550_);}
	.st59{fill:url(#SVGID_00000181790721086468186020000015552121325107401370_);}
	.st60{fill:url(#SVGID_00000110464880516191593580000014655298896506052995_);}
	.st61{fill:url(#SVGID_00000049918192630298707240000002741832685938373263_);}
	.st62{fill:url(#SVGID_00000151522042269869539790000018315218296388504727_);}
	.st63{fill:url(#SVGID_00000005259198966890980060000016355399792017540254_);}
	.st64{fill:url(#SVGID_00000183956637020591844560000005082932707580578446_);}
	.st65{fill:#9F73F8;}
	.st66{fill:#AE87F9;}
	.st67{fill:url(#SVGID_00000175324563163431726710000012459206998583303091_);}
	.st68{fill:url(#SVGID_00000026860812312788531640000004934858218280856978_);}
	.st69{fill:#26264F;}
	.st70{fill:#444B8C;}
	.st71{fill:url(#SVGID_00000165227840981903364770000010911602377616126108_);}
	.st72{fill:#1F1F44;}
	.st73{fill:url(#SVGID_00000080191913573318643170000018383850800601628600_);}
	.st74{fill:url(#SVGID_00000059312116204002624180000010173858750440900488_);}
	.st75{fill:url(#SVGID_00000127754369901008763600000009821902691627008919_);}
	.st76{fill:url(#SVGID_00000041260907465820786090000002340962520348018063_);}
	.st77{fill:url(#SVGID_00000096769438071920751470000000075449159555426185_);}
	.st78{fill:url(#SVGID_00000027582257856537360610000007833414282385975444_);}
	.st79{opacity:0.2;fill:url(#SVGID_00000070103731060376486610000017980984838660649617_);}
	.st80{fill:#000E0A;}
	.st81{fill:#1B1918;}
	.st82{fill:url(#SVGID_00000015324129476730623060000000721279791944870790_);}
	.st83{opacity:0.2;fill:#FFFFFF;}
	.st84{fill:url(#SVGID_00000171712383337185631600000015461802041177465737_);}
	.st85{fill:url(#SVGID_00000086692588201193308510000004356974917641035911_);}
	.st86{fill:none;}
	.st87{fill-rule:evenodd;clip-rule:evenodd;fill:#FF0000;}
	.st88{fill-rule:evenodd;clip-rule:evenodd;fill:#EF0000;}
	.st89{fill-rule:evenodd;clip-rule:evenodd;fill:#DF0000;}
	.st90{fill-rule:evenodd;clip-rule:evenodd;fill:#CF0000;}
	.st91{fill-rule:evenodd;clip-rule:evenodd;fill:#BF0000;}
	.st92{fill-rule:evenodd;clip-rule:evenodd;fill:#AF0000;}
	.st93{fill-rule:evenodd;clip-rule:evenodd;fill:#9F0000;}
	.st94{fill-rule:evenodd;clip-rule:evenodd;fill:#FFFFFF;}
	.st95{fill-rule:evenodd;clip-rule:evenodd;fill:#1B1918;}
	.st96{opacity:0.2;}
	.st97{fill:#3F3D3E;}
	.st98{fill:#2AB5A8;}
	.st99{fill:#66D3CB;}
	.st100{opacity:0.1;fill:url(#SVGID_00000084521760182387595940000013906421473215721875_);}
	.st101{fill:#F5F7FF;}
	.st102{fill:#FF0000;}
	.st103{fill:#FFCF54;}
	.st104{opacity:0.6;}
	.st105{fill:#F9F9F9;}
	.st106{fill:#F4F4F4;}
	.st107{fill:#EEEEEE;}
	.st108{fill:#E9E9E9;}
	.st109{fill:#E3E3E3;}
	.st110{fill:#DEDEDE;}
	.st111{fill:#D8D8D8;}
	.st112{fill:#D3D3D3;}
	.st113{fill:#CDCDCD;}
	.st114{fill:#C8C8C8;}
	.st115{fill:#C2C2C2;}
	.st116{fill:#BDBDBD;}
	.st117{fill:#B7B7B7;}
	.st118{fill:url(#SVGID_00000061472858321369434420000002198475138295403708_);}
	.st119{fill:url(#Rectangle_1935_00000115488231626587437780000004653218159443243410_);}
	.st120{fill:#FFACB0;}
	.st121{fill:url(#SVGID_00000111881106430887922780000013457170914943083180_);}
	.st122{fill:url(#SVGID_00000040541181868207522140000000948741769590818233_);}
	.st123{fill:url(#SVGID_00000067236807591688730050000003391308146144880027_);}
	.st124{fill:url(#SVGID_00000065073047464557678010000003333845808232596658_);}
	.st125{fill:url(#SVGID_00000104697984823193595260000000266709879474385080_);}
	.st126{fill:#03070A;}
	.st127{fill:url(#SVGID_00000000924393162450544410000008850369033918975912_);}
	.st128{fill:url(#SVGID_00000160152964669400025880000012596388709673029558_);}
	.st129{fill:url(#SVGID_00000074404943386888238950000009293532158099108242_);}
	.st130{fill:url(#SVGID_00000150103324360642106330000007273184273353867950_);}
	.st131{fill:url(#SVGID_00000003801227115991096970000001200684143588306589_);}
	.st132{fill:url(#SVGID_00000142861374758904731720000013872697181114047402_);}
	.st133{fill:url(#SVGID_00000023267635003025013830000016782392963243348133_);}
	.st134{fill:url(#SVGID_00000052061903445856010030000008394150983992405412_);}
	.st135{fill:url(#SVGID_00000155844310541666836310000005493959437990389418_);}
	.st136{fill:url(#SVGID_00000058586220895547571190000014535440040545691037_);}
	.st137{fill:url(#SVGID_00000072998090605336190130000013749463670612637856_);}
	.st138{fill:url(#SVGID_00000107590456581560207630000004493074282583152022_);}
	.st139{fill:url(#SVGID_00000008869282616271468940000003167851724516610441_);}
	.st140{fill:url(#SVGID_00000062893989372719668510000016740838398592083077_);}
	.st141{fill:url(#SVGID_00000030470021586868013240000018323156956696487568_);}
	.st142{fill:url(#SVGID_00000044147573417544955710000010165480328783932861_);}
	.st143{fill:url(#SVGID_00000075846882202230284340000009338802429237646732_);}
	.st144{fill:url(#SVGID_00000054973199996444398660000001095279160327232898_);}
	.st145{fill:url(#SVGID_00000106829776776868340830000001193910348072228737_);}
	.st146{fill:url(#SVGID_00000003081211845726535710000015883360015417030817_);}
	.st147{fill:#004792;}
	.st148{fill:#2890FF;}
	.st149{fill:#F3F9FF;}
	.st150{fill:#F9B5B2;}
	.st151{fill:#07085B;}
	.st152{fill:#57ACE5;}
	.st153{opacity:0.3;fill:#57ACE5;enable-background:new    ;}
	.st154{fill:#026EAF;}
	.st155{fill:#02CCC0;}
	.st156{fill:#142666;}
	.st157{fill:#70C0FD;}
	.st158{fill:#4188E4;}
	.st159{fill:#97CEF7;}
	.st160{opacity:0.3;fill:#E87B50;enable-background:new    ;}
	.st161{fill:#00AA99;}
	.st162{fill:#F4A640;}
	.st163{fill:#202121;}
	.st164{fill:#333333;}
	.st165{fill:#183658;}
	.st166{fill:#FEE4CB;}
	.st167{fill:#FFC0BB;}
	.st168{fill:#F99893;}
	.st169{fill:#09083C;}
	.st170{opacity:0.5;fill:#97CEF7;enable-background:new    ;}
	.st171{fill:#81CAEF;}
	.st172{fill:#EF5488;}
	.st173{fill:#EA426E;}
	.st174{fill:#F76390;}
	.st175{fill:#DAEEF7;}
	.st176{opacity:0.3;fill:#F99893;enable-background:new    ;}
	.st177{fill:#FEB546;}
	.st178{opacity:0.5;fill:#E0A689;enable-background:new    ;}
	.st179{fill:#C9EAFD;}
	.st180{fill:#FFE6E4;}
	.st181{opacity:0.3;fill:#57ACE5;}
	.st182{opacity:0.3;fill:#E87B50;}
	.st183{clip-path:url(#SVGID_00000098911150210699850830000014116140830786769308_);fill:#FFACB0;}
	.st184{opacity:0.3;fill:#F99893;}
	.st185{opacity:0.5;fill:#E0A689;}
	.st186{clip-path:url(#SVGID_00000103262808523711044380000012975047923274047386_);fill:#FFACB0;}
	.st187{font-family:'Montserrat-Medium';}
	.st188{font-size:16px;}
	.st189{fill:#393939;}
	.st190{fill:#FFDBDB;}
	.st191{fill:#FF3F7A;}
	.st192{fill:#D6E5FF;}
	.st193{fill:#A9C0FF;}
	.st194{fill:url(#SVGID_00000053530743175917694950000005168873805944984200_);}
	.st195{fill:url(#SVGID_00000057120649714686353620000007189395135419110047_);}
	.st196{fill:url(#SVGID_00000163044278321035575260000005284564332573400961_);}
	.st197{fill:url(#SVGID_00000020397180517076949030000002100616184751717530_);}
	.st198{fill:none;stroke:#36363B;stroke-width:1.0502;stroke-miterlimit:10;}
	.st199{fill:none;stroke:#36363B;stroke-width:1.0502;stroke-linecap:round;stroke-linejoin:round;}
	.st200{fill:none;stroke:#36363B;stroke-width:1.0502;stroke-linecap:round;stroke-linejoin:round;stroke-dasharray:0.4784,4.7841;}
	.st201{fill:none;stroke:#36363B;stroke-width:1.0502;stroke-linecap:round;stroke-linejoin:round;stroke-dasharray:0.5149,5.1492;}
	.st202{fill:none;stroke:#36363B;stroke-width:1.0502;stroke-linecap:round;stroke-linejoin:round;stroke-dasharray:0.5234,5.2344;}
	.st203{fill:#F4B600;}
	.st204{fill:url(#SVGID_00000008127655147035389850000005865271168146330295_);}
	.st205{fill:url(#SVGID_00000176751762026398043240000005363202526459431345_);}
	.st206{fill:url(#SVGID_00000041256601987229427170000008609680701670257571_);}
	.st207{fill:url(#SVGID_00000150063475252397995370000005939798951212948378_);}
	.st208{fill:url(#SVGID_00000162314597520361638090000000045284731217479609_);}
	.st209{fill:none;stroke:#36363B;stroke-width:1.0502;stroke-linecap:round;stroke-linejoin:round;stroke-dasharray:0.5809,5.8095;}
	.st210{fill:none;stroke:#36363B;stroke-width:1.0502;stroke-linecap:round;stroke-linejoin:round;stroke-dasharray:0.5184,5.1839;}
	.st211{fill:none;stroke:#36363B;stroke-width:1.0502;stroke-linecap:round;stroke-linejoin:round;stroke-dasharray:0.5809,5.8094;}
	.st212{fill:none;stroke:#36363B;stroke-width:1.0502;stroke-linecap:round;stroke-linejoin:round;stroke-dasharray:0.5227,5.2267;}
	.st213{fill:url(#SVGID_00000043420972383216436300000011028704609055935928_);}
	.st214{fill:url(#SVGID_00000176022176246981687120000016619578601410498967_);}
	.st215{fill:url(#SVGID_00000129928330340158869980000013531653623065914504_);}
	.st216{fill:url(#SVGID_00000170978131063559543360000008897253874927424682_);}
	.st217{fill:url(#SVGID_00000175287932757934088150000009161500170762324893_);}
	.st218{fill:none;stroke:#36363B;stroke-width:1.0502;stroke-linecap:round;stroke-linejoin:round;stroke-dasharray:0.3391,3.3906;}
	.st219{fill:none;stroke:#36363B;stroke-width:1.0502;stroke-linecap:round;stroke-linejoin:round;stroke-dasharray:0.4651,4.651;}
	.st220{fill:none;stroke:#36363B;stroke-width:1.0502;stroke-linecap:round;stroke-linejoin:round;stroke-dasharray:0.5121,5.1209;}
	.st221{fill:url(#SVGID_00000062151271438031241500000015247990257935323583_);}
	.st222{fill:url(#SVGID_00000012429943082535292820000004057089841173349777_);}
	.st223{fill:url(#SVGID_00000083066407307317263160000009773761804958883234_);}
	.st224{fill:url(#SVGID_00000000180217152596260780000017086576387273111685_);}
	.st225{fill:url(#SVGID_00000055704974936843147670000014129738703366933678_);}
	.st226{fill:url(#SVGID_00000129902985458646928140000009200498434985712024_);}
	.st227{fill:url(#SVGID_00000178913916026318301000000007095954367738044825_);}
	.st228{fill:url(#SVGID_00000181084041700009489730000004278550277337564309_);}
	.st229{fill:url(#SVGID_00000086660116824281546350000013783520959417366699_);}
	.st230{fill:url(#SVGID_00000018943270737504954300000015005050463516908950_);}
	.st231{fill:url(#SVGID_00000131337788746281267780000014888904472430104195_);}
	.st232{fill:url(#SVGID_00000004544093346211566170000013426769571329246117_);}
	.st233{fill:url(#SVGID_00000167372612252330179430000004005342477575911859_);}
	.st234{fill:url(#SVGID_00000181051376181781853770000004780977867469437353_);}
	.st235{fill:url(#SVGID_00000076579257855616010580000000427083782042924424_);}
	.st236{fill:url(#SVGID_00000165938161006870710730000014517229427668843173_);}
	.st237{fill:url(#SVGID_00000097495845013653026820000011057067388074704023_);}
	.st238{fill:url(#SVGID_00000050635313952050274140000009970228502695113105_);}
	.st239{fill:url(#SVGID_00000154394356866964749990000006609958699286140332_);}
	.st240{fill:url(#SVGID_00000162339656228929739100000009227349066552289944_);}
	.st241{fill:url(#SVGID_00000019643569262406413580000001168975937115037102_);}
	.st242{fill:url(#SVGID_00000078013512137833467480000012692933010203411637_);}
	.st243{fill:url(#SVGID_00000180355204025531786480000014150673470365167021_);}
	.st244{fill:url(#SVGID_00000057136846474113098100000012733018942051142813_);}
	.st245{fill:url(#SVGID_00000023250010224465802700000016066814656733714562_);}
	.st246{fill:url(#SVGID_00000013173300574579533000000005805329307171298233_);}
	.st247{fill:url(#SVGID_00000075129091997378630330000004609397748483880125_);}
	.st248{fill:#A7A7A7;}
	.st249{fill:url(#SVGID_00000130643601241085215190000002409540175191523244_);}
	.st250{fill:url(#SVGID_00000109001192501163213820000010695915504687136643_);}
	.st251{fill:url(#SVGID_00000021103351078072152730000013945156301730740125_);}
	.st252{fill:url(#SVGID_00000171700736008520742740000005628590128564892820_);}
	.st253{fill:url(#SVGID_00000139263380841381219120000000880970880483206313_);}
	.st254{fill:url(#SVGID_00000001643966701655562330000002726522258608531637_);}
	.st255{fill:url(#SVGID_00000074416324610172446380000011742249704219946659_);}
	.st256{fill:url(#SVGID_00000147203949403785507180000005285636883211916977_);}
	.st257{fill:url(#SVGID_00000041288248350348678450000003070213637803376773_);}
	.st258{fill:url(#SVGID_00000032611925671746327850000010815805502883769480_);}
	.st259{fill:url(#SVGID_00000132802492612848868670000004283035094935259574_);}
	.st260{fill:url(#SVGID_00000011014518761822985820000005521949505854314908_);}
	.st261{fill:url(#SVGID_00000017488181106809509800000012509649799308793235_);}
	.st262{fill:url(#SVGID_00000085240253237265482850000003754034151944254101_);}
	.st263{fill:url(#SVGID_00000121969436367687402550000013116966605881817504_);}
	.st264{fill:url(#SVGID_00000112621863938254643740000005785494705336106393_);}
	.st265{fill:url(#SVGID_00000034089185018061540250000014166141178234264448_);}
	.st266{fill:url(#SVGID_00000170249871909841106630000007724206883155875207_);}
	.st267{fill:url(#SVGID_00000140701445458992444030000009276167108868448156_);}
	.st268{fill:url(#SVGID_00000060731628518894350970000009860901107736454824_);}
	.st269{fill:url(#SVGID_00000093899491180765549920000014807737092940400294_);}
	.st270{fill:url(#SVGID_00000067224464215253109560000010405414562452895617_);}
	.st271{fill:url(#SVGID_00000173883087114977402410000014890069276442545831_);}
	.st272{fill:url(#SVGID_00000150782133327437689260000015984646962285277844_);}
	.st273{fill:url(#SVGID_00000065033407787209746070000007620970809389824149_);}
	.st274{fill:url(#SVGID_00000113320813734862818510000010426960038160860301_);}
	.st275{fill:url(#SVGID_00000150798866541796632020000012023230469192306600_);}
	.st276{fill:url(#SVGID_00000103979692939261848330000000895108772816524187_);}
	.st277{fill:url(#SVGID_00000023971971096924166160000009222872897715987098_);}
	.st278{fill:url(#SVGID_00000024724490049474237680000007478633859690041775_);}
	.st279{fill:url(#SVGID_00000121239470075081983050000010139824420176716702_);}
	.st280{fill:url(#SVGID_00000030446568430812639120000016535884132910389668_);}
	.st281{fill:url(#SVGID_00000140723995845138916450000010189828490507848856_);}
	.st282{fill:url(#SVGID_00000136402848052808305350000015871642077204584621_);}
	.st283{fill:url(#SVGID_00000117676933260784280280000011787895403937626256_);}
	.st284{fill:url(#SVGID_00000167370927478527650170000010077641240129166745_);}
	.st285{fill:url(#SVGID_00000083798674460571812800000006974898166636069782_);}
	.st286{fill:url(#SVGID_00000056408230807703590700000002895662713667771013_);}
	.st287{fill:url(#SVGID_00000140722320307038799700000006974453028013737398_);}
	.st288{fill:url(#SVGID_00000167381894515993567260000006230562181105006242_);}
	.st289{fill:url(#SVGID_00000043445789662384315140000009460366518428454322_);}
	.st290{fill:url(#SVGID_00000062879182808677669470000013448299309048455844_);}
	.st291{fill:url(#SVGID_00000089565591739726788180000005502389867164074424_);}
	.st292{fill:url(#SVGID_00000034784206446749643470000013128713018246192031_);}
	.st293{fill:url(#SVGID_00000123427584755822075180000018050804050401141432_);}
	.st294{fill:url(#SVGID_00000123437185471007352670000011263861921194560407_);}
	.st295{fill:url(#SVGID_00000067935036498201082230000002091864409036442559_);}
	.st296{fill:url(#SVGID_00000111899824076134161700000004120580566570480525_);}
	.st297{fill:url(#SVGID_00000030468471171547933540000008267632733591801475_);}
	.st298{fill:url(#SVGID_00000087379155804287016570000008259156219454825647_);}
	.st299{fill:url(#SVGID_00000067218267494430744860000012492429751565666194_);}
	.st300{fill:url(#SVGID_00000083051104746476059990000018052255625383411359_);}
	.st301{fill:url(#SVGID_00000096739554729751906070000012245485163673841585_);}
	.st302{fill:url(#SVGID_00000147197477534041663840000012776619023903147671_);}
	.st303{fill:url(#SVGID_00000157283129933252347320000001960295431830522303_);}
	.st304{fill:url(#SVGID_00000126314312868915376120000014837671523640859321_);}
	.st305{fill:url(#SVGID_00000138532765910486936460000000943530736397394307_);}
	.st306{fill:url(#SVGID_00000072966496412570447370000004924171527602253495_);}
	.st307{fill:url(#SVGID_00000150076684963682872300000013619353710180637358_);}
	.st308{fill:url(#SVGID_00000068644338620018172280000005211535583099881862_);}
	.st309{fill:url(#SVGID_00000145743591543211739600000010372740943508703384_);}
	.st310{fill:url(#SVGID_00000013879831752147266460000005725986929354439836_);}
	.st311{fill:url(#SVGID_00000060020988764227400060000009051998587065437061_);}
	.st312{fill:url(#SVGID_00000057867700207689644980000005966813829143962246_);}
	.st313{fill:url(#SVGID_00000108293357755458034880000018318158955199898517_);}
	.st314{fill:url(#SVGID_00000016756793587853506840000014960582100510209958_);}
	.st315{fill:url(#SVGID_00000005264670299596958040000013560937579181208510_);}
	.st316{fill:url(#SVGID_00000058583846625911095890000009249722151536575668_);}
	.st317{fill:url(#SVGID_00000033343325150589679250000000997921545638401428_);}
	.st318{fill:url(#SVGID_00000155113562597429967470000005412689928994721972_);}
	.st319{fill:url(#SVGID_00000083057122552883054400000017839969787806137528_);}
	.st320{fill:url(#SVGID_00000047020283157407207250000008061143461638514579_);}
	.st321{fill:url(#SVGID_00000097471715106217068050000007712477864071352707_);}
	.st322{fill:url(#SVGID_00000134234285823158615640000003031525227249943977_);}
	.st323{fill:url(#SVGID_00000030471054821596017260000017185406983082570674_);}
	.st324{fill:url(#SVGID_00000177454705335377815080000015892493800468955580_);}
	.st325{fill:url(#SVGID_00000098206455144443581970000014864833629817827968_);}
	.st326{fill:url(#SVGID_00000000940931132614432800000009174853469438692744_);}
	.st327{fill:url(#SVGID_00000183227356705377811290000006521124655863550379_);}
	.st328{fill:url(#SVGID_00000132065866645129275160000013559343414728948388_);}
	.st329{fill:url(#SVGID_00000057129944266504478260000010414236176206034316_);}
	.st330{fill:url(#SVGID_00000077297420554412966500000000768674003604593087_);}
	.st331{fill:url(#SVGID_00000061435062923496709220000001935262366856740773_);}
	.st332{fill:url(#SVGID_00000121270478832282675670000003870227381251657646_);}
	.st333{fill:url(#SVGID_00000161629709102061695920000015612988008391024542_);}
	.st334{fill:url(#SVGID_00000106854859622694517500000007533957616852380560_);}
	.st335{fill:url(#SVGID_00000165947913896219675620000002962973101335197860_);}
	.st336{fill:url(#SVGID_00000161589227611874888200000001751826756106449830_);}
	.st337{fill:url(#SVGID_00000181079773545053265940000006943072255064732810_);}
	.st338{fill:url(#SVGID_00000088100666960319433370000001633662469927037339_);}
	.st339{fill:url(#SVGID_00000098922614988104866440000013666389939536576130_);}
	.st340{fill:url(#SVGID_00000180368352538179482460000003172163211015621297_);}
	.st341{fill:url(#SVGID_00000114045867935115699020000014595829349027510146_);}
	.st342{fill:url(#SVGID_00000007421838772163462540000015243558147026629300_);}
	.st343{fill:url(#SVGID_00000110434181693065207460000011805599559577498538_);}
	.st344{fill:url(#SVGID_00000026852929894343815500000001773556310594677934_);}
	.st345{fill:url(#SVGID_00000096061072823636961110000005107733672393085838_);}
	.st346{fill:url(#SVGID_00000026842203498063949330000001047586514920239770_);}
	.st347{fill:url(#SVGID_00000115496409662356356040000013490034927070686887_);}
	.st348{fill:url(#SVGID_00000070832221928885968910000010348221499646168477_);}
	.st349{fill:url(#SVGID_00000003090606252419374260000015961996322896830138_);}
	.st350{fill:url(#SVGID_00000102544984625055767970000004837849740802225805_);}
	.st351{fill:url(#SVGID_00000062896911042667522870000016079054232573951136_);}
	.st352{fill:url(#SVGID_00000026875440579442178090000009710633065266454700_);}
	.st353{fill:url(#SVGID_00000164503603181422554040000002902791468831155878_);}
	.st354{fill:url(#SVGID_00000098906795343985226120000008490681099409854860_);}
	.st355{fill:url(#SVGID_00000053516745817527028530000012821743338659387321_);}
	.st356{fill:url(#SVGID_00000178199927907783046250000002705636419548746417_);}
	.st357{fill:url(#SVGID_00000000929019868123292720000007787738861468944780_);}
	.st358{fill:url(#SVGID_00000011017559305920938270000012608446758807184783_);}
	.st359{fill:url(#SVGID_00000068651409346334145520000015451241872901048765_);}
	.st360{fill:url(#SVGID_00000021816097660414793870000007136210693162724019_);}
	.st361{fill:url(#SVGID_00000007402630127389544510000016069842377728944005_);}
	.st362{fill:url(#SVGID_00000123435905704249443670000006345496482356749726_);}
	.st363{fill:url(#SVGID_00000147212410304585562020000002392292156970058430_);}
	.st364{fill:url(#SVGID_00000011017759963274292260000015635058331361482138_);}
	.st365{fill:url(#SVGID_00000044152400550070817990000017490858823011687843_);}
	.st366{fill:url(#SVGID_00000101074849834375925430000016561140101723079857_);}
	.st367{fill:url(#SVGID_00000086660742060024000370000004190522547440724904_);}
	.st368{fill:url(#SVGID_00000115490932243233570800000004995393555979893900_);}
	.st369{fill:url(#SVGID_00000154416881553129845370000018278858666502465667_);}
	.st370{fill:url(#SVGID_00000140005156052529114010000000854190668146213251_);}
	.st371{fill:url(#SVGID_00000009582399452583321130000000640804426195879604_);}
	.st372{fill:url(#SVGID_00000052104428356940752990000013050330875494955659_);}
	.st373{fill:url(#SVGID_00000060721096036765791010000007414699210773742470_);}
	.st374{fill:url(#SVGID_00000144301339523253209250000015615041446919531174_);}
	.st375{fill:url(#SVGID_00000026879003673595973190000012928101326755036575_);}
	.st376{fill:url(#SVGID_00000024682002779071761680000000405548510302170552_);}
	.st377{fill:url(#SVGID_00000131349628890533043230000005670345946993424821_);}
	.st378{fill:url(#SVGID_00000136404009784427869050000018124285586449133731_);}
	.st379{fill:url(#SVGID_00000119837203805255644950000001466425952880334738_);}
	.st380{fill:url(#SVGID_00000098213919853922502670000002634707896236361383_);}
	.st381{fill:url(#SVGID_00000165193389918708453010000012503121149441241512_);}
	.st382{fill:url(#SVGID_00000163778425348501580570000016412208571845482118_);}
	.st383{fill:url(#SVGID_00000132050285221082800430000014618674132706476452_);}
	.st384{fill:url(#SVGID_00000110444850966483115120000001867565758904311695_);}
	.st385{fill:url(#SVGID_00000022521206873406407040000010394415308300490155_);}
	.st386{fill:url(#SVGID_00000181802424375475203110000006046310675264061089_);}
	.st387{fill:url(#SVGID_00000074419796640847405780000010869356330529889677_);}
	.st388{fill:url(#SVGID_00000039847645440238983660000001621336285064008342_);}
	.st389{fill:url(#SVGID_00000101064031168172930710000009865473256451373734_);}
	.st390{fill:url(#SVGID_00000138544643445612050920000011543874555728227220_);}
	.st391{fill:url(#SVGID_00000178163275727106078770000003439701180324118154_);}
	.st392{fill:url(#SVGID_00000057129437914170453300000004318181675808952508_);}
	.st393{fill:url(#SVGID_00000148623402204839988240000001968313041847323569_);}
	.st394{fill:url(#SVGID_00000113346124237021920660000010813153993706663040_);}
	.st395{fill:url(#SVGID_00000014622781014655701430000005123679309763022522_);}
	.st396{fill:url(#SVGID_00000103980495214797084950000008152442114331441810_);}
	.st397{fill:url(#SVGID_00000183242813644855237520000011645273671696427199_);}
	.st398{fill:url(#SVGID_00000090291044777190035570000000853886618909263251_);}
	.st399{fill:url(#SVGID_00000105388095267085018490000010720043843350756517_);}
	.st400{fill:url(#SVGID_00000106847105107212813310000014343267075936418208_);}
	.st401{fill:url(#SVGID_00000150816579681671386730000007505723101031082429_);}
	.st402{fill:url(#SVGID_00000131337982317523514140000002737214049372060566_);}
	.st403{fill:url(#SVGID_00000021118216676509735660000006613825326693693324_);}
	.st404{fill:url(#SVGID_00000105399103576828813160000000786030548043484569_);}
	.st405{fill:url(#SVGID_00000124870001415909434500000012492154700101927316_);}
	.st406{fill:url(#SVGID_00000082345726927625488310000005625494090645026695_);}
	.st407{fill:url(#SVGID_00000153688208772261337200000005550183296157134216_);}
	.st408{fill:url(#SVGID_00000130612959294733403370000017766704282145368757_);}
	.st409{fill:url(#SVGID_00000176732451730068794380000016444263732577658812_);}
	.st410{fill:url(#SVGID_00000136404397330439727750000011853416700834333085_);}
	.st411{fill:url(#SVGID_00000154423545063825051430000004691883904099822763_);}
	.st412{fill:url(#SVGID_00000170266657958088253370000011861710791653132446_);}
	.st413{fill:url(#SVGID_00000076581883950372950600000007656997356943291280_);}
	.st414{fill:url(#SVGID_00000136408653242897555360000014972155038558784391_);}
	.st415{fill:url(#SVGID_00000064352808303770963410000003749812413324378559_);}
	.st416{fill:url(#SVGID_00000147939983508239473170000007458809676501334930_);}
	.st417{fill:url(#SVGID_00000043440031660966030220000001809962022637809828_);}
	.st418{fill:url(#SVGID_00000069384339810122905670000010035201999339680678_);}
	.st419{fill:url(#SVGID_00000018207334053833528380000005978829777583678865_);}
	.st420{fill:url(#SVGID_00000073713620917239989750000003210550333533482905_);}
	.st421{fill:url(#SVGID_00000034053380065899572380000013824842545943721875_);}
	.st422{fill:url(#SVGID_00000071535010031662912740000006503856330840881809_);}
	.st423{fill:url(#SVGID_00000069374655408428568610000003577652925714315406_);}
	.st424{fill:url(#SVGID_00000089553919426109746270000006892824820861728934_);}
	.st425{fill:url(#SVGID_00000139974026528918046790000005153548187869841812_);}
	.st426{fill:url(#SVGID_00000150821529563920342660000005537876926783034777_);}
	.st427{fill:url(#SVGID_00000166676248323171091480000004494236913348188819_);}
	.st428{fill:url(#SVGID_00000085246665893600730500000007875141261483483563_);}
	.st429{fill:url(#SVGID_00000037679848619991591620000007194938166732856228_);}
	.st430{fill:url(#SVGID_00000065044718565685109850000003129295644599532421_);}
	.st431{fill:url(#SVGID_00000015339885937431373980000000695960708745428611_);}
	.st432{fill:url(#SVGID_00000042695547280457061760000015129764969687906973_);}
	.st433{fill:url(#SVGID_00000060001926231357127180000013235318139018254980_);}
	.st434{fill:url(#SVGID_00000019664514135788890240000010138449333543636913_);}
	.st435{fill:url(#SVGID_00000007411629271178507550000015545032590600097982_);}
	.st436{fill:url(#SVGID_00000076596545036583211320000003185680710956466606_);}
	.st437{fill:url(#SVGID_00000166647075778366851250000003309216419494571925_);}
	.st438{fill:url(#SVGID_00000011017950185947824800000015717362698277413528_);}
	.st439{fill:url(#SVGID_00000112611765403841572860000005264919880635076226_);}
	.st440{fill:url(#SVGID_00000104690401348348408210000012372157456394509720_);}
	.st441{fill:url(#SVGID_00000129898880271244049230000006028969842331330213_);}
	.st442{fill:url(#SVGID_00000170972024782357096720000017828947064141220245_);}
	.st443{fill:url(#SVGID_00000147908713021691605750000007741600523885707650_);}
	.st444{fill:url(#SVGID_00000115513788028195207870000012590265984435796885_);}
	.st445{fill:url(#SVGID_00000153704669251827412790000017674551105822008997_);}
	.st446{fill:url(#SVGID_00000037653024086296477390000013776632668483169213_);}
	.st447{fill:url(#SVGID_00000098900694934448536220000015829440350773785779_);}
	.st448{fill:url(#SVGID_00000049942137420473456070000005582983142556949648_);}
	.st449{fill:url(#SVGID_00000039813781693587463420000004539238586592697500_);}
	.st450{fill:url(#SVGID_00000052792445352775043600000016449987192599025563_);}
	.st451{fill:url(#SVGID_00000015330967544563192310000017801606330342208170_);}
	.st452{fill:url(#SVGID_00000176019030832187162430000005125971329968491417_);}
	.st453{fill:url(#SVGID_00000027579452483088277700000000842521532410486419_);}
	.st454{fill:url(#SVGID_00000026133751863334364950000002562653965057372060_);}
	.st455{fill:url(#SVGID_00000146463618482198063890000006952523990487883179_);}
	.st456{fill:url(#SVGID_00000168804236135581517110000008600139435595454127_);}
	.st457{fill:url(#SVGID_00000015346719087497393810000016085305496502774430_);}
	.st458{fill:url(#SVGID_00000116938864776917931170000009100902120036519065_);}
	.st459{fill:url(#SVGID_00000158020979563993637090000002482799984821236139_);}
	.st460{fill:url(#SVGID_00000126301754325280591880000014920870371684465572_);}
	.st461{fill:url(#SVGID_00000107563388603460350650000002980694392939134894_);}
	.st462{fill:url(#SVGID_00000035513416571308552090000009956269006666493363_);}
	.st463{fill:url(#SVGID_00000167354535702926219190000001232254089334651582_);}
	.st464{fill:url(#SVGID_00000173143321163605329550000005894693421032899738_);}
	.st465{fill:url(#SVGID_00000173847746565219368910000004178900412544173977_);}
	.st466{fill:url(#SVGID_00000038402522821653095160000005264664985151789710_);}
	.st467{fill:url(#SVGID_00000150790470290775958160000012439532546595037346_);}
	.st468{fill:url(#SVGID_00000065066271811280658350000002626722260052904594_);}
	.st469{fill:url(#SVGID_00000125596216165851699590000009213082351317382532_);}
	.st470{fill:url(#SVGID_00000011031210948537729250000011792825662552122506_);}
	.st471{fill:url(#SVGID_00000155844468656490347400000016892393657336070061_);}
	.st472{fill:url(#SVGID_00000033356506070233041250000012261107980819862147_);}
	.st473{fill:url(#SVGID_00000085958719631445143090000011915594655384158888_);}
	.st474{fill:url(#SVGID_00000049221254259075034490000003623032621335729323_);}
	.st475{fill:url(#SVGID_00000101096145057655577380000009241287173320475556_);}
	.st476{fill:url(#SVGID_00000026137312449617665940000017340922132572863389_);}
	.st477{fill:url(#SVGID_00000035499333221313568980000009539889739499031989_);}
	.st478{fill:url(#SVGID_00000067221946902746793440000000951294491004193447_);}
	.st479{fill:url(#SVGID_00000091729788387664904320000003225295365446214554_);}
	.st480{fill:url(#SVGID_00000078047121175369418430000012453852379254845616_);}
	.st481{fill:url(#SVGID_00000072250839601469341110000011089770737747357319_);}
	.st482{fill:#8A8A8A;}
	.st483{fill:url(#SVGID_00000071535410207776611290000005425941607527254698_);}
	.st484{fill:url(#SVGID_00000148625766811623553520000003572620419388893631_);}
	.st485{fill:#C4A960;}
	.st486{fill:url(#SVGID_00000067216124809526036570000005937301470760267707_);}
	.st487{fill:url(#SVGID_00000054265839839563842330000016950889825810422925_);}
	.st488{fill:url(#SVGID_00000053535380124029992010000008644118215657636007_);}
	.st489{fill:url(#SVGID_00000153687814996796936540000009261757841546075285_);}
	.st490{fill:url(#SVGID_00000082336764678340800610000016823496719788757403_);}
	.st491{fill:url(#SVGID_00000139295603077705801900000008042821891895970207_);}
	.st492{fill:url(#SVGID_00000128476625383884858950000016145784434184865206_);}
	.st493{fill:url(#SVGID_00000056395095980667798840000003779223492340644285_);}
	.st494{fill:url(#SVGID_00000134233729885681342420000016606070003725717427_);}
	.st495{fill:url(#SVGID_00000082335444724408282620000004495751915787339158_);}
	.st496{fill:url(#SVGID_00000134959628835584307890000007904258663273083049_);}
	.st497{fill:url(#SVGID_00000080187789637780737190000013715557749382574753_);}
	.st498{fill:url(#SVGID_00000003802770292825540510000009010347181680321416_);}
	.st499{fill:url(#SVGID_00000124144529687980067800000014367426975876792473_);}
	.st500{fill:url(#SVGID_00000168111460088211095940000017614415130651714712_);}
	.st501{fill:url(#SVGID_00000060713592991337234500000007686063576138311583_);}
	.st502{fill:url(#SVGID_00000179637893361929818030000017106794346921635746_);}
	.st503{fill:url(#SVGID_00000014624028580626728370000005370167787553375892_);}
	.st504{fill:url(#SVGID_00000021837452095302673510000001442404527213791360_);}
	.st505{fill:url(#SVGID_00000098902076676015062250000016545799546379120262_);}
	.st506{fill:url(#SVGID_00000132805448834751531490000017723450602868819587_);}
	.st507{fill:url(#SVGID_00000140714226991244386000000009539505073062498993_);}
	.st508{fill:url(#SVGID_00000163790950787345543770000015012662306076566701_);}
	.st509{fill:url(#SVGID_00000052811084932463685680000016507607678319847858_);}
	.st510{fill:url(#SVGID_00000107550784830733876570000000917729126508745861_);}
	.st511{fill:url(#SVGID_00000078034671189198954150000011466698986698066817_);}
	.st512{fill:url(#SVGID_00000109739157698594727470000001941073474527381677_);}
	.st513{fill:url(#SVGID_00000034771596535094992880000012017903522871513739_);}
	.st514{fill:url(#SVGID_00000054227114521432173090000009691793350453886896_);}
	.st515{fill:url(#SVGID_00000158737780754908862040000001801034207643912880_);}
	.st516{fill:url(#SVGID_00000161597566964556909550000009879776027107771523_);}
	.st517{fill:url(#SVGID_00000035508560393535281810000000034315798757162675_);}
	.st518{fill:url(#SVGID_00000134952795167391926650000004369883628786838445_);}
	.st519{fill:url(#SVGID_00000070821191333008264130000000838477415637993369_);}
	.st520{fill:url(#SVGID_00000149381090553764943400000006369143864443671962_);}
	.st521{fill:url(#SVGID_00000052797190227932866120000002959030848618707091_);}
	.st522{fill:url(#SVGID_00000147928535354486366740000011363767432443720373_);}
	.st523{fill:url(#SVGID_00000132074008329498536910000002910997636077957311_);}
	.st524{fill:url(#SVGID_00000146464738873608890690000004394606533607347591_);}
	.st525{fill:url(#SVGID_00000153693283248344125020000008972165790188555421_);}
	.st526{fill:url(#SVGID_00000101800579478593028340000011800052231572404880_);}
	.st527{fill:url(#SVGID_00000142168750240671160240000004203533244812629163_);}
	.st528{fill:url(#SVGID_00000011022147432065375750000008266338585099524757_);}
	.st529{fill:url(#SVGID_00000085236726845155119350000006994785295697157767_);}
	.st530{fill:url(#SVGID_00000104672957839045128940000009995452505433219992_);}
	.st531{fill:url(#SVGID_00000088842521472217367430000017905690168089013894_);}
	.st532{fill:url(#SVGID_00000061469356808269002760000002897657807640573316_);}
	.st533{fill:url(#SVGID_00000094580062830502547260000015922597094280698004_);}
	.st534{fill:url(#SVGID_00000101063381857875027490000009631485290609917092_);}
	.st535{fill:url(#SVGID_00000169543625577787148260000011739290507068035244_);}
	.st536{fill:url(#SVGID_00000112632910800658959480000015357082962191348355_);}
	.st537{fill:url(#SVGID_00000080203112420305647150000000130824272786227854_);}
	.st538{fill:url(#SVGID_00000108993961678321360970000015399859826260341666_);}
	.st539{fill:url(#SVGID_00000074405187367253523960000012581223749259990692_);}
	.st540{fill:url(#SVGID_00000109733159660137895280000015872100998744427962_);}
	.st541{fill:url(#SVGID_00000092426913755014728350000017263767163923884197_);}
	.st542{fill:url(#SVGID_00000072242642698108606760000005220125058141189521_);}
	.st543{fill:url(#SVGID_00000085232829807748910460000000620121363086594713_);}
	.st544{fill:url(#SVGID_00000165202939921847519010000016343120702973698713_);}
	.st545{fill:url(#SVGID_00000073697856939748279210000005536878240578682250_);}
	.st546{fill:url(#SVGID_00000117646086380082121560000016887187246484400547_);}
	.st547{fill:url(#SVGID_00000034087360050608324730000014240030684099316881_);}
	.st548{fill:url(#SVGID_00000134957592036954832440000010946280363200831647_);}
	.st549{fill:url(#SVGID_00000087409593198102266800000013564845749441114552_);}
	.st550{fill:url(#SVGID_00000016054829815796317490000009803698817099697575_);}
	.st551{fill:url(#SVGID_00000061432675664282428250000004797691416136458640_);}
	.st552{fill:url(#SVGID_00000111907247779558707460000004925262113639759260_);}
	.st553{fill:url(#SVGID_00000139278362178150652900000012229892965886682301_);}
	.st554{fill:url(#SVGID_00000105399757228603597170000012987251012593619086_);}
	.st555{fill:url(#SVGID_00000059306096925486404670000012036496784134598274_);}
	.st556{fill:url(#SVGID_00000088102352623861396180000016727312138279764111_);}
	.st557{fill:url(#SVGID_00000173151921974473715790000017963412593533365410_);}
	.st558{fill:url(#SVGID_00000002367456508992409960000004698395107338701207_);}
	.st559{fill:url(#SVGID_00000005950808327838086940000014771338378948495768_);}
	.st560{fill:url(#SVGID_00000077283187512193553090000016003552819708957863_);}
	.st561{fill:url(#SVGID_00000105412939469672969070000014532030760631371167_);}
	.st562{fill:url(#SVGID_00000031193202530826520140000010760248074009444245_);}
	.st563{fill:url(#SVGID_00000119117405237585434280000007619870846521900459_);}
	.st564{fill:url(#SVGID_00000003077621641913530060000006962107265392920742_);}
	.st565{fill:url(#SVGID_00000111168015202464492380000014436702135578276240_);}
	.st566{fill:url(#SVGID_00000050642149610717516950000011027488866852201905_);}
	.st567{fill:url(#SVGID_00000129169722579546294030000011075186299257390223_);}
	.st568{fill:url(#SVGID_00000000921595761531540470000015276911419779947178_);}
	.st569{fill:url(#SVGID_00000030482539858084679340000007509710532170847113_);}
	.st570{fill:url(#SVGID_00000142889450934863822730000003068476381920739249_);}
	.st571{fill:url(#SVGID_00000109001148681994505900000001187797846081736629_);}
	.st572{opacity:0.1;}
	.st573{fill-rule:evenodd;clip-rule:evenodd;}
</style>
<g>
	<path class="st180" d="M38.74,299.59c0,0-53.25-31.91-25.6-122.13C40.79,87.25,26.72,3.91,167.9,7.39
		C309.08,10.86,330.49,59.26,405,59.07c74.51-0.19,131.68-5.25,197.12-0.54c81.92,5.89,171.85,52.69,194.39,111.34
		c22.54,58.65-7.83,128.69-7.83,128.69L38.74,299.59z"/>
	<path class="st150" d="M722.73,207.79l-0.85,7.78c0,0,3.13,0.39,4.5,0.78c1.37,0.39,5.24-7.25,5.24-7.25s-4.13-1.77-4.33-1.77
		C727.1,207.34,722.73,207.79,722.73,207.79z"/>
	<g>
		<polygon class="st151" points="767.33,243.79 771.18,298.71 769.26,298.71 763.17,244.38 		"/>
		<polygon class="st151" points="726.97,243.79 723.13,298.71 725.05,298.71 731.14,244.38 		"/>
		<path class="st152" d="M784.1,184.37c0,0-30.72-0.91-32.7-0.77c-1.99,0.14-3.83,6.53-3.83,6.53s-8.97,33.29-8.79,34.2
			c0.18,0.92-8.37,22.37-8.37,22.37s7.37-0.2,7.7,0c0.33,0.2,28.52-2.42,28.91-2.68c0.39-0.26,1.83-5.17,1.89-5.43
			c0.07-0.26,2.22-19.36,2.22-19.36l1.11-10.53c0,0,4.24-9.03,4.31-9.06c0.07-0.03,3.98-7.94,4.24-8.33
			c0.26-0.39,4.31-4.77,4.44-5.17C785.36,185.76,784.1,184.37,784.1,184.37z"/>
		<path class="st181" d="M784.1,184.37c0,0-10.59-0.31-19.74-0.54c3.55,2.09,5.55,7.94,4.07,18.35c-1.26,8.84-2.65,18.44-8.22,29.95
			c-2.87,5.93-15.22,2.61-25.34,3.19c-2.18,5.66-4.46,11.38-4.46,11.38s7.37-0.2,7.7,0c0.33,0.2,28.52-2.42,28.91-2.68
			c0.39-0.26,1.83-5.17,1.89-5.43c0.07-0.26,2.22-19.36,2.22-19.36l1.11-10.53c0,0,4.24-9.03,4.31-9.06
			c0.07-0.03,3.98-7.94,4.24-8.33c0.26-0.39,4.31-4.77,4.44-5.17C785.36,185.76,784.1,184.37,784.1,184.37z"/>
		<g>
			<g>
				<path class="st154" d="M724.8,247.88L724.8,247.88c-0.07-1.05,0.73-1.96,1.77-2.03c3.28-0.22,10.38-0.73,17.68-1.42
					c13.99-1.33,19.05-2.41,20.87-2.98c0.63-0.2,1.11-0.7,1.27-1.34c0.49-1.96,0.78-6.02,1.02-9.41
					c0.91-12.89,2.42-34.14,15.66-45.81c0.83-0.73,2.1-0.6,2.77,0.28l0,0c0.61,0.8,0.51,1.93-0.25,2.59
					c-12.06,10.59-13.45,30.13-14.38,43.21c-0.53,7.46-0.86,11.12-2.48,12.82c-0.79,0.82-2.25,2.35-23.53,4.39
					c-7.55,0.73-14.98,1.26-18.37,1.49C725.77,249.74,724.86,248.94,724.8,247.88z M766.06,241.06L766.06,241.06L766.06,241.06z"/>
			</g>
		</g>
	</g>
	<path class="st155" d="M725.72,220.81c0,0,0.84-29.56,2.4-32.96c1.56-3.4,7.08-4.05,7.08-4.05s14.4-2.14,18.14,1.4
		c0.28,0.26,6.79,8.9,5.75,49.88c0,0-12.36-6.8-33.37-10.29V220.81z"/>
	<g class="st57">
		<polygon class="st0" points="474.34,141.19 528.2,141.19 552.95,86.53 499.08,86.53 		"/>
		<polygon class="st0" points="561.16,86.53 536.42,141.19 590.28,141.19 615.03,86.53 		"/>
		<polygon class="st0" points="447.12,201.32 500.98,201.32 525.73,146.67 471.86,146.67 		"/>
		<polygon class="st0" points="509.2,201.32 563.06,201.32 587.81,146.67 533.94,146.67 		"/>
	</g>
	<rect x="372.25" y="107.63" class="st156" width="6.98" height="28.31"/>
	
		<rect x="423.63" y="118.7" transform="matrix(-1.836970e-16 1 -1 -1.836970e-16 559.2299 -293.5898)" class="st157" width="5.56" height="28.25"/>
	
		<rect x="427.39" y="113.12" transform="matrix(-1.836970e-16 1 -1 -1.836970e-16 557.4089 -302.9276)" class="st156" width="5.56" height="28.25"/>
	
		<rect x="421.54" y="107.68" transform="matrix(-1.836970e-16 1 -1 -1.836970e-16 546.1227 -302.5212)" class="st0" width="5.56" height="28.25"/>
	<rect x="380.17" y="96.22" class="st0" width="7.14" height="39.29"/>
	<rect x="364.85" y="100.55" class="st157" width="6.58" height="34.96"/>
	<polygon class="st157" points="408.53,132.3 402.62,135.19 387.31,103.77 393.22,100.88 	"/>
	<rect x="359.63" y="135.32" class="st158" width="112.95" height="3.2"/>
	<g>
		<rect x="629.29" y="113.15" class="st156" width="6.2" height="25.14"/>
		
			<rect x="654.98" y="122.98" transform="matrix(-1.836970e-16 1 -1 -1.836970e-16 792.9745 -521.9263)" class="st0" width="4.94" height="25.09"/>
		
			<rect x="658.32" y="118.02" transform="matrix(-1.836970e-16 1 -1 -1.836970e-16 791.3569 -530.2199)" class="st159" width="4.94" height="25.09"/>
		
			<rect x="654.98" y="113.19" transform="matrix(-1.836970e-16 1 -1 -1.836970e-16 783.1872 -531.7136)" class="st156" width="4.94" height="25.09"/>
		<rect x="636.32" y="103.02" class="st157" width="6.34" height="34.9"/>
		<rect x="622.71" y="106.87" class="st0" width="5.84" height="31.05"/>
		<g>
			<rect x="684.2" y="113.15" class="st156" width="6.2" height="25.14"/>
			<rect x="691.23" y="103.02" class="st157" width="6.34" height="34.9"/>
			<rect x="677.62" y="106.87" class="st0" width="5.84" height="31.05"/>
			<polygon class="st0" points="716.42,135.06 711.17,137.63 697.58,109.72 702.83,107.16 			"/>
		</g>
		<rect x="618.07" y="137.74" class="st158" width="100.32" height="2.84"/>
	</g>
	<g>
		<path class="st0" d="M716.66,298.85l14.98-6.94c0.22-0.1,0.32-0.36,0.21-0.59l-0.38-0.83c-0.1-0.22-0.36-0.32-0.58-0.22
			l-14.98,6.94c-0.22,0.1-0.32,0.36-0.21,0.59l0.38,0.83C716.18,298.86,716.44,298.96,716.66,298.85z"/>
		<path class="st155" d="M728.28,285.48l2.62,4.3c0.32,0.53,0.25,1.18-0.15,1.36l-13.9,6.44c-0.36,0.17-0.82,0.1-1.22-0.25
			c-0.4-0.36-0.75-1.01-0.54-2.2c0.4-2.34,4.16-4.64,5.51-7.06c0.05-0.09,0.12-0.16,0.21-0.2l6.34-2.94
			C727.5,284.77,727.98,285,728.28,285.48z"/>
		<g>
			<path class="st0" d="M722.87,290.12L722.87,290.12c0.07-0.11,0.03-0.3-0.09-0.41c-0.56-0.5-2.11-1.61-3.7-0.5
				c-0.09,0.06-0.1,0.23-0.01,0.37l0,0c0.08,0.13,0.21,0.18,0.3,0.11c1.43-0.99,2.77,0,3.23,0.42
				C722.69,290.21,722.81,290.21,722.87,290.12z"/>
		</g>
		<g>
			<path class="st0" d="M721.69,291.37L721.69,291.37c0.07-0.11,0.03-0.3-0.09-0.41c-0.56-0.5-2.11-1.61-3.7-0.5
				c-0.09,0.06-0.1,0.23-0.01,0.37l0,0c0.08,0.13,0.21,0.18,0.3,0.11c1.43-0.99,2.77,0,3.23,0.42
				C721.52,291.46,721.63,291.46,721.69,291.37z"/>
		</g>
		<g>
			<path class="st0" d="M720.6,292.54L720.6,292.54c0.07-0.11,0.03-0.3-0.09-0.41c-0.56-0.5-2.11-1.61-3.7-0.5
				c-0.09,0.06-0.1,0.23-0.01,0.37l0,0c0.08,0.13,0.21,0.18,0.3,0.11c1.43-0.99,2.77,0,3.23,0.42
				C720.42,292.63,720.54,292.63,720.6,292.54z"/>
		</g>
		<path class="st182" d="M726.95,292.16c-0.28-3.17,0.88-4.45,1.85-4.97c0.22-0.12,0.49-0.03,0.63,0.19l1.46,2.4
			c0.32,0.53,0.25,1.18-0.15,1.36l-3.11,1.44C727.33,292.72,726.98,292.5,726.95,292.16z"/>
	</g>
	<g>
		<path class="st0" d="M690.57,299.17l15.91-4.39c0.23-0.06,0.37-0.31,0.31-0.54l-0.24-0.88c-0.06-0.24-0.31-0.37-0.54-0.31
			l-15.91,4.39c-0.23,0.06-0.37,0.31-0.31,0.54l0.24,0.88C690.09,299.1,690.33,299.24,690.57,299.17z"/>
		<path class="st155" d="M704.21,287.88l1.88,4.67c0.23,0.58,0.06,1.2-0.37,1.32l-14.77,4.08c-0.38,0.11-0.83-0.04-1.16-0.44
			c-0.34-0.42-0.57-1.12-0.18-2.26c0.78-2.24,4.86-3.89,6.59-6.06c0.06-0.08,0.14-0.13,0.24-0.16l6.73-1.86
			C703.56,287.05,704,287.36,704.21,287.88z"/>
		<g>
			<path class="st0" d="M698.11,291.57L698.11,291.57c0.09-0.1,0.08-0.29-0.02-0.42c-0.47-0.58-1.82-1.94-3.57-1.1
				c-0.1,0.05-0.13,0.21-0.07,0.36l0,0c0.06,0.14,0.18,0.21,0.28,0.16c1.57-0.75,2.73,0.46,3.12,0.95
				C697.92,291.63,698.04,291.65,698.11,291.57z"/>
		</g>
		<g>
			<path class="st0" d="M696.75,292.61L696.75,292.61c0.09-0.1,0.08-0.29-0.02-0.42c-0.47-0.58-1.82-1.94-3.57-1.1
				c-0.1,0.05-0.13,0.21-0.07,0.36l0,0c0.06,0.14,0.18,0.21,0.28,0.16c1.57-0.75,2.73,0.46,3.12,0.95
				C696.56,292.68,696.68,292.69,696.75,292.61z"/>
		</g>
		<g>
			<path class="st0" d="M695.48,293.59L695.48,293.59c0.09-0.1,0.08-0.29-0.02-0.42c-0.47-0.58-1.82-1.94-3.57-1.1
				c-0.1,0.05-0.13,0.21-0.07,0.36l0,0c0.06,0.14,0.18,0.21,0.28,0.16c1.57-0.75,2.73,0.46,3.12,0.95
				C695.29,293.65,695.41,293.67,695.48,293.59z"/>
		</g>
		<path class="st182" d="M701.81,294.26c0.24-3.17,1.6-4.25,2.64-4.6c0.24-0.08,0.49,0.05,0.59,0.29l1.05,2.6
			c0.23,0.58,0.06,1.2-0.37,1.32l-3.3,0.91C702.1,294.87,701.79,294.6,701.81,294.26z"/>
	</g>
	<g>
		<path class="st161" d="M729.07,209.11c0.27-2.35,0.51-4.5,0.51-4.78c0-0.65-1.78-16.48-1.78-16.48s-4.37,9.55-5.41,20.27
			C723.72,208.79,725.89,209.47,729.07,209.11z"/>
		<path class="st162" d="M728.11,215.47l0.21,0.11c0,0,0.02-0.16,0.05-0.44C728.28,215.25,728.19,215.36,728.11,215.47z"/>
	</g>
	<path class="st163" d="M728.32,224.78c0,0-35.85,4.01-37.77,16.22c-1.91,12.21,5.66,48.18,5.66,48.18s6-0.4,8.27-1.79
		c0,0-2.26-40.11,1.04-42.73c3.31-2.62,21.41-8.89,21.75-9.59C727.62,234.37,728.32,224.78,728.32,224.78z"/>
	<path class="st164" d="M728.32,224.78c0,0-23.84,13.08-23.84,20.75c0,7.67,9.22,36.27,16.01,42.55c0,0,4.18-0.7,7.83-2.62
		l-8.18-36.97c0,0,36.37-4.88,38.64-13.43l-8.94-9.42L728.32,224.78z"/>
	<rect x="647.39" y="224.78" class="st165" width="2.7" height="73.86"/>
	<rect x="672.84" y="224.78" class="st165" width="2.7" height="73.86"/>
	<rect x="749.83" y="224.78" class="st165" width="2.7" height="73.86"/>
	<rect x="775.28" y="224.78" class="st165" width="2.7" height="73.86"/>
	<path class="st166" d="M783.98,225.65H641.76c-0.88,0-1.59-0.71-1.59-1.59v-1.52c0-0.88,0.71-1.59,1.59-1.59h142.22
		c0.88,0,1.59,0.71,1.59,1.59v1.52C785.57,224.93,784.86,225.65,783.98,225.65z"/>
	<path class="st167" d="M743.11,177.92v7.38c0,0.41-0.23,0.78-0.6,0.96c-1.13,0.53-3.64,1.4-6,0.01c-0.32-0.19-0.5-0.54-0.5-0.9
		v-6.67L743.11,177.92z"/>
	<path class="st168" d="M743.11,181.88v-3.95l-7.1,0.78v3.35C737.34,182.46,739.82,182.87,743.11,181.88z"/>
	<path class="st168" d="M731.47,169.98c0.38,1.17-0.06,2.37-0.99,2.68c-0.93,0.31-2-0.39-2.39-1.56c-0.38-1.17,0.06-2.37,0.99-2.68
		C730.01,168.11,731.08,168.81,731.47,169.98z"/>
	<path class="st167" d="M731.34,176.66c-0.25-0.51-0.45-1.05-0.61-1.61c-0.44-1.5-0.61-3.08-0.65-4.44
		c-0.01-0.29-0.03-0.58-0.06-0.88c-0.12-1.18-0.03-2.41,0.33-3.66c1.16-4.02,4.88-6.85,9.05-6.87c5.62-0.03,9.94,4.71,9.57,10.18
		c0.62-0.29,1.29-0.32,1.86-0.02c1.09,0.58,1.39,2.16,0.66,3.53c-0.73,1.37-2.2,2-3.29,1.42c-0.15-0.08-0.29-0.18-0.41-0.3
		c-0.79,4.62-4.85,7.95-9.41,7.56c-2.23-0.19-4.19-1.24-5.61-2.81c-0.1-0.09-0.2-0.2-0.3-0.32
		C732.01,177.92,731.64,177.31,731.34,176.66z"/>
	<path class="st164" d="M740.39,169.63c-0.04,0.46,0.3,0.86,0.76,0.9c0.46,0.04,0.86-0.3,0.9-0.76c0.04-0.46-0.3-0.86-0.76-0.9
		C740.83,168.83,740.43,169.17,740.39,169.63z"/>
	<path class="st164" d="M733.24,169.49c-0.04,0.46,0.3,0.86,0.76,0.9s0.86-0.3,0.9-0.76c0.04-0.46-0.3-0.86-0.76-0.9
		C733.68,168.69,733.28,169.03,733.24,169.49z"/>
	<path class="st164" d="M739.53,167.9c0.42-0.13,0.82-0.23,1.21-0.29c0.4-0.06,0.78-0.06,1.16-0.01c0.38,0.06,0.75,0.15,1.11,0.32
		l0.14,0.06c0.05,0.02,0.09,0.05,0.13,0.07l0.27,0.14c0.18,0.1,0.35,0.22,0.56,0.32c-0.11-0.19-0.23-0.38-0.37-0.55
		c-0.16-0.15-0.3-0.34-0.5-0.45c-0.36-0.28-0.81-0.44-1.27-0.51c-0.46-0.06-0.93-0.01-1.36,0.15
		C740.2,167.32,739.81,167.56,739.53,167.9z"/>
	<g>
		<polygon class="st151" points="603.97,243.79 607.81,298.71 605.89,298.71 599.8,244.38 		"/>
		<polygon class="st151" points="563.61,243.79 559.76,298.71 561.69,298.71 567.77,244.38 		"/>
		<path class="st152" d="M620.74,184.37c0,0-30.72-0.91-32.7-0.77c-1.99,0.14-3.83,6.53-3.83,6.53s-8.97,33.29-8.79,34.2
			c0.18,0.92-8.37,22.37-8.37,22.37s7.37-0.2,7.7,0c0.33,0.2,28.52-2.42,28.91-2.68c0.39-0.26,1.83-5.17,1.89-5.43
			c0.07-0.26,2.22-19.36,2.22-19.36l1.11-10.53c0,0,4.24-9.03,4.31-9.06c0.07-0.03,3.98-7.94,4.24-8.33
			c0.26-0.39,4.31-4.77,4.44-5.17C621.99,185.76,620.74,184.37,620.74,184.37z"/>
		<path class="st181" d="M620.74,184.37c0,0-10.59-0.31-19.74-0.54c3.55,2.09,5.55,7.94,4.07,18.35
			c-1.26,8.84-2.65,18.44-8.22,29.95c-2.87,5.93-15.22,2.61-25.34,3.19c-2.18,5.66-4.46,11.38-4.46,11.38s7.37-0.2,7.7,0
			c0.33,0.2,28.52-2.42,28.91-2.68c0.39-0.26,1.83-5.17,1.89-5.43c0.07-0.26,2.22-19.36,2.22-19.36l1.11-10.53
			c0,0,4.24-9.03,4.31-9.06c0.07-0.03,3.98-7.94,4.24-8.33c0.26-0.39,4.31-4.77,4.44-5.17
			C621.99,185.76,620.74,184.37,620.74,184.37z"/>
		<g>
			<g>
				<path class="st154" d="M561.43,247.88L561.43,247.88c-0.07-1.05,0.73-1.96,1.77-2.03c3.28-0.22,10.38-0.73,17.68-1.42
					c13.99-1.33,19.05-2.41,20.87-2.98c0.63-0.2,1.11-0.7,1.27-1.34c0.49-1.96,0.78-6.02,1.02-9.41
					c0.91-12.89,2.42-34.14,15.66-45.81c0.83-0.73,2.1-0.6,2.77,0.28l0,0c0.61,0.8,0.51,1.93-0.25,2.59
					c-12.06,10.59-13.45,30.13-14.38,43.21c-0.53,7.46-0.86,11.12-2.48,12.82c-0.79,0.82-2.25,2.35-23.53,4.39
					c-7.55,0.73-14.98,1.26-18.37,1.49C562.41,249.74,561.5,248.94,561.43,247.88z M602.69,241.06L602.69,241.06L602.69,241.06z"/>
			</g>
		</g>
	</g>
	<path class="st164" d="M736.19,167.79c-0.26-0.36-0.63-0.63-1.04-0.82c-0.41-0.19-0.88-0.28-1.35-0.25
		c-0.46,0.03-0.92,0.17-1.3,0.42c-0.2,0.11-0.36,0.28-0.53,0.42c-0.15,0.16-0.29,0.34-0.4,0.53c0.21-0.08,0.39-0.2,0.58-0.28
		l0.28-0.12c0.05-0.02,0.09-0.04,0.14-0.06l0.14-0.05c0.37-0.15,0.75-0.21,1.13-0.24c0.38-0.03,0.77,0.01,1.16,0.09
		C735.39,167.5,735.78,167.63,736.19,167.79z"/>
	<path class="st168" d="M737.75,168.64c-0.34,0.41-0.64,0.85-0.92,1.3c-0.28,0.45-0.54,0.92-0.76,1.42c-0.1,0.25-0.2,0.5-0.26,0.79
		c-0.01,0.07-0.02,0.14-0.02,0.22c0,0.04,0,0.08,0.01,0.12c0.01,0.05,0.02,0.09,0.04,0.14c0.01,0.02,0.03,0.05,0.04,0.07l0.04,0.04
		c0.02,0.03,0.05,0.06,0.07,0.08c0.05,0.05,0.1,0.1,0.16,0.14c0.22,0.18,0.45,0.31,0.69,0.44c0.24,0.12,0.49,0.23,0.74,0.31
		c-0.44-0.29-0.89-0.58-1.26-0.93c-0.05-0.04-0.09-0.09-0.13-0.14l-0.06-0.07l-0.03-0.03c0-0.01,0-0.01-0.01-0.02
		c-0.02-0.06-0.01-0.19,0.02-0.3c0.06-0.24,0.15-0.48,0.26-0.72c0.2-0.48,0.44-0.95,0.68-1.42
		C737.28,169.6,737.52,169.13,737.75,168.64z"/>
	<path class="st164" d="M746.62,157.27c0,0-2.62-2.44-8.76-2.24c-6.14,0.2-7.41,3.47-7.9,8.18l-0.01,5.18c0,0,1.83-1.2,4.05-5.83
		c0,0,3.3,4.08,4.81,3.65c1.51-0.43-0.46-3.35-0.46-3.35s6.49,6.48,10.6,6.59c0,0,2.71-7.26-0.26-10.03c0,0,2.3,0.18,2.44-0.28
		c0.14-0.47-1.06-1.2-3.28-1c0,0,1.68-3.14,0.81-3.5C747.79,154.28,746.62,157.27,746.62,157.27z"/>
	<path class="st0" d="M735,175.44c0.27,1.01,1.46,1.76,2.88,1.75c1.42-0.01,2.6-0.79,2.85-1.8L735,175.44z"/>
	<g>
		<path class="st81" d="M279.81,211.64H104.54c-3.31,0-6-2.69-6-6V101.16c0-3.31,2.69-6,6-6h175.27c3.31,0,6,2.69,6,6v104.48
			C285.81,208.95,283.12,211.64,279.81,211.64z"/>
		<path class="st102" d="M277.54,207.16H106.72c-2.7,0-4.89-2.19-4.89-4.89v-97.73c0-2.7,2.19-4.89,4.89-4.89h170.81
			c2.7,0,4.89,2.19,4.89,4.89v97.73C282.43,204.97,280.24,207.16,277.54,207.16z"/>
		<g>
			<defs>
				<path id="SVGID_00000103226753699582904370000012460017133097415615_" d="M277.54,207.16H106.72c-2.7,0-4.89-2.19-4.89-4.89
					v-97.73c0-2.7,2.19-4.89,4.89-4.89h170.81c2.7,0,4.89,2.19,4.89,4.89v97.73C282.43,204.97,280.24,207.16,277.54,207.16z"/>
			</defs>
			<clipPath id="SVGID_00000138532081903118054570000001483060062532760720_">
				<use xlink:href="#SVGID_00000103226753699582904370000012460017133097415615_"  style="overflow:visible;"/>
			</clipPath>
			<path style="clip-path:url(#SVGID_00000138532081903118054570000001483060062532760720_);fill:#FFACB0;" d="M282.43,112.44
				v-11.56c0-0.69-0.46-1.24-1.03-1.24H102.86c-0.57,0-1.03,0.56-1.03,1.24v72.7L282.43,112.44z"/>
		</g>
	</g>
	<g>
		<ellipse class="st169" cx="170.62" cy="50.89" rx="29.59" ry="29.65"/>
		<ellipse class="st0" cx="170.62" cy="50.89" rx="25.34" ry="25.39"/>
		<g>
			
				<rect x="147.69" y="46.08" transform="matrix(6.123234e-17 -1 1 6.123234e-17 97.2976 198.7947)" class="st169" width="0.72" height="9.34"/>
			
				<rect x="192.9" y="46.08" transform="matrix(6.123234e-17 -1 1 6.123234e-17 142.5111 244.0082)" class="st169" width="0.72" height="9.34"/>
			<rect x="170.23" y="23.78" class="st169" width="0.72" height="9.36"/>
			<rect x="170.23" y="68.9" class="st169" width="0.72" height="9.36"/>
			<path class="st169" d="M171.4,50.89c0,0.43-0.35,0.77-0.77,0.77c-0.43,0-0.77-0.35-0.77-0.77c0-0.43,0.35-0.77,0.77-0.77
				C171.05,50.11,171.4,50.46,171.4,50.89z"/>
			<g>
				<path class="st169" d="M170.62,51.24c-0.09,0-0.18-0.03-0.24-0.1l-13.89-13.92c-0.14-0.14-0.14-0.35,0-0.49
					c0.13-0.14,0.35-0.14,0.49,0l13.89,13.92c0.14,0.14,0.14,0.35,0,0.49C170.8,51.2,170.71,51.24,170.62,51.24z"/>
			</g>
			<g>
				<path class="st169" d="M175.09,64.96c-0.06-0.03-0.1-0.08-0.13-0.15l-4.49-13.59c-0.04-0.13,0.03-0.27,0.16-0.32
					c0.13-0.04,0.27,0.03,0.32,0.16l4.49,13.59c0.04,0.13-0.03,0.27-0.16,0.32C175.22,64.99,175.15,64.99,175.09,64.96z"/>
			</g>
		</g>
	</g>
	<g>
		<path class="st167" d="M743.32,194.17c0-0.01,0.01-0.02,0.01-0.03C743.33,194.15,743.32,194.16,743.32,194.17z"/>
		<path class="st167" d="M743.51,193.52c0-0.01,0.01-0.03,0.01-0.04C743.52,193.5,743.51,193.51,743.51,193.52z"/>
		<path class="st167" d="M743.69,192.89c0-0.01,0-0.02,0.01-0.02C743.7,192.87,743.7,192.88,743.69,192.89z"/>
		<path class="st167" d="M744.03,191.74c0-0.01,0-0.01,0.01-0.02C744.03,191.72,744.03,191.73,744.03,191.74z"/>
		<path class="st167" d="M744.44,190.27c0-0.02,0.01-0.03,0.01-0.05C744.45,190.24,744.44,190.26,744.44,190.27z"/>
		<path class="st167" d="M749.42,214.13c-6.74-0.27-11.48-4.87-11.48-4.87c0,0,0,0,0,0c-0.22,0.35-0.42,0.59-0.6,0.69
			c-2.09,1.18-28.5,6.83-31.11,6.61c-2.61-0.23-5.07,2.38-5.59,4.38h9.68H711h33.92C744.92,220.94,749.57,213.87,749.42,214.13z"/>
		<path class="st167" d="M744.31,190.72c0-0.01,0.01-0.02,0.01-0.03C744.32,190.7,744.32,190.71,744.31,190.72z"/>
		<path class="st167" d="M744.17,191.23c0.01-0.02,0.01-0.04,0.02-0.06C744.18,191.19,744.18,191.21,744.17,191.23z"/>
	</g>
	<path class="st161" d="M746.38,186.69c-0.94,0.94-1.59,2.13-1.94,3.41c-1.13,4.05-5.05,15.86-7.03,19c0,0,5.28,5.31,12.02,5.59
		c2.35-4.17,4.72-10.12,5.22-15.9C755.52,188.57,750.75,182.33,746.38,186.69z"/>
	<g>
		<path class="st158" d="M458.35,116.74c-0.1-0.92-0.23-1.87-0.66-2.69c-0.52-1-1.44-1.73-2.24-2.52c-1.5-1.49-2.65-3.32-3.34-5.32
			c-0.53-1.54-0.8-3.19-1.54-4.65c-0.45-0.89-1.06-1.69-1.57-2.54c-1.21-2.02-1.86-4.42-3.5-6.11c-0.32,2.05,0.31,4.24,1.66,5.81
			c0.4,0.47,0.87,0.89,1.18,1.43c0.56,0.98,0.51,2.17,0.57,3.29c0.12,2.11,0.72,4.19,1.73,6.05c1.07,1.97,2.62,3.73,3.2,5.9
			c0.43,1.63,0.3,3.45,1.22,4.86c0.1,0.15,0.21,0.31,0.24,0.49c0.01,0.1,0,0.2-0.02,0.31c-0.02,0.13-0.04,0.26-0.06,0.39
			c-0.21,1.33-0.42,3.03,0.72,4.02c0.79,0.69,1.81,0.71,2.38-0.21c0.57-0.92,0.52-2.28,0.48-3.32
			C458.73,120.2,458.54,118.46,458.35,116.74z"/>
		<path class="st157" d="M460.41,115.67c-0.45-1.54-1.14-3.01-1.48-4.58c-0.34-1.52-0.34-3.09-0.34-4.65c0-1.71,0-3.41,0-5.12
			c0-1.06,0-2.13-0.18-3.18c-0.38-2.25-1.55-4.34-1.75-6.61c-0.09-0.98,0.01-1.98-0.09-2.96c-0.06-0.56-0.21-1.13-0.47-1.63
			c-0.28-0.54-1.05-0.51-1.3,0.04c-0.57,1.23-0.93,2.57-0.7,3.89c0.14,0.79,0.48,1.53,0.74,2.29c1.14,3.39,0.54,7.15,1.42,10.62
			c0.27,1.05,0.67,2.07,0.72,3.16c0.11,2.59-1.82,4.95-1.64,7.53c0.15,2.12,1.67,3.87,2.31,5.89c0.36,1.13,0.43,2.34,0.82,3.46
			c0.3,0.87,0.99,1.93,2.06,1.67c1.02-0.25,0.71-1.08,0.67-1.88C461.03,120.91,461.17,118.3,460.41,115.67z"/>
		<path class="st158" d="M462.75,117.08c-0.04-0.8-0.18-1.61-0.07-2.4c0.09-0.67,0.36-1.3,0.55-1.95c0.36-1.22,0.45-2.5,0.53-3.76
			c0.16-2.3,0.31-4.61,0.47-6.91c0.24-3.58,0.49-7.17,1.16-10.7c0.19-0.98,0.39-2.04-0.05-2.93c-0.09-0.19-0.28-0.39-0.48-0.33
			c-0.14,0.04-0.21,0.2-0.26,0.34c-1.46,3.98-2.02,8.26-3.65,12.17c-0.39,0.94-0.85,1.86-1.05,2.85c-0.24,1.19-0.11,2.43-0.08,3.65
			c0.04,1.75-0.13,3.51-0.61,5.19c-0.25,0.88-0.59,1.74-0.73,2.64c-0.17,1.13-0.03,2.28,0.08,3.41c0.21,2.18,0.28,4.38,0.21,6.57
			c-0.04,1.29,1.05,1.25,1.77,0.46c0.5-0.55,0.5-1.16,0.67-1.85C461.8,121.28,462.88,119.54,462.75,117.08z"/>
		<path class="st157" d="M455.95,120.58c-0.96-1.55-2.88-2.42-3.49-4.14c-0.16-0.44-0.22-0.91-0.41-1.33
			c-0.42-0.94-1.39-1.47-2.34-1.9c-0.13-0.06-0.28,0.04-0.28,0.18l0,0c0,0.23,0.11,0.45,0.3,0.58c0.73,0.49,1.29,1.24,1.53,2.09
			c0.29,1,0.17,2.11,0.53,3.09c0.31,0.82,0.94,1.5,1.23,2.32c0.27,0.76,0.24,1.58,0.37,2.38c0.13,0.79,0.48,1.63,1.21,1.97
			C457.23,127.04,456.57,121.58,455.95,120.58z"/>
		<path class="st158" d="M466.91,120.07c-0.04,0.75,0.07,1.53-0.22,2.22c-0.19,0.44-0.52,0.8-0.8,1.19
			c-0.97,1.37-1.32,3.32-2.81,4.09c-0.1,0.05-0.21,0.1-0.32,0.08c-0.15-0.03-0.25-0.18-0.31-0.32c-0.37-0.85,0.04-1.81,0.29-2.7
			c0.04-0.16,0.08-0.33,0-0.47c-0.08-0.16-0.27-0.23-0.4-0.35c-0.25-0.25-0.23-0.66-0.18-1.01c0.13-0.88,0.3-1.75,0.53-2.61
			c0.13-0.49,0.28-0.98,0.56-1.4c0.31-0.46,0.76-0.8,1.18-1.16c1.86-1.6,3.28-3.69,4.07-6.01c0.17-0.5,0.33-1.03,0.68-1.42
			c0.36-0.39,0.99-0.6,1.42-0.29c0.31,0.22-0.95,2.25-1.1,2.49c-0.42,0.7-0.43,1.3-0.66,2.07
			C468.26,116.34,467.02,118.04,466.91,120.07z"/>
		<path class="st157" d="M465.44,120.93c0.28-0.71,0.55-1.43,0.64-2.19c0.1-0.84-0.03-1.71,0.11-2.54c0.19-1.08,0.81-2.02,1.12-3.07
			c0.22-0.76,0.28-1.55,0.41-2.33c0.39-2.22,1.43-4.39,1.13-6.63c-0.07-0.49-0.28-1.05-0.77-1.14c-0.44-0.08-0.83,0.32-0.95,0.75
			c-0.11,0.43-0.03,0.88,0,1.33c0.09,1.24-0.27,2.5-0.98,3.51c-0.69,0.97-1.68,1.7-2.3,2.72c-0.76,1.25-0.86,2.77-1.25,4.18
			c-0.77,2.8-2.7,5.24-3.05,8.12c-0.14,1.15,0.13,2.54,1.19,3C463.82,127.96,464.75,122.73,465.44,120.93z"/>
		<path class="st0" d="M460.09,123.04h-0.49h-6.54c-0.48,0-0.83,0.45-0.72,0.92l2.56,10.8c0.08,0.34,0.38,0.57,0.72,0.57h3.97h0.49
			h3.97c0.34,0,0.64-0.24,0.72-0.57l2.56-10.8c0.11-0.47-0.24-0.92-0.72-0.92H460.09z"/>
	</g>
	<path class="st164" d="M562.95,171.56c1.55-6.03,4.01-8.42,8.29-10.67c3.28-1.72,7.15-2.28,11.12-0.99
		c8.1,2.62,10.19,11.5,11.01,16.09c2.79,15.65,15.88,28.96,11.11,39.67c-4.76,10.71-27.12,9.56-27.12,9.56l-10.25-7.39
		c0,0-0.91-17.99-0.91-19.46c0-1.47-3.89-1.36-3.89-8.72C562.31,183.79,561.13,178.65,562.95,171.56z"/>
	<path class="st167" d="M535.8,193.69c-0.01,0.18-0.22,0.28-0.37,0.16c-1.11-0.87-4.62-3.58-4.91-3.34
		c-0.34,0.28,2.74,2.77,2.61,3.16c-0.14,0.38-3.08-2.13-3.39-1.77c-0.31,0.35,2.44,2.55,2.36,2.75c-0.08,0.2-2.95-1.63-3.26-1.53
		c-0.31,0.1,2.52,2.42,2.49,2.68c-0.03,0.27-2.51-0.69-2.62-0.48c-0.11,0.2-0.21,0.32,4.76,4.07l2.02,1.39l2.26,0.24l1.28-2.42
		c0,0-2.22-7.71-2.53-7.81C536.21,190.69,536.03,190.89,535.8,193.69z"/>
	<path class="st172" d="M569.65,190.16c0,0-17.33,19.66-18.06,19.75c-0.73,0.09-12.35-13.52-12.35-13.52s-4.16,3.47-4.89,4.67
		c0,0,12.41,20.69,15.6,21.86c3.19,1.17,24.35-18.8,24.35-18.8L569.65,190.16z"/>
	<g>
		<path class="st162" d="M567.63,215.47l0.21,0.11c0,0,0.02-0.16,0.05-0.44C567.8,215.25,567.71,215.36,567.63,215.47z"/>
	</g>
	<path class="st167" d="M583.69,190.35c-0.88,0.88-1.49,2-1.83,3.21c-1.18,4.23-5.12,17.96-6.78,18.89
		c-1.96,1.11-26.8,6.43-29.25,6.21c-2.45-0.22-4.76,2.23-5.26,4.12h9.1h0.63h31.89c0,0,8.33-10.26,9.26-21.05
		C592.28,192.11,587.8,186.24,583.69,190.35z"/>
	<path class="st167" d="M580.5,182.33v6.94c0,0.39-0.22,0.74-0.57,0.9c-1.06,0.5-3.43,1.31-5.64,0.01c-0.3-0.18-0.47-0.5-0.47-0.85
		v-6.27L580.5,182.33z"/>
	<path class="st168" d="M580.5,186.05v-3.72l-6.68,0.73v3.15C575.07,186.6,577.41,186.98,580.5,186.05z"/>
	<path class="st167" d="M569.43,181.15c-0.23-0.48-0.43-0.98-0.57-1.51c-0.42-1.41-0.57-2.89-0.61-4.17
		c-0.01-0.28-0.03-0.55-0.06-0.82c-0.12-1.11-0.03-2.26,0.31-3.44c1.09-3.78,4.59-6.44,8.51-6.46c5.29-0.03,9.35,4.43,8.99,9.58
		c0.58-0.27,1.21-0.3,1.75-0.02c1.03,0.55,1.3,2.03,0.62,3.32c-0.68,1.29-2.07,1.88-3.09,1.34c-0.14-0.08-0.27-0.17-0.38-0.28
		c-0.75,4.35-4.56,7.48-8.84,7.11c-2.1-0.18-3.94-1.17-5.27-2.64c-0.09-0.09-0.18-0.19-0.28-0.3
		C570.07,182.33,569.72,181.75,569.43,181.15z"/>
	<g>
		<path class="st164" d="M577.5,175.64c-0.03,0.4,0.26,0.74,0.65,0.78c0.4,0.03,0.74-0.26,0.78-0.66s-0.26-0.74-0.65-0.78
			C577.88,174.95,577.53,175.24,577.5,175.64z"/>
		<path class="st164" d="M571.32,175.52c-0.03,0.4,0.26,0.74,0.65,0.78c0.4,0.03,0.74-0.26,0.78-0.66c0.03-0.4-0.26-0.74-0.65-0.78
			C571.7,174.83,571.35,175.12,571.32,175.52z"/>
		<path class="st164" d="M576.76,174.14c0.36-0.11,0.71-0.2,1.05-0.25c0.34-0.05,0.68-0.06,1-0.01c0.32,0.05,0.65,0.13,0.96,0.28
			l0.12,0.05c0.04,0.02,0.08,0.04,0.12,0.06l0.24,0.12c0.16,0.09,0.31,0.19,0.48,0.28c-0.09-0.17-0.2-0.33-0.32-0.48
			c-0.14-0.13-0.26-0.29-0.43-0.39c-0.31-0.24-0.7-0.38-1.1-0.44c-0.4-0.05-0.81,0-1.18,0.13
			C577.34,173.63,577,173.84,576.76,174.14z"/>
		<path class="st164" d="M573.86,174.04c-0.22-0.31-0.55-0.55-0.9-0.71c-0.36-0.16-0.76-0.24-1.16-0.21
			c-0.4,0.03-0.8,0.14-1.13,0.36c-0.18,0.09-0.31,0.24-0.46,0.36c-0.13,0.14-0.25,0.3-0.35,0.45c0.18-0.07,0.34-0.17,0.5-0.25
			l0.24-0.11c0.04-0.02,0.08-0.04,0.12-0.05l0.12-0.04c0.32-0.13,0.65-0.18,0.98-0.21c0.33-0.02,0.66,0.01,1,0.08
			C573.17,173.79,573.51,173.9,573.86,174.04z"/>
		<path class="st168" d="M575.21,174.78c-0.29,0.36-0.56,0.74-0.8,1.13c-0.24,0.39-0.47,0.8-0.65,1.23
			c-0.09,0.22-0.17,0.44-0.22,0.68c-0.01,0.06-0.02,0.13-0.02,0.19c0,0.03,0,0.07,0.01,0.11c0.01,0.04,0.01,0.08,0.04,0.12
			c0.01,0.02,0.02,0.04,0.04,0.06l0.03,0.04c0.02,0.02,0.04,0.05,0.06,0.07c0.05,0.04,0.09,0.08,0.14,0.12
			c0.19,0.15,0.39,0.27,0.6,0.38c0.21,0.1,0.42,0.2,0.64,0.27c-0.38-0.25-0.77-0.5-1.09-0.81c-0.04-0.04-0.07-0.08-0.11-0.12
			l-0.05-0.06l-0.02-0.03c0-0.01,0-0.01-0.01-0.02c-0.02-0.05-0.01-0.16,0.02-0.26c0.05-0.21,0.13-0.42,0.22-0.62
			c0.18-0.41,0.38-0.82,0.59-1.23C574.81,175.61,575.02,175.2,575.21,174.78z"/>
	</g>
	<polygon class="st167" points="557.84,282.33 558.26,292.62 553.31,292.65 552.84,282.94 	"/>
	<g>
		<path class="st0" d="M545.24,298.53l14.2,0.1c0.31,0,0.56-0.24,0.56-0.55l0-0.41c0-0.3-0.26-0.55-0.57-0.55l-14.2-0.1
			c-0.31,0-0.56,0.24-0.56,0.55l0,0.41C544.68,298.28,544.93,298.52,545.24,298.53z"/>
		<path class="st169" d="M559.25,292.52l0.54,4.21c0.07,0.52-0.22,0.99-0.61,0.98l-13.51-0.09c-0.35,0-0.7-0.22-0.89-0.62
			c-0.19-0.41-0.24-1.04,0.36-1.87c1.19-1.67,5.16-2.05,7.1-3.46l6.29,0.04C558.89,291.71,559.19,292.05,559.25,292.52z"/>
		<g>
			<path class="st0" d="M553.22,294.11L553.22,294.11c0.1-0.06,0.13-0.22,0.07-0.34c-0.27-0.58-1.11-1.98-2.8-1.71
				c-0.1,0.02-0.16,0.14-0.14,0.27l0,0c0.02,0.13,0.11,0.21,0.2,0.19c1.51-0.24,2.23,1,2.44,1.48
				C553.05,294.11,553.14,294.16,553.22,294.11z"/>
		</g>
		<g>
			<path class="st0" d="M551.82,294.64L551.82,294.64c0.1-0.06,0.13-0.22,0.07-0.34c-0.27-0.58-1.11-1.98-2.8-1.71
				c-0.1,0.02-0.16,0.14-0.14,0.27l0,0c0.02,0.13,0.11,0.21,0.2,0.2c1.51-0.24,2.23,1,2.44,1.48
				C551.65,294.65,551.74,294.69,551.82,294.64z"/>
		</g>
		<g>
			<path class="st0" d="M550.52,295.13L550.52,295.13c0.1-0.06,0.13-0.22,0.07-0.34c-0.27-0.58-1.11-1.98-2.8-1.71
				c-0.1,0.02-0.16,0.14-0.14,0.27l0,0c0.02,0.13,0.11,0.21,0.2,0.2c1.51-0.24,2.23,1,2.44,1.48
				C550.35,295.14,550.44,295.18,550.52,295.13z"/>
		</g>
		<path class="st182" d="M555.58,297.69c1.03-3.39,2.87-3.75,3.87-3.67l0.35,2.7c0.07,0.52-0.22,0.99-0.61,0.98L555.58,297.69z"/>
	</g>
	<polygon class="st167" points="534.59,282.33 535,292.17 530.06,292.21 529.59,282.94 	"/>
	<g>
		<path class="st0" d="M521.99,298.53l14.2,0.1c0.31,0,0.56-0.24,0.56-0.55l0-0.41c0-0.3-0.26-0.55-0.57-0.55l-14.2-0.1
			c-0.31,0-0.56,0.24-0.56,0.55l0,0.41C521.42,298.28,521.68,298.52,521.99,298.53z"/>
		<path class="st169" d="M536,292.52l0.54,4.21c0.07,0.52-0.22,0.99-0.61,0.98l-13.51-0.09c-0.35,0-0.7-0.22-0.89-0.62
			c-0.19-0.41-0.24-1.04,0.36-1.87c1.19-1.67,5.16-2.05,7.1-3.46l6.29,0.04C535.63,291.71,535.94,292.05,536,292.52z"/>
		<g>
			<path class="st0" d="M529.97,294.11L529.97,294.11c0.1-0.06,0.13-0.22,0.07-0.34c-0.27-0.58-1.11-1.98-2.8-1.71
				c-0.1,0.02-0.16,0.14-0.14,0.27l0,0c0.02,0.13,0.11,0.21,0.2,0.19c1.51-0.24,2.23,1,2.44,1.48
				C529.79,294.11,529.89,294.16,529.97,294.11z"/>
		</g>
		<g>
			<path class="st0" d="M528.57,294.64L528.57,294.64c0.1-0.06,0.13-0.22,0.07-0.34c-0.27-0.58-1.11-1.98-2.8-1.71
				c-0.1,0.02-0.16,0.14-0.14,0.27l0,0c0.02,0.13,0.11,0.21,0.2,0.2c1.51-0.24,2.22,1,2.44,1.48
				C528.39,294.65,528.49,294.69,528.57,294.64z"/>
		</g>
		<g>
			<path class="st0" d="M527.27,295.13L527.27,295.13c0.1-0.06,0.13-0.22,0.07-0.34c-0.27-0.58-1.11-1.98-2.8-1.71
				c-0.1,0.02-0.16,0.14-0.14,0.27l0,0c0.02,0.13,0.11,0.21,0.2,0.2c1.51-0.24,2.23,1,2.44,1.48
				C527.09,295.14,527.19,295.18,527.27,295.13z"/>
		</g>
		<path class="st182" d="M532.32,297.69c1.03-3.39,2.87-3.75,3.87-3.67l0.35,2.7c0.07,0.52-0.22,0.99-0.61,0.98L532.32,297.69z"/>
	</g>
	<path class="st169" d="M555.03,228.62c0,0-24.58,0.09-28.38,5.03c-3.79,4.94-6.68,38.32,0,52.92c0,0,8.65,0.3,10.62-0.91
		c0,0-0.61-24.63-0.3-31.17c0.3-6.54,4.86-7.45,5.46-8.06C543.04,245.82,555.03,228.62,555.03,228.62z"/>
	<path class="st169" d="M557.81,264.44c-0.22-2.06-0.51-4.72-0.82-7.75l0,0c-0.56-5.93-1.26-9.49-0.51-9.42
		c5.92,0.57,22.03-2.3,31.55-4.16c5.79-1.13,9.1-7.45,6.53-12.77c-0.32-0.67-0.71-1.25-1.18-1.72c-4.44-4.44-13.61-3.01-13.6-3.63
		c-51.9,4.33-40.47,13.24-35.6,44.01l0,0c0.03,0.13,0.05,0.26,0.08,0.39l0,0c2.11,10.17,4.1,18.55,4.1,18.55s7.59,0.3,11.99-0.76
		C560.35,287.23,558.97,275.21,557.81,264.44z"/>
	<path class="st173" d="M589.82,189.12c-1.69-1.6-5.7-1.96-9.41-1.91c0.05,0.02,0.08,0.04,0.08,0.04c-3.25,3.62-6.68,0.42-6.68,0.42
		l0,0c-0.66,0.08-1.05,0.14-1.05,0.14s-2.46,1.17-5.12,4.47c-0.04,0.05-2.89,3.1-3.17,6.72c-0.2,2.58,3.11,6.35,3.11,7.83
		c0,1.48-1.53,12.17-1.53,12.17l0.58-0.07c0,0.03,0,0.06,0,0.07c0,0.13-1.18,0.32-2.69,0.51c-0.07,1.91-0.1,3.1-0.1,3.1v3.73
		c19.75,3.28,31.58,8.81,31.58,8.81C596.41,196.63,590.09,189.37,589.82,189.12z"/>
	<path class="st174" d="M583.69,190.35c-0.88,0.88-1.49,2-1.83,3.21c-1.18,4.23-5.12,17.96-6.78,18.89
		c-1.56,0.88-17.58,4.42-25.31,5.73c0,0,0.57,2.31,1.07,4.6h31.35c0,0,8.33-10.26,9.26-21.05
		C592.28,192.11,587.8,186.24,583.69,190.35z"/>
	<path class="st151" d="M487.66,193.33h37.37l10.6,25.92h18c0.5,0,0.91,0.41,0.91,0.91l0,0c0,0.5-0.41,0.91-0.91,0.91h-53.55
		L487.66,193.33z"/>
	<path class="st175" d="M506.19,208.12c0.22,1.1,1.18,1.84,2.15,1.65c0.96-0.19,1.57-1.25,1.35-2.35c-0.22-1.1-1.18-1.84-2.15-1.65
		C506.57,205.97,505.97,207.02,506.19,208.12z"/>
	<path class="st164" d="M571.22,163.99c0,0,10.04,9.27,14.78,10.32c0,0,0.63-7.18,0.57-7.43c-0.06-0.25-6.01-5.9-6.38-5.84
		c-0.37,0.06-11.17,1.6-11.17,1.6l-2.96,7.32L571.22,163.99z"/>
	<path class="st164" d="M565.53,165.96l2.62,7.43c0,0,5.28-3.74,7.31-7.43c2.03-3.69-5.27-2.34-5.27-2.34L565.53,165.96z"/>
	<path class="st184" d="M577.4,180.43c0,0-0.99-0.28-1.87,0.38c0,0-1.03-0.55-1.77,0.1c0,0,0.46,1.45,2.08,1.23
		C577.46,181.93,577.4,180.43,577.4,180.43z"/>
	<path class="st168" d="M578.21,179.84c-0.17,0.16-0.35,0.31-0.55,0.45c-0.19,0.14-0.39,0.26-0.59,0.37
		c-0.41,0.22-0.85,0.38-1.31,0.45c-0.46,0.07-0.92,0.05-1.37-0.05c-0.45-0.11-0.88-0.3-1.29-0.54c0.19,0.15,0.38,0.28,0.59,0.39
		c0.21,0.12,0.43,0.2,0.66,0.28c0.23,0.07,0.47,0.11,0.71,0.13c0.24,0.01,0.48,0,0.72-0.03c0.48-0.08,0.94-0.26,1.35-0.51
		C577.55,180.52,577.92,180.21,578.21,179.84z"/>
	<rect x="135.4" y="204.21" class="st0" width="14.44" height="2.95"/>
	<rect x="158.5" y="204.21" class="st0" width="14.44" height="2.95"/>
	<rect x="622.71" y="113.47" class="st159" width="5.84" height="2.88"/>
	<rect x="636.32" y="106.6" class="st159" width="6.34" height="2.88"/>
	<rect x="629.29" y="133.89" class="st159" width="6.2" height="1.63"/>
	<rect x="677.62" y="109.48" class="st159" width="5.84" height="1.85"/>
	<rect x="677.62" y="134.41" class="st159" width="5.84" height="1.85"/>
	<rect x="684.2" y="116.34" class="st159" width="6.2" height="3.18"/>
	<rect x="691.23" y="106.01" class="st0" width="6.34" height="2.03"/>
	<g>
		
			<rect x="661.5" y="199.06" transform="matrix(-1.836970e-16 1 -1 -1.836970e-16 876.2138 -453.0036)" class="st159" width="6.21" height="25.09"/>
		
			<rect x="662.68" y="200.48" transform="matrix(-1.836970e-16 1 -1 -1.836970e-16 883.7444 -447.964)" class="st156" width="6.36" height="34.83"/>
		
			<rect x="661.01" y="190.08" transform="matrix(-1.836970e-16 1 -1 -1.836970e-16 869.5058 -458.364)" class="st0" width="5.85" height="30.99"/>
		
			<rect x="672.97" y="204.65" transform="matrix(-1.836970e-16 1 -1 -1.836970e-16 881.4698 -470.328)" class="st159" width="5.85" height="1.85"/>
		
			<rect x="648.09" y="204.65" transform="matrix(-1.836970e-16 1 -1 -1.836970e-16 856.5894 -445.4476)" class="st159" width="5.85" height="1.85"/>
		
			<rect x="676.09" y="216.88" transform="matrix(-1.836970e-16 1 -1 -1.836970e-16 897.1609 -461.3804)" class="st0" width="6.36" height="2.02"/>
	</g>
	<rect x="364.85" y="103.31" class="st0" width="6.58" height="2.27"/>
	<rect x="373.79" y="110.02" class="st159" width="3.92" height="10.8"/>
	<rect x="380.17" y="100.55" class="st159" width="7.14" height="1.71"/>
	<rect x="380.17" y="130.02" class="st159" width="7.14" height="2.24"/>
	<g>
		<polygon class="st151" points="435.4,243.71 439.25,298.63 437.32,298.63 431.24,244.31 		"/>
		<polygon class="st151" points="395.04,243.71 391.2,298.63 393.12,298.63 399.21,244.31 		"/>
		<path class="st152" d="M452.17,184.3c0,0-30.72-0.91-32.7-0.77c-1.99,0.14-3.83,6.53-3.83,6.53s-8.97,33.29-8.79,34.2
			c0.18,0.92-8.37,22.37-8.37,22.37s7.37-0.2,7.7,0c0.33,0.2,28.52-2.42,28.91-2.68c0.39-0.26,1.83-5.17,1.89-5.43
			c0.07-0.26,2.22-19.36,2.22-19.36l1.11-10.53c0,0,4.24-9.03,4.31-9.06c0.07-0.03,3.98-7.94,4.24-8.33
			c0.26-0.39,4.31-4.77,4.44-5.17C453.43,185.68,452.17,184.3,452.17,184.3z"/>
		<path class="st181" d="M452.17,184.3c0,0-10.59-0.31-19.74-0.54c3.55,2.09,5.55,7.94,4.07,18.35c-1.26,8.84-2.65,18.44-8.22,29.95
			c-2.87,5.93-15.22,2.61-25.34,3.19c-2.18,5.66-4.46,11.38-4.46,11.38s7.37-0.2,7.7,0c0.33,0.2,28.52-2.42,28.91-2.68
			c0.39-0.26,1.83-5.17,1.89-5.43c0.07-0.26,2.22-19.36,2.22-19.36l1.11-10.53c0,0,4.24-9.03,4.31-9.06
			c0.07-0.03,3.98-7.94,4.24-8.33c0.26-0.39,4.31-4.77,4.44-5.17C453.43,185.68,452.17,184.3,452.17,184.3z"/>
		<g>
			<g>
				<path class="st154" d="M392.87,247.81L392.87,247.81c-0.07-1.05,0.73-1.96,1.77-2.03c3.28-0.22,10.38-0.73,17.68-1.42
					c13.99-1.33,19.05-2.41,20.87-2.98c0.63-0.2,1.11-0.7,1.27-1.34c0.49-1.96,0.78-6.02,1.02-9.41
					c0.91-12.89,2.42-34.14,15.66-45.81c0.83-0.73,2.1-0.6,2.77,0.28l0,0c0.61,0.8,0.51,1.93-0.25,2.59
					c-12.06,10.59-13.45,30.13-14.38,43.21c-0.53,7.46-0.86,11.12-2.48,12.82c-0.79,0.82-2.25,2.35-23.53,4.39
					c-7.55,0.73-14.98,1.26-18.37,1.49C393.84,249.67,392.93,248.87,392.87,247.81z M434.13,240.99L434.13,240.99L434.13,240.99z"/>
			</g>
		</g>
	</g>
	<polygon class="st167" points="368.19,281.85 367.03,291.21 360.77,291.69 360.86,283.01 	"/>
	<g>
		<path class="st0" d="M351.25,298.54l17.11,0.12c0.37,0,0.67-0.29,0.67-0.66l0-0.49c0-0.37-0.31-0.67-0.68-0.67l-17.11-0.12
			c-0.37,0-0.67,0.29-0.67,0.66l0,0.49C350.57,298.24,350.87,298.54,351.25,298.54z"/>
		<path class="st173" d="M368.13,291.31l0.66,5.07c0.08,0.62-0.27,1.19-0.74,1.19l-16.27-0.11c-0.42,0-0.84-0.26-1.07-0.75
			c-0.23-0.5-0.28-1.25,0.44-2.25c1.44-2.01,6.22-2.47,8.55-4.17l7.58,0.05C367.69,290.33,368.05,290.74,368.13,291.31z"/>
		<g>
			<path class="st0" d="M360.86,293.22L360.86,293.22c0.12-0.07,0.16-0.26,0.09-0.41c-0.33-0.7-1.34-2.39-3.37-2.06
				c-0.12,0.02-0.2,0.17-0.17,0.33l0,0.01c0.02,0.15,0.13,0.25,0.24,0.23c1.82-0.29,2.68,1.2,2.94,1.78
				C360.65,293.23,360.76,293.28,360.86,293.22z"/>
		</g>
		<g>
			<path class="st0" d="M359.18,293.86L359.18,293.86c0.12-0.07,0.16-0.26,0.09-0.41c-0.33-0.7-1.34-2.39-3.37-2.06
				c-0.12,0.02-0.2,0.17-0.17,0.33l0,0.01c0.02,0.15,0.13,0.25,0.24,0.23c1.82-0.29,2.68,1.2,2.94,1.79
				C358.97,293.87,359.08,293.92,359.18,293.86z"/>
		</g>
		<g>
			<path class="st0" d="M357.61,294.46L357.61,294.46c0.12-0.07,0.16-0.26,0.09-0.41c-0.33-0.7-1.34-2.39-3.37-2.06
				c-0.12,0.02-0.2,0.17-0.17,0.33l0,0.01c0.02,0.15,0.13,0.25,0.24,0.23c1.82-0.29,2.68,1.2,2.94,1.78
				C357.4,294.47,357.51,294.52,357.61,294.46z"/>
		</g>
		<path class="st182" d="M363.7,297.53c1.25-4.08,3.45-4.52,4.66-4.41l0.42,3.26c0.08,0.62-0.27,1.19-0.74,1.19L363.7,297.53z"/>
	</g>
	<polygon class="st150" points="397.1,204.85 396.06,215.64 400.17,216.43 402.44,212.15 402.07,206.49 398.87,204.26 	"/>
	<path class="st162" d="M401.27,187.85c0,0-4.17,10.88-4.17,17c0,0,2.19,1.44,5.34,1.05c3.15-0.39,0.5-12.82,0.62-13.15
		C403.18,192.43,401.27,187.85,401.27,187.85z"/>
	<polygon class="st167" points="377.81,282.05 375.04,291.08 368.66,291.12 369.77,284.53 	"/>
	<path class="st150" d="M414.66,212.7L407,224.28l-10.18-2.01l-17.28-12.92l3.03-4.49c0,0,16.2,9.73,17.57,10
		c1.38,0.27,5.14-8.53,5.14-8.53L414.66,212.7z"/>
	<g>
		<path class="st0" d="M359.51,298.71l17.11,0.12c0.37,0,0.67-0.29,0.67-0.66l0-0.49c0-0.37-0.31-0.67-0.68-0.67l-17.11-0.12
			c-0.37,0-0.67,0.29-0.67,0.66l0,0.49C358.83,298.41,359.13,298.71,359.51,298.71z"/>
		<path class="st174" d="M376.39,291.48l0.66,5.07c0.08,0.62-0.27,1.19-0.74,1.19l-16.27-0.11c-0.42,0-0.84-0.26-1.07-0.75
			c-0.23-0.5-0.28-1.25,0.44-2.25c1.44-2.01,6.22-2.47,8.55-4.17l7.58,0.05C375.95,290.5,376.31,290.91,376.39,291.48z"/>
		<g>
			<path class="st0" d="M369.12,293.39L369.12,293.39c0.12-0.07,0.16-0.26,0.09-0.41c-0.33-0.7-1.34-2.39-3.37-2.06
				c-0.12,0.02-0.2,0.17-0.17,0.33l0,0.01c0.02,0.15,0.13,0.25,0.24,0.23c1.82-0.29,2.68,1.2,2.94,1.79
				C368.91,293.4,369.02,293.45,369.12,293.39z"/>
		</g>
		<g>
			<path class="st0" d="M367.44,294.03L367.44,294.03c0.12-0.07,0.16-0.26,0.09-0.41c-0.33-0.7-1.34-2.39-3.37-2.06
				c-0.12,0.02-0.2,0.17-0.17,0.33l0,0.01c0.02,0.15,0.13,0.25,0.24,0.23c1.82-0.29,2.68,1.2,2.94,1.79
				C367.23,294.04,367.34,294.09,367.44,294.03z"/>
		</g>
		<g>
			<path class="st0" d="M365.87,294.63L365.87,294.63c0.12-0.07,0.16-0.26,0.09-0.41c-0.33-0.7-1.34-2.39-3.37-2.06
				c-0.12,0.02-0.2,0.17-0.17,0.33l0,0.01c0.02,0.15,0.13,0.25,0.24,0.23c1.82-0.29,2.68,1.2,2.94,1.79
				C365.66,294.63,365.77,294.68,365.87,294.63z"/>
		</g>
		<path class="st182" d="M371.96,297.7c1.25-4.08,3.45-4.52,4.66-4.41l0.42,3.26c0.08,0.62-0.27,1.19-0.74,1.19L371.96,297.7z"/>
	</g>
	<path class="st169" d="M432.24,235.07c-0.87-8.11-10.48-8.24-10.48-8.24l-5.17-0.45l-0.13-1.1c0,0-35.63-4.24-40.5,11.92
		c-4.87,16.16-8.57,48.14-8.57,48.14s4.7,2.86,11.09,0c0,0,9.03-34.34,12.41-37.71c3.38-3.37,27.68-3.92,27.68-3.92
		S433.11,243.18,432.24,235.07z"/>
	<path class="st177" d="M398.87,220.81c0,0,0.84-29.56,2.4-32.96c1.56-3.4,7.08-4.05,7.08-4.05s14.4-2.14,18.14,1.4
		c0.28,0.26,6.79,8.9,5.75,49.88c0,0-12.36-6.8-33.37-10.29V220.81z"/>
	<path class="st167" d="M416.58,177.92v7.38c0,0.41-0.23,0.78-0.6,0.96c-1.13,0.53-3.64,1.4-6,0.01c-0.32-0.19-0.5-0.54-0.5-0.9
		v-6.67L416.58,177.92z"/>
	<path class="st168" d="M416.58,183.59v-3.95l-7.11,0.78v3.35C410.8,184.18,413.29,184.58,416.58,183.59z"/>
	<rect x="324.11" y="215.45" class="st0" width="39.59" height="5.49"/>
	<rect x="319.32" y="209.95" class="st157" width="39.59" height="5.49"/>
	<path class="st169" d="M392.84,226.09c0,0-26.62-0.84-32.66,4.88c-6.05,5.72-1.99,48.8-0.98,52.75c0,0,5.52,2.63,9.89,1.28
		c4.37-1.35,2.69-20.2,2.69-20.2s-0.5-18.01,0.17-20.54c0.67-2.53,9.91-4.38,9.91-4.38s14.28-9.93,13.44-9.93
		C394.45,229.96,392.84,226.09,392.84,226.09z"/>
	<path class="st151" d="M385.75,200.8l-4.26-11.77c-0.16-0.45-0.67-0.65-1.1-0.44l-8.06,3.97c-0.43,0.21-0.62,0.73-0.43,1.17
		l6.97,16c0.21,0.49,0.77,0.72,1.27,0.54l7.07-2.62L385.75,200.8z"/>
	<path class="st167" d="M378.54,201.65c0-0.03,0.01-0.06,0.02-0.09c0.2-0.77,0.42-0.86,0.56-0.86c-0.03-0.12-0.03-0.24,0.01-0.34
		c0.36-1.09,0.77-0.1,0.77-0.1c1.02,1.52,4.18,2.88,4.18,2.88l1.08,0.23c-0.05-0.18,0.59-2.56,0.59-2.56s2.25,4.09,2.27,4.14
		c0.07,0.19-1.12,1.86-1.62,2.41c-0.5,0.55-1.47,1.89-1.53,1.99c0,0-2.34-1.49-3.18-2.22c-0.97-0.81-2.5-2.1-3.1-2.77
		c-0.43-0.49-0.45-0.97-0.35-1.34C377.99,202.49,378.25,201.99,378.54,201.65z"/>
	<g>
		<path class="st168" d="M378.56,201.58c0.04,0.31,0.17,0.6,0.32,0.87c0.15,0.27,0.34,0.52,0.55,0.75c0.21,0.22,0.45,0.43,0.7,0.61
			c0.12,0.09,0.26,0.17,0.39,0.25c0.14,0.07,0.27,0.14,0.41,0.21c-0.25-0.18-0.5-0.35-0.74-0.54c-0.24-0.19-0.46-0.4-0.67-0.62
			c-0.21-0.22-0.39-0.46-0.56-0.71C378.8,202.15,378.65,201.88,378.56,201.58z"/>
		<path class="st168" d="M378.24,203.01c0.07,0.3,0.22,0.58,0.39,0.84c0.17,0.26,0.38,0.49,0.61,0.71c0.23,0.21,0.48,0.4,0.75,0.55
			c0.13,0.08,0.27,0.15,0.41,0.22c0.14,0.06,0.28,0.12,0.43,0.18c-0.27-0.16-0.53-0.31-0.78-0.48c-0.25-0.17-0.49-0.36-0.71-0.56
			c-0.22-0.21-0.43-0.43-0.61-0.67C378.53,203.55,378.36,203.29,378.24,203.01z"/>
		<path class="st168" d="M379.12,200.69c0.04,0.31,0.17,0.6,0.32,0.87c0.15,0.27,0.34,0.52,0.55,0.75c0.21,0.22,0.45,0.43,0.7,0.61
			c0.12,0.09,0.26,0.17,0.39,0.25c0.14,0.07,0.27,0.14,0.41,0.21c-0.25-0.18-0.5-0.35-0.74-0.54c-0.24-0.19-0.46-0.4-0.67-0.62
			c-0.21-0.22-0.39-0.46-0.56-0.71C379.36,201.26,379.22,200.99,379.12,200.69z"/>
	</g>
	<path class="st167" d="M420,212.7l-7.66,11.58l-10.18-2.01l-17.29-12.92l3.03-4.49c0,0,16.2,9.73,17.57,10
		c1.38,0.27,5.14-8.53,5.14-8.53L420,212.7z"/>
	<path class="st162" d="M426.57,193.07c-0.84,4.59-3.04,15.23-6.21,20.14c0,0-7.68-0.56-12.01-5.82c0,0,5.91-14.61,7.46-17.61
		c1.24-2.41,7.22-9.56,10.18-2.46C426.74,189.13,426.92,191.13,426.57,193.07z"/>
	<g>
		<rect x="319.32" y="224.78" class="st165" width="2.7" height="73.86"/>
		<rect x="344.78" y="224.78" class="st165" width="2.7" height="73.86"/>
		<rect x="421.76" y="224.78" class="st165" width="2.7" height="73.86"/>
		<rect x="447.22" y="224.78" class="st165" width="2.7" height="73.86"/>
		<path class="st166" d="M455.92,225.65H313.7c-0.88,0-1.59-0.71-1.59-1.59v-1.52c0-0.88,0.71-1.59,1.59-1.59h142.22
			c0.88,0,1.59,0.71,1.59,1.59v1.52C457.51,224.93,456.8,225.65,455.92,225.65z"/>
	</g>
	<g>
		<path class="st151" d="M422.87,171.55c0,0,2.46-8.8-2.31-12.36c-4.77-3.56-10-3.43-13.63-1.6c-3.64,1.83-6.07,8.69-4.66,12.75
			l11.95-3.25L422.87,171.55z"/>
		<path class="st168" d="M404.62,171.46c0.44,1.14,0.06,2.35-0.85,2.7c-0.91,0.35-2-0.29-2.44-1.43c-0.44-1.14-0.06-2.35,0.85-2.7
			C403.09,169.68,404.18,170.32,404.62,171.46z"/>
		<path class="st167" d="M404.82,178.08c-0.27-0.49-0.5-1.02-0.68-1.56c-0.51-1.47-0.76-3.02-0.86-4.37
			c-0.02-0.29-0.06-0.58-0.11-0.86c-0.18-1.16-0.15-2.38,0.14-3.64c0.95-4.04,4.5-7.02,8.63-7.25c5.57-0.31,10.08,4.18,9.97,9.61
			c0.6-0.32,1.26-0.38,1.84-0.11c1.11,0.52,1.48,2.07,0.83,3.46c-0.65,1.39-2.08,2.09-3.19,1.57c-0.15-0.07-0.29-0.17-0.42-0.28
			c-0.56,4.62-4.41,8.12-8.94,7.95c-2.22-0.08-4.21-1.02-5.69-2.5c-0.1-0.09-0.2-0.19-0.31-0.31
			C405.55,179.29,405.15,178.71,404.82,178.08z"/>
		<path class="st168" d="M410.38,169.7c-0.06,0.54-0.11,1.06-0.18,1.58c-0.08,0.5-0.17,1.04-0.41,1.38l-0.04,0.05
			c-0.02,0.02-0.02,0.03-0.06,0.07c-0.05,0.06-0.12,0.12-0.16,0.19c-0.09,0.14-0.16,0.31-0.18,0.48c-0.04,0.36,0.12,0.69,0.34,0.91
			c0.45,0.44,1.07,0.53,1.59,0.45c-0.52-0.14-1.01-0.36-1.27-0.73c-0.12-0.18-0.2-0.38-0.15-0.56c0.02-0.09,0.05-0.17,0.11-0.25
			c0.02-0.04,0.07-0.07,0.1-0.11l0.07-0.08l0.08-0.1c0.19-0.27,0.27-0.56,0.33-0.84c0.05-0.28,0.07-0.56,0.06-0.83
			C410.61,170.76,410.54,170.22,410.38,169.7z"/>
		<path class="st164" d="M413.44,170.68c-0.02,0.46,0.34,0.84,0.79,0.85c0.45,0.02,0.84-0.34,0.85-0.8
			c0.02-0.46-0.34-0.84-0.79-0.85C413.83,169.86,413.45,170.22,413.44,170.68z"/>
		<path class="st164" d="M406.35,170.89c-0.02,0.46,0.34,0.84,0.79,0.85c0.45,0.02,0.84-0.34,0.85-0.8
			c0.02-0.46-0.34-0.84-0.79-0.85C406.75,170.08,406.37,170.43,406.35,170.89z"/>
		<path class="st151" d="M412.56,168.73c0.43-0.09,0.83-0.16,1.22-0.19c0.39-0.03,0.77-0.01,1.14,0.07
			c0.36,0.08,0.73,0.19,1.07,0.38c0.18,0.07,0.34,0.2,0.53,0.3c0.18,0.11,0.34,0.24,0.54,0.35c-0.09-0.2-0.19-0.4-0.32-0.58
			c-0.14-0.17-0.28-0.35-0.46-0.49c-0.34-0.3-0.78-0.5-1.23-0.6c-0.46-0.09-0.93-0.06-1.36,0.07
			C413.26,168.18,412.86,168.4,412.56,168.73z"/>
		<path class="st151" d="M408.91,168.84c-0.31-0.32-0.71-0.53-1.15-0.65c-0.44-0.12-0.91-0.13-1.36-0.03
			c-0.45,0.11-0.88,0.32-1.21,0.63c-0.18,0.14-0.31,0.33-0.44,0.5c-0.12,0.19-0.22,0.39-0.3,0.59c0.2-0.11,0.35-0.25,0.53-0.36
			c0.18-0.1,0.33-0.23,0.52-0.31c0.34-0.2,0.7-0.32,1.06-0.41c0.36-0.09,0.74-0.12,1.14-0.1
			C408.08,168.71,408.48,168.76,408.91,168.84z"/>
		<path class="st151" d="M421.78,170.14c0.56-0.45,0.97-0.39,0.97-0.39l-0.12-2.89l-0.82-1.77c0,0-3.29-4.82-3.41-4.94
			c-0.12-0.12-2.72-1.75-2.88-1.83c-0.16-0.08-3.92,0.32-3.92,0.32s-6.51-1.63-5.55,1.86c0.96,3.49,5.68,5.5,5.93,5.36
			c-0.75-0.81-0.73-3-0.73-3C414.49,166.7,420.79,169.69,421.78,170.14z"/>
		<path class="st0" d="M408.06,175.87c0.15,1.04,1.07,1.88,2.24,1.96c1.17,0.08,2.2-0.64,2.47-1.65L408.06,175.87z"/>
	</g>
	<path class="st185" d="M455.92,225.65H417.2c-0.88,0-1.59-0.71-1.59-1.59v-1.52c0-0.88,0.71-1.59,1.59-1.59h38.71
		c0.88,0,1.59,0.71,1.59,1.59v1.52C457.51,224.93,456.8,225.65,455.92,225.65z"/>
	<rect x="321.2" y="210.8" class="st159" width="18.73" height="3.66"/>
	<rect x="353.31" y="215.45" class="st179" width="2.02" height="5.49"/>
	<path class="st81" d="M799.16,302.72H31c-0.75,0-1.36-0.61-1.36-1.36v-1.3c0-0.75,0.61-1.36,1.36-1.36h768.16
		c0.75,0,1.36,0.61,1.36,1.36v1.3C800.52,302.11,799.91,302.72,799.16,302.72z"/>
	<rect x="483.32" y="224.78" class="st165" width="2.7" height="73.86"/>
	<rect x="508.77" y="224.78" class="st165" width="2.7" height="73.86"/>
	<rect x="585.76" y="224.78" class="st165" width="2.7" height="73.86"/>
	<rect x="611.21" y="224.78" class="st165" width="2.7" height="73.86"/>
	<path class="st166" d="M619.91,225.65H477.69c-0.88,0-1.59-0.71-1.59-1.59v-1.52c0-0.88,0.71-1.59,1.59-1.59h142.22
		c0.88,0,1.59,0.71,1.59,1.59v1.52C621.5,224.93,620.79,225.65,619.91,225.65z"/>
	<path class="st185" d="M619.73,225.65h-38.71c-0.88,0-1.59-0.71-1.59-1.59v-1.52c0-0.88,0.71-1.59,1.59-1.59h38.71
		c0.88,0,1.59,0.71,1.59,1.59v1.52C621.33,224.93,620.61,225.65,619.73,225.65z"/>
	<path class="st185" d="M784,225.65h-38.71c-0.88,0-1.59-0.71-1.59-1.59v-1.52c0-0.88,0.71-1.59,1.59-1.59H784
		c0.88,0,1.59,0.71,1.59,1.59v1.52C785.59,224.93,784.88,225.65,784,225.65z"/>
	<text transform="matrix(1 0 0 1 123.6478 138.0985)" class="st0 st187 st188">Are You Looking </text>
	<text transform="matrix(1 0 0 1 123.7678 158.0985)" class="st0 st187 st188">For A School For </text>
	<text transform="matrix(1 0 0 1 143.6718 178.0987)" class="st0 st187 st188">Your Child ?</text>
	<g>
		<polygon class="st167" points="72.07,149.75 72.08,151.23 72.25,154.89 65.04,153.94 64.26,152.87 64.19,150.09 63.96,147.48 
			68.75,147.48 		"/>
		<path class="st167" d="M78.71,239.06c0,0,0.36,1.62,0,3.69C78.35,244.83,69,294.1,69,294.1l4.93,0.72c0,0,16.1-45.76,17-48.83
			c0.9-3.06,1.89-7.39-1.17-10.72C86.71,231.94,78.71,239.06,78.71,239.06z"/>
		<path class="st167" d="M81.31,295.53l-5.9-7.12l-5.9,2.45l1.48,2.04l6.43,3.23c0,0,2.75,0.55,2.89,0.51
			C80.44,296.61,81.31,295.53,81.31,295.53z"/>
		<path class="st151" d="M81.31,295.53l1.28,1.6c0.6,0.73-0.13,1.79-1.03,1.5l-12.39-4.12c-0.44-0.15-0.67-0.62-0.53-1.06l0.86-2.6
			C76.88,296.23,79.99,296.38,81.31,295.53z"/>
		<path class="st151" d="M60.89,129.98c0,0-3.08-2.02-6.59,0c-3.51,2.02-3.51,8.84-2.13,10.47c1.38,1.63-0.07,3.84,2.69,5.97
			c2.76,2.13,7.17,2.91,9.68,0.42c2.51-2.49,0.67-8.04,0.67-8.04L60.89,129.98z"/>
		<path class="st167" d="M72.98,295.86l-6.78-4.24l-5.89,3.53l2.05,1.47l7.12,1.04c0,0,2.78-0.34,2.91-0.43
			C72.49,297.16,72.98,295.86,72.98,295.86z"/>
		<path class="st167" d="M56.61,234.39c0,0,0.97,23.48,1.06,27.54c0.09,4.05,2.16,34.14,3.06,36.76l5.03-0.36
			c0,0,3.43-58.26,2.36-63.93C67.04,228.71,56.61,234.39,56.61,234.39z"/>
		<path class="st167" d="M45.82,215.21c-1.73-0.36-2.17,0.76-3.92,0.4l0.41,2.71c-0.24,0.53-0.76,1.94-0.76,1.94
			c-1.95,5.67-1.85,5.06-1.65,5.17c0.19,0.11,1.66-1.99,1.83-1.8c0.17,0.2-0.84,3.57-0.54,3.48c0.3-0.09,1.61-3.09,1.78-2.98
			c0.17,0.11-0.85,3.36-0.41,3.47c0.44,0.11,1.44-3.48,1.75-3.24c0.31,0.23-0.8,3.89-0.38,3.92c0.35,0.03,1.7-4.02,2.12-5.31
			c0.05-0.17,0.27-0.2,0.38-0.07c1.68,2.11,1.94,2.17,2.13,1.93c0.13-0.17-0.73-2.46-1.42-4.65l-0.91-2.67L45.82,215.21z"/>
		<path class="st151" d="M72.98,295.86l1.72,1.12c0.8,0.51,0.44,1.74-0.51,1.74H61.13c-0.46,0-0.83-0.37-0.83-0.84v-2.74
			C68.99,297.93,72,297.09,72.98,295.86z"/>
		<path class="st167" d="M114.77,152.65c0.03,0.16,0.23,0.23,0.35,0.11c0.91-0.91,3.81-3.76,4.09-3.58
			c0.34,0.21-2.19,2.83-2.02,3.16c0.16,0.33,2.56-2.28,2.89-1.99c0.32,0.29-1.94,2.59-1.85,2.76c0.09,0.17,2.5-1.81,2.79-1.75
			c0.29,0.05-2.02,2.48-1.96,2.72c0.06,0.24,2.21-0.9,2.33-0.73c0.12,0.17,0.23,0.27-3.88,4.23l-1.68,1.49l-2.03,0.47l-1.43-2.06
			c0,0,1.17-7.26,1.44-7.38C114.06,149.97,114.25,150.14,114.77,152.65z"/>
		<path class="st169" d="M59.94,234.39l4.18,15.49c9.65-0.01,24.04-0.91,31.18-5.68c0,0-9.34-43.52-15.55-54.42l-21.31-1.17
			c0,0-14.77,20.62-3.99,60.98c0,0,1.84,0.14,4.79,0.22L59.94,234.39z"/>
		<path class="st168" d="M78.14,138.16c-0.44,1.2-0.02,2.46,0.94,2.81c0.96,0.35,2.09-0.33,2.53-1.53c0.44-1.2,0.02-2.46-0.94-2.81
			C79.71,136.28,78.58,136.96,78.14,138.16z"/>
		<path class="st168" d="M63.88,146.82c0,0,0.19,1.48,0.32,3.27c1.61,1.31,3.69,1.97,5.87,1.69c0.71-0.09,1.39-0.28,2.03-0.56
			c-0.05-1.17-0.03-2.25,0.15-2.76C72.73,147.04,63.88,146.82,63.88,146.82z"/>
		<path class="st0" d="M79.2,154.35l20.18,15.32l12.92-13.28c0,0,3.87,2.99,3.87,2.93c0-0.06-12.15,18.98-15.13,19.98
			c-2.98,1-22.23-12.44-22.23-12.44L79.2,154.35z"/>
		<path class="st167" d="M78.03,145.1c0.28-0.52,0.51-1.07,0.69-1.64c0.51-1.54,0.74-3.17,0.83-4.58c0.02-0.3,0.06-0.61,0.1-0.91
			c0.17-1.22,0.12-2.5-0.21-3.81c-1.06-4.21-4.82-7.28-9.15-7.45c-5.83-0.23-10.48,4.53-10.29,10.22c-0.63-0.32-1.32-0.38-1.93-0.08
			c-1.15,0.56-1.52,2.19-0.81,3.64c0.7,1.44,2.21,2.16,3.36,1.59c0.16-0.08,0.3-0.18,0.43-0.3c0.66,4.82,4.74,8.42,9.49,8.18
			c2.32-0.12,4.39-1.14,5.92-2.71c0.1-0.09,0.21-0.2,0.32-0.33C77.29,146.38,77.7,145.76,78.03,145.1z"/>
		<path class="st164" d="M69.16,138.29c0.03,0.51-0.37,0.95-0.88,0.98c-0.51,0.03-0.95-0.37-0.97-0.88
			c-0.03-0.51,0.37-0.95,0.88-0.98C68.69,137.38,69.13,137.78,69.16,138.29z"/>
		<path class="st164" d="M76.77,138.29c0.03,0.51-0.37,0.95-0.88,0.98c-0.51,0.03-0.95-0.37-0.97-0.88
			c-0.03-0.51,0.37-0.95,0.88-0.98C76.31,137.38,76.74,137.78,76.77,138.29z"/>
		<g>
			<g>
				<path class="st168" d="M71.99,136.52c-0.01,0.3-0.01,0.6,0,0.9c0.01,0.3,0.03,0.6,0.05,0.89c0.03,0.3,0.07,0.59,0.14,0.87
					c0.07,0.28,0.17,0.57,0.33,0.79c0.02,0.03,0.04,0.06,0.07,0.08c0.02,0.02,0.05,0.05,0.08,0.08c0.03,0.03,0.06,0.06,0.08,0.09
					c0.03,0.03,0.05,0.06,0.07,0.09c0.09,0.13,0.16,0.28,0.18,0.45c0.05,0.33-0.08,0.65-0.29,0.88c-0.21,0.24-0.48,0.4-0.76,0.5
					c-0.29,0.1-0.59,0.15-0.89,0.14c0.15-0.02,0.3-0.04,0.44-0.08c0.14-0.04,0.28-0.08,0.42-0.14c0.27-0.12,0.52-0.29,0.7-0.51
					c0.18-0.22,0.28-0.5,0.23-0.78c-0.02-0.13-0.08-0.26-0.16-0.37c-0.02-0.03-0.04-0.06-0.07-0.08c-0.02-0.03-0.05-0.05-0.07-0.08
					l-0.08-0.08c-0.03-0.03-0.05-0.06-0.08-0.09c-0.1-0.13-0.17-0.27-0.22-0.41c-0.06-0.14-0.1-0.29-0.13-0.44
					c-0.07-0.3-0.1-0.6-0.12-0.9C71.88,137.72,71.91,137.11,71.99,136.52z"/>
			</g>
		</g>
		<path class="st0" d="M81.89,174.37c0.07-0.08,3.17-3.39,2.57-9.59c-0.33-3.37-2.06-6.44-3.6-8.57c-1.36-1.88-3.52-3.01-5.84-3.06
			c-4.24-0.08-11-0.17-11-0.17s-8.72-0.96-11.49,2.45c-2.77,3.41-12.13,27.07-12.66,38.37c-0.53,11.3,2.23,24.62,2.23,24.62
			s3.08,0.21,4.47,0c1.38-0.21-0.32-21.85,1.17-25.37c1.49-3.52,8.19-20.36,8.62-21.96l1.66,8.82c0.31,1.63,0.16,3.3-0.41,4.85
			c-1.41,3.8-4.13,11.11-5.22,13.82c0,0,20.94,3.38,31.26-1.74l-0.09-0.4C81.83,189.22,81.28,181.77,81.89,174.37z"/>
		<g>
			<g>
				<path class="st151" d="M69.94,136.74c-0.42-0.22-0.86-0.39-1.31-0.5c-0.45-0.11-0.9-0.15-1.35-0.1
					c-0.22,0.02-0.45,0.06-0.66,0.13c-0.11,0.03-0.22,0.07-0.32,0.11c-0.05,0.02-0.11,0.04-0.16,0.07
					c-0.05,0.02-0.11,0.04-0.16,0.07c-0.41,0.2-0.8,0.46-1.19,0.75c0.28-0.39,0.65-0.72,1.06-0.98c0.21-0.13,0.43-0.24,0.67-0.31
					c0.23-0.08,0.48-0.13,0.73-0.16c0.49-0.05,1,0.02,1.46,0.19c0.23,0.08,0.45,0.19,0.66,0.31
					C69.57,136.43,69.77,136.57,69.94,136.74z"/>
			</g>
		</g>
		<g>
			<g>
				<path class="st151" d="M73.67,136.74c0.17-0.17,0.37-0.31,0.57-0.44c0.21-0.12,0.43-0.23,0.66-0.31
					c0.46-0.17,0.96-0.23,1.46-0.19c0.25,0.02,0.49,0.08,0.73,0.16c0.24,0.08,0.46,0.18,0.67,0.31c0.42,0.26,0.78,0.59,1.06,0.98
					c-0.38-0.29-0.77-0.55-1.19-0.75c-0.05-0.03-0.1-0.05-0.16-0.07c-0.05-0.02-0.1-0.05-0.16-0.07c-0.11-0.04-0.21-0.08-0.32-0.11
					c-0.22-0.06-0.44-0.11-0.66-0.13c-0.45-0.04-0.9,0-1.35,0.1C74.53,136.35,74.1,136.52,73.67,136.74z"/>
			</g>
		</g>
		<path class="st167" d="M62.38,152.87c0,0,6.66,8.46,8.08,11.51c0,0,3.91-5.14,4.08-11.27L62.38,152.87z"/>
		<path class="st171" d="M70.46,164.39c0.18,2.93,0.29,5.87,0.36,8.81c0.04,1.47,0.05,2.94,0.07,4.41c0.01,1.47,0.01,2.94,0,4.41
			c-0.01,0.74-0.02,1.47-0.03,2.21c-0.02,0.74-0.02,1.47-0.05,2.21c-0.05,1.47-0.09,2.94-0.18,4.41c-0.16,2.94-0.38,5.87-0.8,8.78
			l0.07-1.1l0.08-1.1c0.04-0.73,0.07-1.47,0.11-2.2l0.03-0.55l0.02-0.55l0.04-1.1l0.04-1.1l0.03-1.1c0.08-2.93,0.13-5.87,0.15-8.81
			c0.03-2.94,0.03-5.87,0.04-8.81L70.46,164.39z"/>
		<path class="st171" d="M57.08,168.31c-0.04,0.24-0.08,0.47-0.13,0.71c-0.05,0.24-0.1,0.47-0.16,0.7
			c-0.12,0.47-0.25,0.93-0.44,1.37c0.14-0.46,0.24-0.93,0.33-1.4c0.09-0.47,0.15-0.94,0.21-1.42c0.11-0.95,0.17-1.9,0.2-2.85
			l0.02-0.72l0-0.72c0.01-0.48-0.02-0.95-0.03-1.43c0-0.24-0.03-0.48-0.03-0.72l-0.04-0.72c-0.03-0.48-0.07-0.95-0.1-1.43
			c0.08,0.47,0.15,0.95,0.21,1.42c0.05,0.48,0.11,0.95,0.14,1.43l0.04,0.72c0.02,0.24,0.02,0.48,0.03,0.72l0.01,0.72L57.08,168.31z"
			/>
		<path class="st151" d="M79.09,129.08c-1.83-6.29-10.16-6.51-10.16-6.51c-12.89,0.9-10.86,12.22-10.43,14.1
			c0.37-0.09,0.89-0.08,1.51,0.26c0.26,0.14,0.47,0.29,0.65,0.44c1.52-0.46,1.98-2.99,2.76-4.21c1.07-1.65,5.77-0.8,7.55-1.97
			c1.78-1.17,1.97-2.98,1.97-2.98c6.87,1.09,6.77,8.37,6.77,8.37c0.3-0.07,0.66-0.03,0.66-0.03S80.72,134.69,79.09,129.08z"/>
		<path class="st0" d="M74.52,143.38c-0.23,0.97-1.36,1.71-2.72,1.72c-1.36,0.01-2.5-0.7-2.75-1.66L74.52,143.38z"/>
	</g>
</g>
</svg>
