<svg id="Group_40650" data-name="Group 40650" xmlns="http://www.w3.org/2000/svg" xmlns:xlink="http://www.w3.org/1999/xlink" width="15.564" height="15" viewBox="0 0 15.564 15">
  <defs>
    <clipPath id="clip-path">
      <rect id="Rectangle_23432" data-name="Rectangle 23432" width="15.564" height="15" fill="#393939"/>
    </clipPath>
  </defs>
  <g id="Group_40649" data-name="Group 40649" clip-path="url(#clip-path)">
    <path id="Path_77405" data-name="Path 77405" d="M12.257.539A2,2,0,0,0,10.875,0,2.206,2.206,0,0,0,9.321.645L9.14.827,8.958.645A2.2,2.2,0,0,0,7.405,0,2,2,0,0,0,6.023.539,2.064,2.064,0,0,0,5.977,3.5L9.14,6.666,12.3,3.5A2.064,2.064,0,0,0,12.257.539" fill="#393939"/>
    <path id="Path_77406" data-name="Path 77406" d="M15.361,8.277a1.434,1.434,0,0,0-1.566.057c-.507.292-3.42,2.782-3.42,2.782H7.509a.313.313,0,0,1-.278-.283.284.284,0,0,1,.278-.278H9.263a1.215,1.215,0,0,0,1.3-1.111,1.185,1.185,0,0,0-1.3-1.111c-1.065,0-1.273.005-1.273.005a2.583,2.583,0,0,1-1.192-.2,3.29,3.29,0,0,0-1.5-.357,3.21,3.21,0,0,0-2.3.943L0,11.667,3.333,15l1.111-1.111H10.07a2.285,2.285,0,0,0,1.519-.577L15.4,9.039a.487.487,0,0,0-.038-.762" fill="#393939"/>
  </g>
</svg>
