<?xml version="1.0" encoding="utf-8"?>
<!-- Generator: Adobe Illustrator 26.3.1, SVG Export Plug-In . SVG Version: 6.00 Build 0)  -->
<svg version="1.1" id="Layer_1" xmlns="http://www.w3.org/2000/svg" xmlns:xlink="http://www.w3.org/1999/xlink" x="0px" y="0px"
	 viewBox="0 0 170 130" style="enable-background:new 0 0 170 130;" xml:space="preserve">
<style type="text/css">
	.st0{fill:#1B1918;}
	.st1{fill:#2F914D;}
	.st2{fill:#FFFFFF;}
	.st3{fill:#323232;}
	.st4{fill:#FF0000;}
	.st5{fill:#6B6B6B;}
	.st6{fill:#FFC203;}
	.st7{fill:#58BD7D;}
	.st8{fill:#FFB948;}
	.st9{fill:#FF7171;}
	.st10{fill:#ED443A;}
	.st11{fill:#EBF3FA;}
	.st12{fill:#FFB27D;}
	.st13{fill:#2C3A64;}
	.st14{fill:#2B478B;}
	.st15{fill:#233862;}
	.st16{fill:#ED985F;}
	.st17{fill:#F99746;}
	.st18{fill:#ED7D2B;}
	.st19{fill:#F0995E;}
	.st20{fill:#FFB93E;}
	.st21{fill:#ED9E20;}
	.st22{fill:#E3A330;}
	.st23{fill:#2E3552;}
	.st24{fill:#D2E3FC;}
	.st25{fill:#B7D3F3;}
	.st26{fill:#FFF3F3;}
	.st27{opacity:0.1;clip-path:url(#SVGID_00000023254558180502252500000007509333526665574282_);}
	.st28{fill:#020202;}
	.st29{fill:#FFC5BB;}
	.st30{fill:#FFBCB3;}
	.st31{fill:#00A5A5;}
	.st32{fill:#EA2D2D;}
	.st33{fill:#230D42;}
	.st34{fill:#321851;}
	.st35{fill:#FFAFA4;}
	.st36{fill:#990000;}
	.st37{fill:#0E031E;}
	.st38{fill:#161616;}
	.st39{fill:#00C2CC;}
	.st40{fill:#1F0B38;}
	.st41{fill:#7C35C3;}
	.st42{fill:#FFB6AE;}
	.st43{fill:#191919;}
	.st44{fill:#562391;}
	.st45{fill:#180A2D;}
	.st46{fill:#111111;}
	.st47{fill:#FE7893;}
	.st48{fill:#282828;}
	.st49{opacity:0.1;clip-path:url(#SVGID_00000060021311978400827420000006834999984333580691_);}
</style>
<g>
	<g>
		<g>
			<path class="st0" d="M82.83,16.45c-0.29,0-0.52-0.23-0.52-0.52V6.13c0-0.29,0.23-0.52,0.52-0.52c0.29,0,0.52,0.23,0.52,0.52v9.81
				C83.35,16.22,83.12,16.45,82.83,16.45z"/>
		</g>
		<g>
			<g>
				<polygon class="st4" points="92.34,8.94 82.25,8.94 82.25,5.52 92.34,5.52 90.8,7.34 				"/>
			</g>
			<g>
				<path class="st0" d="M92.34,9.45H82.25c-0.29,0-0.52-0.23-0.52-0.52V5.52c0-0.29,0.23-0.52,0.52-0.52h10.09
					c0.2,0,0.38,0.12,0.47,0.3c0.08,0.18,0.06,0.4-0.07,0.55l-1.24,1.47l1.22,1.26c0.14,0.15,0.18,0.37,0.1,0.56
					C92.73,9.33,92.54,9.45,92.34,9.45z M82.76,8.42h8.36l-0.7-0.72c-0.18-0.19-0.19-0.49-0.02-0.69l0.82-0.98h-8.46V8.42z"/>
			</g>
		</g>
	</g>
	<g>
		<g>
			<g>
				<path class="st1" d="M154.79,92.89c-1.53,0-2.77-1.13-2.77-2.53v-1.92c0-1.4-1.24-2.53-2.77-2.53H17.66
					c-1.53,0-2.77,1.14-2.77,2.53v1.92c0,1.4-1.24,2.53-2.77,2.53c-1.53,0-2.77,1.13-2.77,2.53v4.91v0.11v1.23
					c0,2.08,1.87,3.79,4.15,3.79h139.93c2.28,0,4.15-1.7,4.15-3.79v-1.23v-0.11v-4.91C157.56,94.02,156.32,92.89,154.79,92.89z"/>
			</g>
			<g>
				<path class="st0" d="M153.42,105.87H13.48c-2.51,0-4.55-1.88-4.55-4.19v-6.26c0-1.62,1.43-2.94,3.18-2.94
					c1.31,0,2.37-0.95,2.37-2.13v-1.92c0-1.62,1.43-2.94,3.18-2.94h131.59c1.75,0,3.18,1.32,3.18,2.94v1.92
					c0,1.17,1.06,2.13,2.37,2.13c1.75,0,3.18,1.32,3.18,2.94v6.26C157.97,103.99,155.93,105.87,153.42,105.87z M17.66,86.31
					c-1.31,0-2.37,0.95-2.37,2.13v1.92c0,1.62-1.43,2.94-3.18,2.94c-1.31,0-2.37,0.95-2.37,2.13v6.26c0,1.86,1.68,3.38,3.74,3.38
					h139.93c2.06,0,3.74-1.52,3.74-3.38v-6.26c0-1.17-1.06-2.13-2.37-2.13c-1.75,0-3.18-1.32-3.18-2.94v-1.92
					c0-1.17-1.06-2.13-2.37-2.13H17.66z"/>
			</g>
		</g>
		<g>
			<g>
				<g>
					<path class="st0" d="M26.25,113.59H10.95c-0.22,0-0.41-0.18-0.41-0.41c0-0.22,0.18-0.41,0.41-0.41h15.31
						c0.22,0,0.41,0.18,0.41,0.41C26.66,113.41,26.48,113.59,26.25,113.59z"/>
				</g>
			</g>
			<g>
				<g>
					<path class="st2" d="M105.51,113.53h-7.59c-1.34,0-2.44-1.1-2.44-2.44V92.85c0-1.34-1.1-2.44-2.44-2.44H73.77
						c-1.34,0-2.44,1.1-2.44,2.44v17.9c0,1.34-1.1,2.44-2.44,2.44H56.94c-1.34,0-3.54,0-4.88,0h-0.81c-1.34,0-3.54,0-4.88,0h-4.06
						L105.51,113.53z"/>
				</g>
				<g>
					<path class="st0" d="M105.51,113.94h-7.59c-1.57,0-2.85-1.28-2.85-2.85V92.85c0-1.12-0.91-2.03-2.03-2.03H73.77
						c-1.12,0-2.03,0.91-2.03,2.03v17.9c0,1.57-1.28,2.85-2.85,2.85H42.31c-0.22,0-0.41-0.18-0.41-0.41c0-0.22,0.18-0.41,0.41-0.41
						h26.58c1.12,0,2.03-0.91,2.03-2.03v-17.9c0-1.57,1.28-2.85,2.85-2.85h19.27c1.57,0,2.85,1.28,2.85,2.85v18.24
						c0,1.12,0.91,2.03,2.03,2.03h7.59c0.22,0,0.41,0.18,0.41,0.41S105.73,113.94,105.51,113.94z"/>
				</g>
			</g>
			<g>
				<g>
					<path class="st0" d="M126.03,113.94h-13.62c-0.22,0-0.41-0.18-0.41-0.41s0.18-0.41,0.41-0.41h13.62c0.22,0,0.41,0.18,0.41,0.41
						S126.26,113.94,126.03,113.94z"/>
				</g>
			</g>
			<g>
				<g>
					<path class="st0" d="M156.45,113.94h-9.69c-0.22,0-0.41-0.18-0.41-0.41s0.18-0.41,0.41-0.41h9.69c0.22,0,0.41,0.18,0.41,0.41
						S156.68,113.94,156.45,113.94z"/>
				</g>
			</g>
		</g>
		<g>
			<g>
				<g>
					<rect x="40.91" y="21.57" class="st2" width="84.53" height="70.75"/>
				</g>
				<g>
					<path class="st0" d="M125.45,92.73H40.91c-0.22,0-0.41-0.18-0.41-0.41V21.57c0-0.22,0.18-0.41,0.41-0.41h84.53
						c0.22,0,0.41,0.18,0.41,0.41v70.75C125.85,92.55,125.67,92.73,125.45,92.73z M41.32,91.91h83.72V21.97H41.32V91.91z"/>
				</g>
			</g>
			<g>
				<g>
					<g>
						<polygon class="st4" points="71.88,24.77 38.13,24.77 39.84,20.19 71.88,20.19 						"/>
					</g>
					<g>
						<path class="st0" d="M71.88,25.18H38.13c-0.13,0-0.26-0.07-0.33-0.17c-0.08-0.11-0.09-0.25-0.05-0.37l1.72-4.58
							c0.06-0.16,0.21-0.26,0.38-0.26h32.04c0.22,0,0.41,0.18,0.41,0.41v4.58C72.29,25,72.11,25.18,71.88,25.18z M38.71,24.37h32.76
							V20.6H40.13L38.71,24.37z"/>
					</g>
				</g>
				<g>
					<g>
						<polygon class="st4" points="128.24,24.77 94.48,24.77 94.48,20.19 126.52,20.19 						"/>
					</g>
					<g>
						<path class="st0" d="M128.24,25.18H94.48c-0.22,0-0.41-0.18-0.41-0.41v-4.58c0-0.22,0.18-0.41,0.41-0.41h32.04
							c0.17,0,0.32,0.1,0.38,0.26l1.71,4.58c0.05,0.13,0.03,0.27-0.05,0.37C128.49,25.11,128.37,25.18,128.24,25.18z M94.89,24.37
							h32.76l-1.41-3.77H94.89V24.37z"/>
					</g>
				</g>
			</g>
			<g>
				<g>
					<rect x="37.84" y="91.41" class="st3" width="90.68" height="3.72"/>
				</g>
				<g>
					<path class="st0" d="M128.52,95.53H37.84c-0.22,0-0.41-0.18-0.41-0.41v-3.72c0-0.22,0.18-0.41,0.41-0.41h90.68
						c0.22,0,0.41,0.18,0.41,0.41v3.72C128.93,95.35,128.75,95.53,128.52,95.53z M38.25,94.72h89.87v-2.91H38.25V94.72z"/>
				</g>
			</g>
			<g>
				<path class="st0" d="M125.1,58.58H41.27c-0.22,0-0.41-0.18-0.41-0.41c0-0.22,0.18-0.41,0.41-0.41h83.83
					c0.22,0,0.41,0.18,0.41,0.41C125.5,58.39,125.32,58.58,125.1,58.58z"/>
			</g>
			<g>
				<g>
					<g>
						<g>
							<g>
								<rect x="114.41" y="28.87" class="st5" width="8.08" height="11.73"/>
							</g>
							<g>
								<path class="st0" d="M122.49,41h-8.08c-0.22,0-0.41-0.18-0.41-0.41V28.87c0-0.22,0.18-0.41,0.41-0.41h8.08
									c0.22,0,0.41,0.18,0.41,0.41V40.6C122.9,40.82,122.71,41,122.49,41z M114.81,40.19h7.27V29.27h-7.27V40.19z"/>
							</g>
						</g>
						<g>
							<g>
								<g>
									<path class="st0" d="M118.55,40.94c-0.22,0-0.41-0.18-0.41-0.41V28.97c0-0.22,0.18-0.41,0.41-0.41s0.41,0.18,0.41,0.41
										v11.57C118.95,40.76,118.77,40.94,118.55,40.94z"/>
								</g>
							</g>
							<g>
								<g>
									<g>
										<path class="st0" d="M122.46,35.24h-7.86c-0.22,0-0.41-0.18-0.41-0.41c0-0.22,0.18-0.41,0.41-0.41h7.86
											c0.22,0,0.41,0.18,0.41,0.41C122.87,35.06,122.68,35.24,122.46,35.24z"/>
									</g>
								</g>
							</g>
						</g>
					</g>
					<g>
						<g>
							<g>
								<rect x="114.41" y="43.62" class="st5" width="8.08" height="11.73"/>
							</g>
							<g>
								<path class="st0" d="M122.49,55.75h-8.08c-0.22,0-0.41-0.18-0.41-0.41V43.62c0-0.22,0.18-0.41,0.41-0.41h8.08
									c0.22,0,0.41,0.18,0.41,0.41v11.73C122.9,55.57,122.71,55.75,122.49,55.75z M114.81,54.94h7.27V44.03h-7.27V54.94z"/>
							</g>
						</g>
						<g>
							<g>
								<g>
									<path class="st0" d="M118.55,55.69c-0.22,0-0.41-0.18-0.41-0.41V43.72c0-0.22,0.18-0.41,0.41-0.41s0.41,0.18,0.41,0.41
										v11.57C118.95,55.51,118.77,55.69,118.55,55.69z"/>
								</g>
							</g>
							<g>
								<g>
									<g>
										<path class="st0" d="M122.46,49.99h-7.86c-0.22,0-0.41-0.18-0.41-0.41c0-0.22,0.18-0.41,0.41-0.41h7.86
											c0.22,0,0.41,0.18,0.41,0.41C122.87,49.81,122.68,49.99,122.46,49.99z"/>
									</g>
								</g>
							</g>
						</g>
					</g>
				</g>
				<g>
					<g>
						<g>
							<g>
								<rect x="43.87" y="28.87" class="st5" width="8.08" height="11.73"/>
							</g>
							<g>
								<path class="st0" d="M51.96,41h-8.08c-0.22,0-0.41-0.18-0.41-0.41V28.87c0-0.22,0.18-0.41,0.41-0.41h8.08
									c0.22,0,0.41,0.18,0.41,0.41V40.6C52.36,40.82,52.18,41,51.96,41z M44.28,40.19h7.27V29.27h-7.27V40.19z"/>
							</g>
						</g>
						<g>
							<g>
								<g>
									<path class="st0" d="M48.01,40.94c-0.22,0-0.41-0.18-0.41-0.41V28.97c0-0.22,0.18-0.41,0.41-0.41
										c0.22,0,0.41,0.18,0.41,0.41v11.57C48.42,40.76,48.24,40.94,48.01,40.94z"/>
								</g>
							</g>
							<g>
								<g>
									<g>
										<path class="st0" d="M51.92,35.24h-7.86c-0.22,0-0.41-0.18-0.41-0.41c0-0.22,0.18-0.41,0.41-0.41h7.86
											c0.22,0,0.41,0.18,0.41,0.41C52.33,35.06,52.15,35.24,51.92,35.24z"/>
									</g>
								</g>
							</g>
						</g>
					</g>
					<g>
						<g>
							<g>
								<rect x="43.87" y="43.62" class="st5" width="8.08" height="11.73"/>
							</g>
							<g>
								<path class="st0" d="M51.96,55.75h-8.08c-0.22,0-0.41-0.18-0.41-0.41V43.62c0-0.22,0.18-0.41,0.41-0.41h8.08
									c0.22,0,0.41,0.18,0.41,0.41v11.73C52.36,55.57,52.18,55.75,51.96,55.75z M44.28,54.94h7.27V44.03h-7.27V54.94z"/>
							</g>
						</g>
						<g>
							<g>
								<g>
									<path class="st0" d="M48.01,55.69c-0.22,0-0.41-0.18-0.41-0.41V43.72c0-0.22,0.18-0.41,0.41-0.41
										c0.22,0,0.41,0.18,0.41,0.41v11.57C48.42,55.51,48.24,55.69,48.01,55.69z"/>
								</g>
							</g>
							<g>
								<g>
									<g>
										<path class="st0" d="M51.92,49.99h-7.86c-0.22,0-0.41-0.18-0.41-0.41c0-0.22,0.18-0.41,0.41-0.41h7.86
											c0.22,0,0.41,0.18,0.41,0.41C52.33,49.81,52.15,49.99,51.92,49.99z"/>
									</g>
								</g>
							</g>
						</g>
					</g>
				</g>
			</g>
			<g>
				<g>
					<g>
						<g>
							<g>
								<rect x="114.41" y="61.72" class="st5" width="8.08" height="11.73"/>
							</g>
							<g>
								<path class="st0" d="M122.49,73.85h-8.08c-0.22,0-0.41-0.18-0.41-0.41V61.72c0-0.22,0.18-0.41,0.41-0.41h8.08
									c0.22,0,0.41,0.18,0.41,0.41v11.73C122.9,73.67,122.71,73.85,122.49,73.85z M114.81,73.04h7.27V62.13h-7.27V73.04z"/>
							</g>
						</g>
						<g>
							<g>
								<g>
									<path class="st0" d="M118.55,73.79c-0.22,0-0.41-0.18-0.41-0.41V61.82c0-0.22,0.18-0.41,0.41-0.41s0.41,0.18,0.41,0.41
										v11.57C118.95,73.61,118.77,73.79,118.55,73.79z"/>
								</g>
							</g>
							<g>
								<g>
									<g>
										<path class="st0" d="M122.46,68.09h-7.86c-0.22,0-0.41-0.18-0.41-0.41c0-0.22,0.18-0.41,0.41-0.41h7.86
											c0.22,0,0.41,0.18,0.41,0.41C122.87,67.91,122.68,68.09,122.46,68.09z"/>
									</g>
								</g>
							</g>
						</g>
					</g>
					<g>
						<g>
							<g>
								<rect x="114.41" y="76.47" class="st5" width="8.08" height="11.73"/>
							</g>
							<g>
								<path class="st0" d="M122.49,88.61h-8.08c-0.22,0-0.41-0.18-0.41-0.41V76.47c0-0.22,0.18-0.41,0.41-0.41h8.08
									c0.22,0,0.41,0.18,0.41,0.41V88.2C122.9,88.42,122.71,88.61,122.49,88.61z M114.81,87.79h7.27V76.88h-7.27V87.79z"/>
							</g>
						</g>
						<g>
							<g>
								<g>
									<path class="st0" d="M118.55,88.54c-0.22,0-0.41-0.18-0.41-0.41V76.57c0-0.22,0.18-0.41,0.41-0.41s0.41,0.18,0.41,0.41
										v11.57C118.95,88.36,118.77,88.54,118.55,88.54z"/>
								</g>
							</g>
							<g>
								<g>
									<g>
										<path class="st0" d="M122.46,82.84h-7.86c-0.22,0-0.41-0.18-0.41-0.41c0-0.22,0.18-0.41,0.41-0.41h7.86
											c0.22,0,0.41,0.18,0.41,0.41C122.87,82.66,122.68,82.84,122.46,82.84z"/>
									</g>
								</g>
							</g>
						</g>
					</g>
				</g>
				<g>
					<g>
						<g>
							<g>
								<rect x="43.87" y="61.72" class="st5" width="8.08" height="11.73"/>
							</g>
							<g>
								<path class="st0" d="M51.96,73.85h-8.08c-0.22,0-0.41-0.18-0.41-0.41V61.72c0-0.22,0.18-0.41,0.41-0.41h8.08
									c0.22,0,0.41,0.18,0.41,0.41v11.73C52.36,73.67,52.18,73.85,51.96,73.85z M44.28,73.04h7.27V62.13h-7.27V73.04z"/>
							</g>
						</g>
						<g>
							<g>
								<g>
									<path class="st0" d="M48.01,73.79c-0.22,0-0.41-0.18-0.41-0.41V61.82c0-0.22,0.18-0.41,0.41-0.41
										c0.22,0,0.41,0.18,0.41,0.41v11.57C48.42,73.61,48.24,73.79,48.01,73.79z"/>
								</g>
							</g>
							<g>
								<g>
									<g>
										<path class="st0" d="M51.92,68.09h-7.86c-0.22,0-0.41-0.18-0.41-0.41c0-0.22,0.18-0.41,0.41-0.41h7.86
											c0.22,0,0.41,0.18,0.41,0.41C52.33,67.91,52.15,68.09,51.92,68.09z"/>
									</g>
								</g>
							</g>
						</g>
					</g>
					<g>
						<g>
							<g>
								<rect x="43.87" y="76.47" class="st5" width="8.08" height="11.73"/>
							</g>
							<g>
								<path class="st0" d="M51.96,88.61h-8.08c-0.22,0-0.41-0.18-0.41-0.41V76.47c0-0.22,0.18-0.41,0.41-0.41h8.08
									c0.22,0,0.41,0.18,0.41,0.41V88.2C52.36,88.42,52.18,88.61,51.96,88.61z M44.28,87.79h7.27V76.88h-7.27V87.79z"/>
							</g>
						</g>
						<g>
							<g>
								<g>
									<path class="st0" d="M48.01,88.54c-0.22,0-0.41-0.18-0.41-0.41V76.57c0-0.22,0.18-0.41,0.41-0.41
										c0.22,0,0.41,0.18,0.41,0.41v11.57C48.42,88.36,48.24,88.54,48.01,88.54z"/>
								</g>
							</g>
							<g>
								<g>
									<g>
										<path class="st0" d="M51.92,82.84h-7.86c-0.22,0-0.41-0.18-0.41-0.41c0-0.22,0.18-0.41,0.41-0.41h7.86
											c0.22,0,0.41,0.18,0.41,0.41C52.33,82.66,52.15,82.84,51.92,82.84z"/>
									</g>
								</g>
							</g>
						</g>
					</g>
				</g>
			</g>
			<g>
				<g>
					<rect x="55.58" y="30.02" class="st2" width="55.21" height="65.16"/>
				</g>
				<g>
					<path class="st0" d="M110.78,95.58H55.58c-0.22,0-0.41-0.18-0.41-0.41V30.02c0-0.22,0.18-0.41,0.41-0.41h55.21
						c0.22,0,0.41,0.18,0.41,0.41v65.16C111.19,95.4,111.01,95.58,110.78,95.58z M55.98,94.77h54.39V30.43H55.98V94.77z"/>
				</g>
			</g>
			<g>
				<g>
					<rect x="54.24" y="93.55" class="st3" width="57.93" height="3.72"/>
				</g>
				<g>
					<path class="st0" d="M112.17,97.68H54.24c-0.22,0-0.41-0.18-0.41-0.41v-3.72c0-0.22,0.18-0.41,0.41-0.41h57.93
						c0.22,0,0.41,0.18,0.41,0.41v3.72C112.58,97.5,112.39,97.68,112.17,97.68z M54.65,96.87h57.11v-2.91H54.65V96.87z"/>
				</g>
			</g>
			<g>
				<path class="st0" d="M110.72,67H55.64c-0.22,0-0.41-0.18-0.41-0.41c0-0.22,0.18-0.41,0.41-0.41h55.08
					c0.22,0,0.41,0.18,0.41,0.41C111.13,66.82,110.94,67,110.72,67z"/>
			</g>
			<g>
				<g>
					<path class="st4" d="M112.65,14.29h-5.55c-0.66-0.73-1.73-1.22-2.95-1.22c-1.22,0-2.29,0.48-2.95,1.22h-8.09
						c-0.66-0.73-1.73-1.22-2.94-1.22c-1.22,0-2.29,0.48-2.95,1.22h-8.09c-0.66-0.73-1.73-1.22-2.95-1.22
						c-1.22,0-2.29,0.48-2.95,1.22h-8.09c-0.66-0.73-1.73-1.22-2.95-1.22c-1.22,0-2.29,0.48-2.95,1.22h-5.55l-3.43,18.02h65.8
						L112.65,14.29z"/>
				</g>
				<g>
					<path class="st0" d="M116.08,32.72h-65.8c-0.12,0-0.24-0.05-0.31-0.15c-0.08-0.09-0.11-0.22-0.09-0.33l3.43-18.02
						c0.04-0.19,0.2-0.33,0.4-0.33h5.37c0.77-0.77,1.9-1.22,3.12-1.22c1.23,0,2.35,0.44,3.12,1.22h7.74
						c0.77-0.77,1.9-1.22,3.12-1.22c1.2,0,2.36,0.45,3.12,1.22h7.74c0.77-0.77,1.9-1.22,3.12-1.22c1.22,0,2.35,0.44,3.12,1.22h7.74
						c0.76-0.76,1.91-1.22,3.12-1.22c1.21,0,2.36,0.45,3.12,1.22h5.37c0.2,0,0.36,0.14,0.4,0.33l3.43,18.02
						c0.02,0.12-0.01,0.24-0.09,0.33C116.32,32.66,116.2,32.72,116.08,32.72z M50.77,31.9h64.81l-3.28-17.21h-5.21
						c-0.12,0-0.23-0.05-0.3-0.14c-0.6-0.68-1.59-1.08-2.64-1.08s-2.04,0.4-2.64,1.08c-0.08,0.09-0.19,0.13-0.3,0.13h-8.09
						c-0.12,0-0.23-0.05-0.3-0.13c-0.61-0.68-1.59-1.08-2.64-1.08c-1.05,0-2.03,0.4-2.65,1.08c-0.08,0.08-0.19,0.13-0.3,0.13h-8.09
						c-0.12,0-0.23-0.05-0.3-0.13c-0.61-0.68-1.6-1.08-2.64-1.08c-1.05,0-2.04,0.4-2.64,1.08c-0.08,0.09-0.19,0.13-0.3,0.13h-8.09
						c-0.12,0-0.23-0.05-0.3-0.13c-0.61-0.68-1.59-1.08-2.64-1.08c-1.05,0-2.03,0.4-2.65,1.08c-0.08,0.08-0.19,0.13-0.3,0.13h-5.21
						L50.77,31.9z"/>
				</g>
			</g>
			<g>
				<path class="st0" d="M114.17,24.28H52.19c-0.22,0-0.41-0.18-0.41-0.41c0-0.22,0.18-0.41,0.41-0.41h61.98
					c0.22,0,0.41,0.18,0.41,0.41C114.58,24.09,114.4,24.28,114.17,24.28z"/>
			</g>
			<g>
				<g>
					<g>
						<rect x="77.85" y="76.73" class="st2" width="10.67" height="14.34"/>
					</g>
					<g>
						<path class="st0" d="M88.51,91.48H77.85c-0.22,0-0.41-0.18-0.41-0.41V76.73c0-0.22,0.18-0.41,0.41-0.41h10.67
							c0.22,0,0.41,0.18,0.41,0.41v14.34C88.92,91.3,88.74,91.48,88.51,91.48z M78.25,90.66h9.85V77.14h-9.85V90.66z"/>
					</g>
				</g>
				<g>
					<g>
						<g>
							<rect x="79.98" y="80.68" class="st5" width="2.92" height="10.48"/>
						</g>
						<g>
							<path class="st0" d="M82.9,91.57h-2.92c-0.22,0-0.41-0.18-0.41-0.41V80.68c0-0.22,0.18-0.41,0.41-0.41h2.92
								c0.22,0,0.41,0.18,0.41,0.41v10.48C83.31,91.39,83.12,91.57,82.9,91.57z M80.38,90.75h2.11v-9.66h-2.11V90.75z"/>
						</g>
					</g>
					<g>
						<g>
							<rect x="83.31" y="80.68" class="st5" width="2.93" height="10.48"/>
						</g>
						<g>
							<path class="st0" d="M86.24,91.57h-2.93c-0.22,0-0.41-0.18-0.41-0.41V80.68c0-0.22,0.18-0.41,0.41-0.41h2.93
								c0.22,0,0.41,0.18,0.41,0.41v10.48C86.65,91.39,86.46,91.57,86.24,91.57z M83.72,90.75h2.12v-9.66h-2.12V90.75z"/>
						</g>
					</g>
				</g>
				<g>
					<path class="st0" d="M97.27,93.93H69.09c-0.22,0-0.41-0.18-0.41-0.41V74.18c0-0.22,0.18-0.41,0.41-0.41h28.19
						c0.22,0,0.41,0.18,0.41,0.41v19.34C97.68,93.75,97.5,93.93,97.27,93.93z M69.49,93.11h27.37V74.58H69.49V93.11z"/>
				</g>
			</g>
			<g>
				<g>
					<g>
						<rect x="72.59" y="90.59" class="st2" width="21.17" height="4.46"/>
					</g>
					<g>
						<path class="st0" d="M93.77,95.46H72.59c-0.22,0-0.41-0.18-0.41-0.41v-4.46c0-0.22,0.18-0.41,0.41-0.41h21.17
							c0.22,0,0.41,0.18,0.41,0.41v4.46C94.17,95.28,93.99,95.46,93.77,95.46z M73,94.65h20.36V91H73V94.65z"/>
					</g>
				</g>
				<g>
					<g>
						<rect x="71.35" y="94.56" class="st2" width="23.66" height="4.46"/>
					</g>
					<g>
						<path class="st0" d="M95.01,99.43H71.35c-0.22,0-0.41-0.18-0.41-0.41v-4.46c0-0.22,0.18-0.41,0.41-0.41h23.66
							c0.22,0,0.41,0.18,0.41,0.41v4.46C95.42,99.25,95.24,99.43,95.01,99.43z M71.76,98.62H94.6v-3.65H71.76V98.62z"/>
					</g>
				</g>
				<g>
					<g>
						<rect x="69.83" y="98.15" class="st2" width="26.7" height="4.46"/>
					</g>
					<g>
						<path class="st0" d="M96.53,103.02h-26.7c-0.22,0-0.41-0.18-0.41-0.41v-4.46c0-0.22,0.18-0.41,0.41-0.41h26.7
							c0.22,0,0.41,0.18,0.41,0.41v4.46C96.94,102.84,96.75,103.02,96.53,103.02z M70.24,102.21h25.89v-3.65H70.24V102.21z"/>
					</g>
				</g>
			</g>
			<g>
				<g>
					<g>
						<g>
							<rect x="60.48" y="34.69" class="st5" width="8.08" height="11.73"/>
						</g>
						<g>
							<path class="st0" d="M68.57,46.83h-8.08c-0.22,0-0.41-0.18-0.41-0.41V34.69c0-0.22,0.18-0.41,0.41-0.41h8.08
								c0.22,0,0.41,0.18,0.41,0.41v11.73C68.97,46.65,68.79,46.83,68.57,46.83z M60.89,46.02h7.27V35.1h-7.27V46.02z"/>
						</g>
					</g>
					<g>
						<g>
							<g>
								<path class="st0" d="M64.62,46.77c-0.22,0-0.41-0.18-0.41-0.41V34.79c0-0.22,0.18-0.41,0.41-0.41s0.41,0.18,0.41,0.41v11.57
									C65.03,46.59,64.85,46.77,64.62,46.77z"/>
							</g>
						</g>
						<g>
							<g>
								<g>
									<path class="st0" d="M68.54,41.07h-7.86c-0.22,0-0.41-0.18-0.41-0.41c0-0.22,0.18-0.41,0.41-0.41h7.86
										c0.22,0,0.41,0.18,0.41,0.41C68.94,40.88,68.76,41.07,68.54,41.07z"/>
								</g>
							</g>
						</g>
					</g>
				</g>
				<g>
					<g>
						<g>
							<rect x="60.48" y="51.68" class="st5" width="8.08" height="11.73"/>
						</g>
						<g>
							<path class="st0" d="M68.57,63.81h-8.08c-0.22,0-0.41-0.18-0.41-0.41V51.68c0-0.22,0.18-0.41,0.41-0.41h8.08
								c0.22,0,0.41,0.18,0.41,0.41v11.73C68.97,63.63,68.79,63.81,68.57,63.81z M60.89,63h7.27V52.08h-7.27V63z"/>
						</g>
					</g>
					<g>
						<g>
							<g>
								<path class="st0" d="M64.62,63.75c-0.22,0-0.41-0.18-0.41-0.41V51.77c0-0.22,0.18-0.41,0.41-0.41s0.41,0.18,0.41,0.41v11.57
									C65.03,63.57,64.85,63.75,64.62,63.75z"/>
							</g>
						</g>
						<g>
							<g>
								<g>
									<path class="st0" d="M68.54,58.05h-7.86c-0.22,0-0.41-0.18-0.41-0.41c0-0.22,0.18-0.41,0.41-0.41h7.86
										c0.22,0,0.41,0.18,0.41,0.41C68.94,57.87,68.76,58.05,68.54,58.05z"/>
								</g>
							</g>
						</g>
					</g>
				</g>
				<g>
					<g>
						<g>
							<rect x="79.14" y="34.69" class="st5" width="8.08" height="11.73"/>
						</g>
						<g>
							<path class="st0" d="M87.22,46.83h-8.08c-0.22,0-0.41-0.18-0.41-0.41V34.69c0-0.22,0.18-0.41,0.41-0.41h8.08
								c0.22,0,0.41,0.18,0.41,0.41v11.73C87.63,46.65,87.45,46.83,87.22,46.83z M79.54,46.02h7.27V35.1h-7.27V46.02z"/>
						</g>
					</g>
					<g>
						<g>
							<g>
								<path class="st0" d="M83.28,46.77c-0.22,0-0.41-0.18-0.41-0.41V34.79c0-0.22,0.18-0.41,0.41-0.41s0.41,0.18,0.41,0.41v11.57
									C83.68,46.59,83.5,46.77,83.28,46.77z"/>
							</g>
						</g>
						<g>
							<g>
								<g>
									<path class="st0" d="M87.19,41.07h-7.86c-0.22,0-0.41-0.18-0.41-0.41c0-0.22,0.18-0.41,0.41-0.41h7.86
										c0.22,0,0.41,0.18,0.41,0.41C87.6,40.88,87.42,41.07,87.19,41.07z"/>
								</g>
							</g>
						</g>
					</g>
				</g>
				<g>
					<g>
						<g>
							<rect x="79.14" y="51.68" class="st5" width="8.08" height="11.73"/>
						</g>
						<g>
							<path class="st0" d="M87.22,63.81h-8.08c-0.22,0-0.41-0.18-0.41-0.41V51.68c0-0.22,0.18-0.41,0.41-0.41h8.08
								c0.22,0,0.41,0.18,0.41,0.41v11.73C87.63,63.63,87.45,63.81,87.22,63.81z M79.54,63h7.27V52.08h-7.27V63z"/>
						</g>
					</g>
					<g>
						<g>
							<g>
								<path class="st0" d="M83.28,63.75c-0.22,0-0.41-0.18-0.41-0.41V51.77c0-0.22,0.18-0.41,0.41-0.41s0.41,0.18,0.41,0.41v11.57
									C83.68,63.57,83.5,63.75,83.28,63.75z"/>
							</g>
						</g>
						<g>
							<g>
								<g>
									<path class="st0" d="M87.19,58.05h-7.86c-0.22,0-0.41-0.18-0.41-0.41c0-0.22,0.18-0.41,0.41-0.41h7.86
										c0.22,0,0.41,0.18,0.41,0.41C87.6,57.87,87.42,58.05,87.19,58.05z"/>
								</g>
							</g>
						</g>
					</g>
				</g>
				<g>
					<g>
						<g>
							<rect x="97.8" y="34.69" class="st5" width="8.08" height="11.73"/>
						</g>
						<g>
							<path class="st0" d="M105.88,46.83H97.8c-0.22,0-0.41-0.18-0.41-0.41V34.69c0-0.22,0.18-0.41,0.41-0.41h8.08
								c0.22,0,0.41,0.18,0.41,0.41v11.73C106.29,46.65,106.1,46.83,105.88,46.83z M98.2,46.02h7.27V35.1H98.2V46.02z"/>
						</g>
					</g>
					<g>
						<g>
							<g>
								<path class="st0" d="M101.94,46.77c-0.22,0-0.41-0.18-0.41-0.41V34.79c0-0.22,0.18-0.41,0.41-0.41s0.41,0.18,0.41,0.41
									v11.57C102.34,46.59,102.16,46.77,101.94,46.77z"/>
							</g>
						</g>
						<g>
							<g>
								<g>
									<path class="st0" d="M105.85,41.07h-7.86c-0.22,0-0.41-0.18-0.41-0.41c0-0.22,0.18-0.41,0.41-0.41h7.86
										c0.22,0,0.41,0.18,0.41,0.41C106.26,40.88,106.07,41.07,105.85,41.07z"/>
								</g>
							</g>
						</g>
					</g>
				</g>
				<g>
					<g>
						<g>
							<rect x="97.8" y="51.68" class="st5" width="8.08" height="11.73"/>
						</g>
						<g>
							<path class="st0" d="M105.88,63.81H97.8c-0.22,0-0.41-0.18-0.41-0.41V51.68c0-0.22,0.18-0.41,0.41-0.41h8.08
								c0.22,0,0.41,0.18,0.41,0.41v11.73C106.29,63.63,106.1,63.81,105.88,63.81z M98.2,63h7.27V52.08H98.2V63z"/>
						</g>
					</g>
					<g>
						<g>
							<g>
								<path class="st0" d="M101.94,63.75c-0.22,0-0.41-0.18-0.41-0.41V51.77c0-0.22,0.18-0.41,0.41-0.41s0.41,0.18,0.41,0.41
									v11.57C102.34,63.57,102.16,63.75,101.94,63.75z"/>
							</g>
						</g>
						<g>
							<g>
								<g>
									<path class="st0" d="M105.85,58.05h-7.86c-0.22,0-0.41-0.18-0.41-0.41c0-0.22,0.18-0.41,0.41-0.41h7.86
										c0.22,0,0.41,0.18,0.41,0.41C106.26,57.87,106.07,58.05,105.85,58.05z"/>
								</g>
							</g>
						</g>
					</g>
				</g>
			</g>
			<g>
				<g>
					<g>
						<g>
							<g>
								<rect x="58.82" y="69.67" class="st5" width="5.59" height="8.11"/>
							</g>
							<g>
								<path class="st0" d="M64.41,78.19h-5.59c-0.22,0-0.41-0.18-0.41-0.41v-8.11c0-0.22,0.18-0.41,0.41-0.41h5.59
									c0.22,0,0.41,0.18,0.41,0.41v8.11C64.81,78.01,64.63,78.19,64.41,78.19z M59.22,77.38H64v-7.3h-4.78V77.38z"/>
							</g>
						</g>
						<g>
							<g>
								<g>
									<path class="st0" d="M61.68,78.15c-0.22,0-0.41-0.18-0.41-0.41v-8c0-0.22,0.18-0.41,0.41-0.41c0.22,0,0.41,0.18,0.41,0.41
										v8C62.08,77.97,61.9,78.15,61.68,78.15z"/>
								</g>
							</g>
							<g>
								<g>
									<g>
										<path class="st0" d="M64.39,74.21h-5.44c-0.22,0-0.41-0.18-0.41-0.41c0-0.22,0.18-0.41,0.41-0.41h5.44
											c0.22,0,0.41,0.18,0.41,0.41C64.79,74.03,64.61,74.21,64.39,74.21z"/>
									</g>
								</g>
							</g>
						</g>
					</g>
					<g>
						<g>
							<g>
								<rect x="58.82" y="82.44" class="st5" width="5.59" height="8.11"/>
							</g>
							<g>
								<path class="st0" d="M64.41,90.96h-5.59c-0.22,0-0.41-0.18-0.41-0.41v-8.11c0-0.22,0.18-0.41,0.41-0.41h5.59
									c0.22,0,0.41,0.18,0.41,0.41v8.11C64.81,90.78,64.63,90.96,64.41,90.96z M59.22,90.15H64v-7.3h-4.78V90.15z"/>
							</g>
						</g>
						<g>
							<g>
								<g>
									<path class="st0" d="M61.68,90.92c-0.22,0-0.41-0.18-0.41-0.41v-8c0-0.22,0.18-0.41,0.41-0.41c0.22,0,0.41,0.18,0.41,0.41
										v8C62.08,90.74,61.9,90.92,61.68,90.92z"/>
								</g>
							</g>
							<g>
								<g>
									<g>
										<path class="st0" d="M64.39,86.98h-5.44c-0.22,0-0.41-0.18-0.41-0.41c0-0.22,0.18-0.41,0.41-0.41h5.44
											c0.22,0,0.41,0.18,0.41,0.41C64.79,86.79,64.61,86.98,64.39,86.98z"/>
									</g>
								</g>
							</g>
						</g>
					</g>
				</g>
				<g>
					<g>
						<g>
							<g>
								<rect x="101.96" y="69.67" class="st5" width="5.59" height="8.11"/>
							</g>
							<g>
								<path class="st0" d="M107.55,78.19h-5.59c-0.22,0-0.41-0.18-0.41-0.41v-8.11c0-0.22,0.18-0.41,0.41-0.41h5.59
									c0.22,0,0.41,0.18,0.41,0.41v8.11C107.95,78.01,107.77,78.19,107.55,78.19z M102.36,77.38h4.78v-7.3h-4.78V77.38z"/>
							</g>
						</g>
						<g>
							<g>
								<g>
									<path class="st0" d="M104.82,78.15c-0.22,0-0.41-0.18-0.41-0.41v-8c0-0.22,0.18-0.41,0.41-0.41c0.22,0,0.41,0.18,0.41,0.41
										v8C105.22,77.97,105.04,78.15,104.82,78.15z"/>
								</g>
							</g>
							<g>
								<g>
									<g>
										<path class="st0" d="M107.53,74.21h-5.44c-0.22,0-0.41-0.18-0.41-0.41c0-0.22,0.18-0.41,0.41-0.41h5.44
											c0.22,0,0.41,0.18,0.41,0.41C107.93,74.03,107.75,74.21,107.53,74.21z"/>
									</g>
								</g>
							</g>
						</g>
					</g>
					<g>
						<g>
							<g>
								<rect x="101.96" y="82.44" class="st5" width="5.59" height="8.11"/>
							</g>
							<g>
								<path class="st0" d="M107.55,90.96h-5.59c-0.22,0-0.41-0.18-0.41-0.41v-8.11c0-0.22,0.18-0.41,0.41-0.41h5.59
									c0.22,0,0.41,0.18,0.41,0.41v8.11C107.95,90.78,107.77,90.96,107.55,90.96z M102.36,90.15h4.78v-7.3h-4.78V90.15z"/>
							</g>
						</g>
						<g>
							<g>
								<g>
									<path class="st0" d="M104.82,90.92c-0.22,0-0.41-0.18-0.41-0.41v-8c0-0.22,0.18-0.41,0.41-0.41c0.22,0,0.41,0.18,0.41,0.41
										v8C105.22,90.74,105.04,90.92,104.82,90.92z"/>
								</g>
							</g>
							<g>
								<g>
									<g>
										<path class="st0" d="M107.53,86.98h-5.44c-0.22,0-0.41-0.18-0.41-0.41c0-0.22,0.18-0.41,0.41-0.41h5.44
											c0.22,0,0.41,0.18,0.41,0.41C107.93,86.79,107.75,86.98,107.53,86.98z"/>
									</g>
								</g>
							</g>
						</g>
					</g>
				</g>
			</g>
		</g>
		<g>
			<g>
				<g>
					<path class="st7" d="M44.84,90.19c-0.2,0-0.39,0.04-0.57,0.09c-0.14-1-0.99-1.78-2.04-1.78c-0.97,0-1.77,0.67-1.99,1.56
						c-0.16-0.69-0.77-1.21-1.51-1.21c-0.81,0-1.46,0.62-1.53,1.41c-0.17-0.04-0.34-0.07-0.52-0.07c-1.13,0-2.05,0.92-2.05,2.05
						c0,1.09,0.85,1.98,1.93,2.04v0.01h8.27c1.13,0,2.05-0.92,2.05-2.05C46.89,91.11,45.98,90.19,44.84,90.19z"/>
				</g>
				<g>
					<path class="st0" d="M44.84,94.7h-8.27c-0.05,0-0.09-0.01-0.13-0.02c-1.25-0.12-2.21-1.17-2.21-2.43
						c0-1.42,1.22-2.58,2.66-2.44c0.25-0.79,0.99-1.35,1.85-1.35c0.59,0,1.13,0.26,1.49,0.69c0.45-0.64,1.19-1.04,2.01-1.04
						c1.07,0,2.02,0.71,2.34,1.71c1.48-0.19,2.72,1,2.72,2.44C47.3,93.6,46.2,94.7,44.84,94.7z M36.67,93.89h8.17
						c0.91,0,1.64-0.74,1.64-1.64c0-0.9-0.74-1.64-1.64-1.64c-0.14,0-0.28,0.02-0.45,0.07c-0.11,0.03-0.24,0.01-0.33-0.05
						c-0.1-0.06-0.17-0.17-0.18-0.28c-0.11-0.82-0.82-1.43-1.64-1.43c-0.76,0-1.42,0.52-1.6,1.26c-0.05,0.18-0.2,0.31-0.4,0.31
						c-0.19,0-0.35-0.13-0.39-0.32c-0.12-0.52-0.58-0.89-1.11-0.89c-0.59,0-1.07,0.45-1.13,1.04c-0.01,0.12-0.07,0.23-0.17,0.3
						c-0.1,0.07-0.22,0.09-0.34,0.06c-0.16-0.04-0.29-0.06-0.42-0.06c-0.9,0-1.64,0.74-1.64,1.64c0,0.87,0.68,1.58,1.55,1.63
						C36.62,93.88,36.64,93.88,36.67,93.89z"/>
				</g>
			</g>
			<g>
				<g>
					<rect x="36.09" y="94.29" class="st2" width="9.53" height="2.16"/>
				</g>
				<g>
					<path class="st0" d="M45.62,96.86h-9.53c-0.22,0-0.41-0.18-0.41-0.41v-2.16c0-0.22,0.18-0.41,0.41-0.41h9.53
						c0.22,0,0.41,0.18,0.41,0.41v2.16C46.03,96.67,45.84,96.86,45.62,96.86z M36.5,96.04h8.72V94.7H36.5V96.04z"/>
				</g>
			</g>
		</g>
		<g>
			<g>
				<g>
					<path class="st7" d="M130.19,90.19c-0.2,0-0.39,0.04-0.57,0.09c-0.14-1-0.99-1.78-2.04-1.78c-0.97,0-1.77,0.67-1.99,1.56
						c-0.16-0.69-0.77-1.21-1.51-1.21c-0.81,0-1.46,0.62-1.53,1.41c-0.17-0.04-0.34-0.07-0.52-0.07c-1.13,0-2.05,0.92-2.05,2.05
						c0,1.09,0.85,1.98,1.93,2.04v0.01h8.27c1.13,0,2.05-0.92,2.05-2.05C132.24,91.11,131.33,90.19,130.19,90.19z"/>
				</g>
				<g>
					<path class="st0" d="M130.19,94.7h-8.27c-0.05,0-0.09-0.01-0.13-0.02c-1.25-0.12-2.21-1.17-2.21-2.43
						c0-1.42,1.22-2.58,2.66-2.44c0.25-0.79,0.99-1.35,1.85-1.35c0.59,0,1.13,0.26,1.49,0.69c0.45-0.64,1.19-1.04,2.01-1.04
						c1.07,0,2.02,0.71,2.34,1.71c1.48-0.19,2.72,1,2.72,2.44C132.65,93.6,131.55,94.7,130.19,94.7z M122.02,93.89h8.17
						c0.91,0,1.64-0.74,1.64-1.64c0-0.9-0.74-1.64-1.64-1.64c-0.14,0-0.28,0.02-0.45,0.07c-0.11,0.03-0.24,0.01-0.33-0.05
						c-0.1-0.06-0.17-0.17-0.18-0.28c-0.11-0.82-0.82-1.43-1.64-1.43c-0.76,0-1.42,0.52-1.6,1.26c-0.05,0.18-0.23,0.31-0.4,0.31
						c-0.19,0-0.35-0.13-0.39-0.32c-0.12-0.52-0.58-0.89-1.11-0.89c-0.59,0-1.07,0.45-1.13,1.04c-0.01,0.12-0.07,0.23-0.17,0.3
						c-0.1,0.07-0.22,0.09-0.34,0.06c-0.16-0.04-0.29-0.06-0.42-0.06c-0.9,0-1.64,0.74-1.64,1.64c0,0.87,0.68,1.58,1.55,1.63
						C121.97,93.88,122,93.88,122.02,93.89z"/>
				</g>
			</g>
			<g>
				<g>
					<rect x="121.44" y="94.29" class="st2" width="9.53" height="2.16"/>
				</g>
				<g>
					<path class="st0" d="M130.97,96.86h-9.53c-0.22,0-0.41-0.18-0.41-0.41v-2.16c0-0.22,0.18-0.41,0.41-0.41h9.53
						c0.22,0,0.41,0.18,0.41,0.41v2.16C131.38,96.67,131.2,96.86,130.97,96.86z M121.85,96.04h8.72V94.7h-8.72V96.04z"/>
				</g>
			</g>
		</g>
		<g>
			<g>
				<g>
					<g>
						<path class="st7" d="M38.46,65.12c0,5.5-4.46,9.96-9.96,9.96s-9.96-4.46-9.96-9.96c0-5.5,4.46-9.96,9.96-9.96
							S38.46,59.62,38.46,65.12z"/>
					</g>
					<g>
						<path class="st0" d="M28.5,75.48c-5.71,0-10.36-4.65-10.36-10.36c0-5.71,4.65-10.36,10.36-10.36
							c5.72,0,10.36,4.65,10.36,10.36C38.87,70.83,34.22,75.48,28.5,75.48z M28.5,55.57c-5.27,0-9.55,4.29-9.55,9.55
							c0,5.27,4.28,9.55,9.55,9.55c5.27,0,9.55-4.28,9.55-9.55C38.05,59.85,33.77,55.57,28.5,55.57z"/>
					</g>
				</g>
				<g>
					<g>
						<path class="st7" d="M43.88,72.9c0,3.69-2.99,6.68-6.69,6.68c-3.69,0-6.69-2.99-6.69-6.68c0-3.69,2.99-6.69,6.69-6.69
							C40.89,66.21,43.88,69.2,43.88,72.9z"/>
					</g>
					<g>
						<path class="st0" d="M37.2,79.99c-3.91,0-7.09-3.18-7.09-7.09c0-3.91,3.18-7.09,7.09-7.09c3.91,0,7.09,3.18,7.09,7.09
							C44.29,76.81,41.11,79.99,37.2,79.99z M37.2,66.62c-3.46,0-6.28,2.82-6.28,6.28c0,3.46,2.82,6.28,6.28,6.28
							c3.46,0,6.28-2.82,6.28-6.28C43.48,69.43,40.66,66.62,37.2,66.62z"/>
					</g>
				</g>
			</g>
			<g>
				<path class="st0" d="M28.81,92.63c-0.22,0-0.41-0.18-0.41-0.41V68.59c0-0.22,0.18-0.41,0.41-0.41c0.22,0,0.41,0.18,0.41,0.41
					v23.64C29.22,92.45,29.04,92.63,28.81,92.63z"/>
			</g>
			<g>
				<path class="st0" d="M29,81.17c-0.11,0-0.22-0.05-0.3-0.14c-0.15-0.17-0.13-0.43,0.04-0.57l6.05-5.34
					c0.17-0.15,0.42-0.13,0.57,0.04c0.15,0.17,0.13,0.43-0.04,0.57l-6.05,5.34C29.19,81.14,29.09,81.17,29,81.17z"/>
			</g>
			<g>
				<path class="st0" d="M28.15,72.5c-4.05,0-7.35-3.3-7.35-7.35c0-4.05,3.3-7.35,7.35-7.35c0.22,0,0.41,0.18,0.41,0.41
					c0,0.22-0.18,0.41-0.41,0.41c-3.6,0-6.54,2.93-6.54,6.54c0,3.6,2.93,6.54,6.54,6.54c0.22,0,0.41,0.18,0.41,0.41
					C28.55,72.32,28.37,72.5,28.15,72.5z"/>
			</g>
			<g>
				<path class="st0" d="M38.32,78.23c-1.13,0-2.25-0.52-2.96-1.51c-0.13-0.18-0.09-0.44,0.09-0.57c0.18-0.13,0.44-0.09,0.57,0.09
					c0.92,1.27,2.71,1.55,3.97,0.63c1.27-0.92,1.55-2.7,0.63-3.97c-0.13-0.18-0.09-0.44,0.09-0.57c0.18-0.13,0.44-0.09,0.57,0.09
					c1.19,1.63,0.82,3.92-0.81,5.11C39.82,78,39.07,78.23,38.32,78.23z"/>
			</g>
			<g>
				<path class="st0" d="M28.9,85.03c-0.13,0-0.26-0.07-0.34-0.18l-4.88-7.52c-0.12-0.19-0.07-0.44,0.12-0.56
					c0.19-0.12,0.44-0.07,0.56,0.12l4.88,7.52c0.12,0.19,0.07,0.44-0.12,0.56C29.05,85.01,28.97,85.03,28.9,85.03z"/>
			</g>
			<g>
				<g>
					<circle class="st7" cx="23.51" cy="76.19" r="3.35"/>
				</g>
				<g>
					<path class="st0" d="M23.51,79.95c-2.07,0-3.76-1.69-3.76-3.76s1.69-3.76,3.76-3.76s3.76,1.69,3.76,3.76
						S25.58,79.95,23.51,79.95z M23.51,73.25c-1.63,0-2.95,1.32-2.95,2.95c0,1.63,1.32,2.95,2.95,2.95c1.62,0,2.95-1.32,2.95-2.95
						C26.46,74.57,25.14,73.25,23.51,73.25z"/>
				</g>
			</g>
		</g>
		<g>
			<g>
				<g>
					<g>
						<path class="st7" d="M146.85,69.54c0,5.04-4.09,9.13-9.13,9.13c-5.04,0-9.13-4.09-9.13-9.13c0-5.05,4.09-18.11,9.13-18.11
							C142.76,51.43,146.85,64.49,146.85,69.54z"/>
					</g>
					<g>
						<path class="st0" d="M137.71,79.08c-5.26,0-9.54-4.28-9.54-9.54c0-5.22,4.23-18.52,9.54-18.52c5.31,0,9.54,13.3,9.54,18.52
							C147.25,74.8,142.97,79.08,137.71,79.08z M137.71,51.83c-2,0-4.22,2.52-6.08,6.91c-1.74,4.09-2.64,8.52-2.64,10.79
							c0,4.81,3.92,8.73,8.73,8.73s8.73-3.92,8.73-8.73c0-2.26-0.91-6.7-2.64-10.79C141.93,54.35,139.72,51.83,137.71,51.83z"/>
					</g>
				</g>
			</g>
			<g>
				<g>
					<path class="st0" d="M143.31,67.52c-0.22,0-0.41-0.18-0.41-0.41c0-1.16-0.33-2.93-0.88-4.74c-0.98-3.24-2.84-7.02-4.85-7.02
						c-0.22,0-0.41-0.18-0.41-0.41c0-0.22,0.18-0.41,0.41-0.41c3.08,0,5.09,5.82,5.63,7.6c0.57,1.88,0.91,3.74,0.91,4.97
						C143.71,67.34,143.53,67.52,143.31,67.52z"/>
				</g>
			</g>
			<g>
				<path class="st0" d="M137.89,94.14c-0.22,0-0.41-0.18-0.41-0.41V67.73c0-0.22,0.18-0.41,0.41-0.41c0.22,0,0.41,0.18,0.41,0.41
					v26.01C138.3,93.96,138.11,94.14,137.89,94.14z"/>
			</g>
			<g>
				<path class="st0" d="M137.58,75.86c-0.12,0-0.23-0.05-0.31-0.15l-3.66-4.47c-0.14-0.17-0.12-0.43,0.06-0.57
					c0.17-0.14,0.43-0.12,0.57,0.06l3.66,4.47c0.14,0.17,0.12,0.43-0.06,0.57C137.77,75.83,137.67,75.86,137.58,75.86z"/>
			</g>
			<g>
				<path class="st0" d="M138.09,71.28c-0.09,0-0.19-0.03-0.27-0.1c-0.17-0.15-0.19-0.4-0.04-0.57l2.64-3.05
					c0.15-0.17,0.4-0.19,0.57-0.04c0.17,0.15,0.19,0.4,0.04,0.57l-2.64,3.05C138.32,71.24,138.21,71.28,138.09,71.28z"/>
			</g>
		</g>
		<g>
			<g>
				<path class="st0" d="M144.18,125h-7.07c-0.22,0-0.41-0.18-0.41-0.41c0-0.22,0.18-0.41,0.41-0.41h7.07
					c0.22,0,0.41,0.18,0.41,0.41C144.59,124.82,144.41,125,144.18,125z"/>
			</g>
		</g>
		<g>
			<g>
				<path class="st0" d="M132.64,125H38.11c-0.22,0-0.41-0.18-0.41-0.41c0-0.22,0.18-0.41,0.41-0.41h94.53
					c0.22,0,0.41,0.18,0.41,0.41C133.05,124.82,132.86,125,132.64,125z"/>
			</g>
		</g>
		<g>
			<g>
				<path class="st0" d="M34.32,125H25.5c-0.22,0-0.41-0.18-0.41-0.41c0-0.22,0.18-0.41,0.41-0.41h8.81c0.22,0,0.41,0.18,0.41,0.41
					C34.72,124.82,34.54,125,34.32,125z"/>
			</g>
		</g>
		<g>
			<g>
				<g>
					<g>
						<path class="st7" d="M160.67,73.6c0,5.04-4.09,9.13-9.13,9.13c-5.04,0-9.13-4.09-9.13-9.13c0-5.05,4.09-18.11,9.13-18.11
							C156.58,55.49,160.67,68.55,160.67,73.6z"/>
					</g>
					<g>
						<path class="st0" d="M151.53,83.14c-5.26,0-9.54-4.28-9.54-9.54c0-5.22,4.23-18.52,9.54-18.52c5.31,0,9.54,13.3,9.54,18.52
							C161.07,78.86,156.79,83.14,151.53,83.14z M151.53,55.9c-2,0-4.22,2.52-6.08,6.91c-1.74,4.09-2.64,8.52-2.64,10.79
							c0,4.81,3.92,8.73,8.73,8.73s8.73-3.92,8.73-8.73c0-2.26-0.91-6.7-2.64-10.79C155.75,58.42,153.54,55.9,151.53,55.9z"/>
					</g>
				</g>
			</g>
			<g>
				<g>
					<path class="st0" d="M152.87,80.35c-0.22,0-0.41-0.18-0.41-0.41c0-0.22,0.18-0.41,0.41-0.41c1.18,0,2.31-0.36,3.28-1.04
						c1.51-1.07,2.41-2.81,2.41-4.65c0-1.64-0.65-4.41-1.58-6.73c-0.08-0.21,0.02-0.44,0.23-0.53c0.2-0.08,0.44,0.02,0.53,0.23
						c0.97,2.41,1.64,5.3,1.64,7.03c0,2.11-1.03,4.1-2.76,5.32C155.51,79.94,154.22,80.35,152.87,80.35z"/>
				</g>
			</g>
			<g>
				<path class="st0" d="M151.71,98.21c-0.22,0-0.41-0.18-0.41-0.41V67.56c0-0.22,0.18-0.41,0.41-0.41c0.22,0,0.41,0.18,0.41,0.41
					V97.8C152.11,98.03,151.93,98.21,151.71,98.21z"/>
			</g>
			<g>
				<path class="st0" d="M151.57,77.85c-0.15,0-0.29-0.08-0.36-0.22l-3.25-6.23c-0.1-0.2-0.03-0.44,0.17-0.55
					c0.2-0.1,0.44-0.03,0.55,0.17l3.25,6.23c0.1,0.2,0.03,0.44-0.17,0.55C151.7,77.84,151.64,77.85,151.57,77.85z"/>
			</g>
			<g>
				<path class="st0" d="M151.71,75.28c-0.06,0-0.11-0.01-0.17-0.04c-0.2-0.09-0.3-0.33-0.2-0.54l3.25-7.18
					c0.09-0.2,0.33-0.3,0.54-0.2c0.2,0.09,0.3,0.33,0.2,0.54l-3.25,7.18C152.01,75.19,151.86,75.28,151.71,75.28z"/>
			</g>
		</g>
	</g>
</g>
</svg>
