<svg id="Group_39980" data-name="Group 39980" xmlns="http://www.w3.org/2000/svg" xmlns:xlink="http://www.w3.org/1999/xlink" width="15" height="15" viewBox="0 0 15 15">
  <defs>
    <clipPath id="clip-path">
      <rect id="Rectangle_23083" data-name="Rectangle 23083" width="15" height="15" fill="#393939"/>
    </clipPath>
  </defs>
  <g id="Group_39979" data-name="Group 39979" clip-path="url(#clip-path)">
    <path id="Path_76649" data-name="Path 76649" d="M.44,13.18A.439.439,0,0,0,0,13.62v4.236a.439.439,0,0,0,.44.44H1.946V13.18Z" transform="translate(0 -3.295)" fill="#393939"/>
    <path id="Path_76650" data-name="Path 76650" d="M18.912,13.18H17.406v5.115h1.506a.439.439,0,0,0,.44-.44V13.62a.439.439,0,0,0-.44-.439" transform="translate(-4.351 -3.295)" fill="#393939"/>
    <path id="Path_76651" data-name="Path 76651" d="M13.487,5.217,8.567,2.98V1.349H10.01A.439.439,0,0,0,10.45.91V.44A.439.439,0,0,0,10.01,0H8.128a.439.439,0,0,0-.44.44V2.98L2.768,5.217a.44.44,0,0,0,.364.8l.32-.146V14.56a.44.44,0,0,0,.44.44H6.276V11.736a.44.44,0,0,1,.439-.44H9.54a.44.44,0,0,1,.439.44V15h2.384a.44.44,0,0,0,.439-.44V5.872l.32.146a.447.447,0,0,0,.181.039.439.439,0,0,0,.182-.839M8.128,9.385A1.851,1.851,0,1,1,9.979,7.533,1.854,1.854,0,0,1,8.128,9.385" transform="translate(-0.628)" fill="#393939"/>
  </g>
</svg>
