<svg id="Group_618" data-name="Group 618" xmlns="http://www.w3.org/2000/svg" xmlns:xlink="http://www.w3.org/1999/xlink" width="137.962" height="60" viewBox="0 0 137.962 60">
  <defs>
    <clipPath id="clip-path">
      <rect id="Rectangle_2049" data-name="Rectangle 2049" width="137.962" height="60" fill="none"/>
    </clipPath>
  </defs>
  <g id="Group_617" data-name="Group 617" clip-path="url(#clip-path)">
    <path id="Path_1071" data-name="Path 1071" d="M30,0A30,30,0,1,1,2.285,18.52,30,30,0,0,1,30,0" transform="translate(0)" fill="red" fill-rule="evenodd"/>
    <path id="Path_1072" data-name="Path 1072" d="M58.644,47.778c-.658-.238-.212-.365-1.334-1-1.19-.675-2.627-.5-4.171-.5a4.7,4.7,0,0,0-3.467,1.537,5.156,5.156,0,0,0-1.369,3.8v7c0,2.935,1.75,5.338,4.669,5.338,1.839,0,3.866.289,5.042-.962.52-.555.056-.331.63-.539,0,1.828-.618,1.5,3.836,1.5a.64.64,0,0,0,.666-.666V40.271c0-1.025-1.847-.666-3.836-.666-1,0-.666,2.023-.666,3.669ZM55.975,60.12c-3.876,0-3.17-.33-3.17-8.006,0-2.283,1.354-1.834,4-1.834,2.378,0,1.835,4.214,1.835,6.672,0,2.123-.508,3.168-2.669,3.168" transform="translate(-26.789 -21.931)" fill="#fff" fill-rule="evenodd"/>
    <path id="Path_1073" data-name="Path 1073" d="M10.1,59.831V67c0,7.079,8.033,5.338,14.012,5.338a10.2,10.2,0,0,0,.167-3c0-.4-.271-.489-.5-.833H18.44c-3.666,0-3.837.376-3.837-3H23.61a.641.641,0,0,0,.668-.666V59.664a5.009,5.009,0,0,0-5.338-5h-3.67A5.058,5.058,0,0,0,10.1,59.831M14.6,62c0-3-.338-3.5,3-3.5,2.624,0,2.168.974,2.168,4H15.1c-.383,0-.5-.117-.5-.5" transform="translate(-5.601 -30.315)" fill="#fff" fill-rule="evenodd"/>
    <path id="Path_1074" data-name="Path 1074" d="M89.5,55.251v12.01a4.735,4.735,0,0,0,4.67,5c3.022,0,3.619.308,5.338-1.667a5.22,5.22,0,0,0,.167,1.667c1.8,0,4.337.365,4.337-.666V55.251c0-1.024-1.849-.666-3.836-.666-.7,0-.684.6-.68,1.321l.012,6.352c0,5.3.493,6.171-3.669,6.171C93.355,68.428,94,65.852,94,62.09l.008-6.013c.023-1.86.053-1.493-3.845-1.493a.64.64,0,0,0-.667.666" transform="translate(-49.636 -30.239)" fill="#fff" fill-rule="evenodd"/>
    <path id="Path_1075" data-name="Path 1075" d="M242.111,39.915v23.24c0,.849,1.538.5,3.845.5,1.1,0,.669-3.026.669-4.014v-4.68L247.262,56c.265.442.388.726.647,1.194.465.837.865,1.491,1.34,2.338.442.791.865,1.419,1.277,2.234,1.215,2.392.785,1.895,5.294,1.895,1.5,0-.924-3.212-1.935-4.92-.3-.508-2.437-4.055-2.411-4.274.047-.418,4.682-7.4,4.682-8.026,0-.861-1.653-.5-4.014-.5-1.28,0-2.018,2.215-2.957,3.9-.44.787-.873,1.423-1.281,2.231l-.885,1.622c-.113.2-.068.139-.183.32-.192.3-.061.117-.211.291v-11.7c0-3.862.724-3.345-3.845-3.345a.644.644,0,0,0-.67.67" transform="translate(-134.277 -21.753)" fill="#1b1918" fill-rule="evenodd"/>
    <path id="Path_1076" data-name="Path 1076" d="M277.771,59.776v6.688c0,7.267,7.7,5.517,14.045,5.517a8.565,8.565,0,0,0,0-3.678c-3.711-.865-9.53,1.093-9.53-1.5V65.126h9.029a.643.643,0,0,0,.668-.67V59.275c0-3-2.31-5.016-5.35-5.016-2.443,0-5.762-.362-7.479,1.549a5.99,5.99,0,0,0-1.383,3.968m4.515,1.839c0-3.269-.265-3.511,3.344-3.511,2.335,0,2.006,1.59,2.006,3.511,0,.384-.115.5-.5.5h-4.346c-.386,0-.5-.117-.5-.5" transform="translate(-154.054 -30.077)" fill="#1b1918" fill-rule="evenodd"/>
    <path id="Path_1077" data-name="Path 1077" d="M201.5,60.577c0,4.219-.966,11.37,5.016,11.37h4.68c3.088,0,5.016-2.544,5.016-5.684V59.909c0-3.177-2.055-5.684-5.183-5.684-3.683,0-6.147-.543-8.234,1.8a6.617,6.617,0,0,0-1.294,4.557m4.513,5.183c0-7.434-.666-7.69,3.344-7.69,1.468,0,2.34.338,2.34,1.839v6.354c0,2.21-1.761,1.839-3.845,1.839-1.5,0-1.839-.873-1.839-2.341" transform="translate(-111.722 -30.043)" fill="#1b1918" fill-rule="evenodd"/>
    <path id="Path_1078" data-name="Path 1078" d="M139.609,58.2c0,1.743-.094,2.516,1.126,3.723,2.281,2.255,7.067,3.7,7.067,4.971,0,1.709-1.359,1.338-4.181,1.338-4.517,0-4.012-.518-4.012,2.674,0,.515.155,1,.67,1h7.69a4.213,4.213,0,0,0,4.514-4.514c0-3.635-2.512-4.4-5.924-6.448-1.282-.771-2.269-1.105-2.269-2.246,0-1.8,7.189.466,7.189-1.338,0-1.656.308-3.175-.668-3.175-3.144,0-7.883-.518-9.823,1.046a4.26,4.26,0,0,0-1.38,2.966" transform="translate(-77.419 -30.009)" fill="#1b1918" fill-rule="evenodd"/>
    <path id="Path_1079" data-name="Path 1079" d="M171.13,49.339a11.244,11.244,0,0,0,.169,3.177c.6.012.952.167,2.34.167v8.36c0,5.889,5.306,5.35,8.527,5.35a11.309,11.309,0,0,0,.167-3.177c0-1.606-4.179.529-4.179-2.34V52.683h2.173c.84,0,.748-.151,1.5-.167A11.313,11.313,0,0,0,182,49.339c0-1.136-1.987-.524-3.194-.651-2.091-.223,1.164-4.532-2.156-4.532-3.436,0-3.057-.026-3,3.015.021,1.162.263,1.484-.825,1.515-.812.023-1.689-.205-1.689.653" transform="translate(-94.897 -24.489)" fill="#1b1918" fill-rule="evenodd"/>
  </g>
</svg>
