<?xml version="1.0" encoding="utf-8"?>
<!-- Generator: Adobe Illustrator 26.3.1, SVG Export Plug-In . SVG Version: 6.00 Build 0)  -->
<svg version="1.1" id="Layer_1" xmlns="http://www.w3.org/2000/svg" xmlns:xlink="http://www.w3.org/1999/xlink" x="0px" y="0px"
	 viewBox="0 0 220 130" style="enable-background:new 0 0 220 130;" xml:space="preserve">
<style type="text/css">
	.st0{fill:#1B1918;}
	.st1{fill:#2F914D;}
	.st2{fill:#FFFFFF;}
	.st3{fill:#323232;}
	.st4{fill:#FF0000;}
	.st5{fill:#6B6B6B;}
	.st6{fill:#FFC203;}
	.st7{fill:#58BD7D;}
	.st8{fill:#FFB948;}
	.st9{fill:#FF7171;}
	.st10{fill:#ED443A;}
	.st11{fill:#EBF3FA;}
	.st12{fill:#FFB27D;}
	.st13{fill:#2C3A64;}
	.st14{fill:#2B478B;}
	.st15{fill:#233862;}
	.st16{fill:#ED985F;}
	.st17{fill:#F99746;}
	.st18{fill:#ED7D2B;}
	.st19{fill:#F0995E;}
	.st20{fill:#FFB93E;}
	.st21{fill:#ED9E20;}
	.st22{fill:#E3A330;}
	.st23{fill:#2E3552;}
	.st24{fill:#D2E3FC;}
	.st25{fill:#B7D3F3;}
	.st26{fill:#FFF3F3;}
	.st27{opacity:0.1;clip-path:url(#SVGID_00000098917795611893591200000005794216112304987296_);}
	.st28{fill:#020202;}
	.st29{fill:#FFC5BB;}
	.st30{fill:#FFBCB3;}
	.st31{fill:#00A5A5;}
	.st32{fill:#EA2D2D;}
	.st33{fill:#230D42;}
	.st34{fill:#321851;}
	.st35{fill:#FFAFA4;}
	.st36{fill:#990000;}
	.st37{fill:#0E031E;}
	.st38{fill:#161616;}
	.st39{fill:#00C2CC;}
	.st40{fill:#1F0B38;}
	.st41{fill:#7C35C3;}
	.st42{fill:#FFB6AE;}
	.st43{fill:#191919;}
	.st44{fill:#562391;}
	.st45{fill:#180A2D;}
	.st46{fill:#111111;}
	.st47{fill:#FE7893;}
	.st48{fill:#282828;}
	.st49{opacity:0.1;clip-path:url(#SVGID_00000031203828598379258840000015054509860863621533_);}
</style>
<g>
	<g>
		<g>
			<g>
				<path class="st0" d="M165.6,125.03h-6.79c-0.22,0-0.39-0.17-0.39-0.39s0.17-0.39,0.39-0.39h6.79c0.22,0,0.39,0.17,0.39,0.39
					S165.82,125.03,165.6,125.03z"/>
			</g>
		</g>
		<g>
			<g>
				<path class="st0" d="M154.52,125.03H63.77c-0.22,0-0.39-0.17-0.39-0.39s0.17-0.39,0.39-0.39h90.75c0.22,0,0.39,0.17,0.39,0.39
					S154.73,125.03,154.52,125.03z"/>
			</g>
		</g>
		<g>
			<g>
				<path class="st0" d="M60.13,125.03h-8.46c-0.22,0-0.39-0.17-0.39-0.39s0.17-0.39,0.39-0.39h8.46c0.22,0,0.39,0.17,0.39,0.39
					S60.34,125.03,60.13,125.03z"/>
			</g>
		</g>
	</g>
	<g>
		<g>
			<path class="st0" d="M72.67,118.27H20.51c-0.22,0-0.39-0.17-0.39-0.39c0-0.22,0.17-0.39,0.39-0.39h52.16
				c0.22,0,0.39,0.17,0.39,0.39C73.06,118.1,72.89,118.27,72.67,118.27z"/>
		</g>
		<g>
			<path class="st0" d="M201.7,118.27h-52.16c-0.22,0-0.39-0.17-0.39-0.39c0-0.22,0.17-0.39,0.39-0.39h52.16
				c0.22,0,0.39,0.17,0.39,0.39C202.09,118.1,201.91,118.27,201.7,118.27z"/>
		</g>
		<g>
			<path class="st0" d="M81.58,118.27h-5.66c-0.22,0-0.39-0.17-0.39-0.39c0-0.22,0.17-0.39,0.39-0.39h5.66
				c0.22,0,0.39,0.17,0.39,0.39C81.97,118.1,81.8,118.27,81.58,118.27z"/>
		</g>
		<g>
			<path class="st0" d="M137.57,118.27h-14.05c-1.51,0-2.73-1.23-2.73-2.73v-11.27c0-1.08-0.88-1.95-1.95-1.95h-18.5
				c-1.08,0-1.95,0.87-1.95,1.95v11.03c0,1.51-1.23,2.97-2.73,2.97H84.77c-0.22,0-0.39-0.17-0.39-0.39c0-0.22,0.17-0.39,0.39-0.39
				h10.88c1.08,0,1.95-1.11,1.95-2.19v-11.03c0-1.51,1.23-2.73,2.73-2.73h18.5c1.51,0,2.73,1.23,2.73,2.73v11.27
				c0,1.08,0.88,1.95,1.95,1.95h14.05c0.22,0,0.39,0.17,0.39,0.39C137.96,118.1,137.78,118.27,137.57,118.27z"/>
		</g>
		<g>
			<path class="st0" d="M146.41,118.27h-5.72c-0.22,0-0.39-0.17-0.39-0.39c0-0.22,0.17-0.39,0.39-0.39h5.72
				c0.22,0,0.39,0.17,0.39,0.39C146.8,118.1,146.63,118.27,146.41,118.27z"/>
		</g>
	</g>
	<g>
		<g>
			<path class="st1" d="M206.89,90.94c-1.5,0-2.72-1.04-2.72-2.33v-1.77c0-1.29-1.22-2.33-2.72-2.33H18.56
				c-1.5,0-2.72,1.04-2.72,2.33v1.77c0,1.29-1.22,2.33-2.72,2.33c-1.5,0-2.72,1.04-2.72,2.33v4.52v0.11v10.52
				c0,1.92,1.83,3.49,4.07,3.49h191.07c2.24,0,4.08-1.57,4.08-3.49V97.9v-0.11v-4.52C209.61,91.98,208.39,90.94,206.89,90.94z"/>
		</g>
		<g>
			<path class="st0" d="M205.53,112.29H14.46c-2.46,0-4.46-1.74-4.46-3.88V93.27c0-1.5,1.4-2.72,3.11-2.72
				c1.29,0,2.33-0.87,2.33-1.94v-1.77c0-1.5,1.4-2.72,3.11-2.72h182.87c1.72,0,3.11,1.22,3.11,2.72v1.77c0,1.07,1.05,1.94,2.33,1.94
				c1.72,0,3.11,1.22,3.11,2.72v15.15C210,110.55,208,112.29,205.53,112.29z M18.56,84.9c-1.29,0-2.33,0.87-2.33,1.94v1.77
				c0,1.5-1.4,2.72-3.12,2.72c-1.29,0-2.33,0.87-2.33,1.94v15.15c0,1.71,1.65,3.1,3.68,3.1h191.07c2.03,0,3.69-1.39,3.69-3.1V93.27
				c0-1.07-1.05-1.94-2.33-1.94c-1.72,0-3.12-1.22-3.12-2.72v-1.77c0-1.07-1.05-1.94-2.33-1.94H18.56z"/>
		</g>
	</g>
	<g>
		<g>
			<g>
				<path class="st0" d="M109.91,13.62c-0.22,0-0.39-0.17-0.39-0.39V5.82c0-0.22,0.17-0.39,0.39-0.39s0.39,0.17,0.39,0.39v7.41
					C110.3,13.45,110.12,13.62,109.91,13.62z"/>
			</g>
			<g>
				<g>
					<polygon class="st4" points="117.09,7.94 109.46,7.94 109.46,5.36 117.09,5.36 115.93,6.73 					"/>
				</g>
				<g>
					<path class="st0" d="M117.09,8.33h-7.63c-0.22,0-0.39-0.17-0.39-0.39V5.36c0-0.22,0.17-0.39,0.39-0.39h7.63
						c0.15,0,0.29,0.09,0.35,0.23c0.06,0.14,0.04,0.3-0.06,0.42l-0.94,1.11l0.92,0.95c0.11,0.11,0.14,0.28,0.08,0.42
						C117.39,8.24,117.24,8.33,117.09,8.33z M109.85,7.55h6.32l-0.53-0.55c-0.14-0.14-0.15-0.37-0.02-0.52l0.62-0.74h-6.4V7.55z"/>
				</g>
			</g>
		</g>
		<g>
			<path class="st8" d="M110.59,86.03c0,0.41-0.33,0.74-0.74,0.74c-0.41,0-0.74-0.33-0.74-0.74c0-0.41,0.33-0.75,0.74-0.75
				C110.26,85.28,110.59,85.62,110.59,86.03z"/>
		</g>
		<g>
			<path class="st8" d="M110.6,85.63c0,0.41-0.33,0.75-0.75,0.75c-0.41,0-0.75-0.34-0.75-0.75c0-0.41,0.34-0.75,0.75-0.75
				C110.26,84.89,110.6,85.22,110.6,85.63z"/>
		</g>
		<g>
			<g>
				<g>
					<rect x="38.44" y="49.51" class="st2" width="59.3" height="46.09"/>
				</g>
				<g>
					<path class="st0" d="M97.75,95.99h-59.3c-0.22,0-0.39-0.17-0.39-0.39V49.51c0-0.22,0.17-0.39,0.39-0.39h59.3
						c0.22,0,0.39,0.17,0.39,0.39V95.6C98.14,95.81,97.96,95.99,97.75,95.99z M38.83,95.21h58.52V49.9H38.83V95.21z"/>
				</g>
			</g>
			<g>
				<g>
					<polygon class="st4" points="97.75,50.08 34.12,50.08 39.14,35.03 97.75,35.03 					"/>
				</g>
				<g>
					<path class="st0" d="M97.75,50.47H34.12c-0.13,0-0.24-0.06-0.32-0.16c-0.07-0.1-0.09-0.23-0.05-0.35l5.02-15.05
						c0.05-0.16,0.2-0.27,0.37-0.27h58.61c0.22,0,0.39,0.17,0.39,0.39v15.05C98.14,50.29,97.96,50.47,97.75,50.47z M34.67,49.69
						h62.69V35.42H39.42L34.67,49.69z"/>
				</g>
			</g>
			<g>
				<path class="st0" d="M96.94,45.47H35.82c-0.22,0-0.39-0.17-0.39-0.39s0.17-0.39,0.39-0.39h61.12c0.22,0,0.39,0.17,0.39,0.39
					S97.15,45.47,96.94,45.47z"/>
			</g>
			<g>
				<g>
					<g>
						<g>
							<path class="st5" d="M51.11,78.15c-0.18-1.9-1.84-3.4-3.9-3.4c-2.06,0-3.73,1.5-3.91,3.4h-0.04v10.41h7.89V78.15H51.11z"/>
						</g>
						<g>
							<path class="st0" d="M51.15,88.96h-7.89c-0.22,0-0.39-0.17-0.39-0.39V78.15c0-0.08,0.02-0.15,0.06-0.21
								c0.28-2.06,2.09-3.58,4.28-3.58c2.19,0,3.99,1.53,4.27,3.58c0.04,0.06,0.06,0.13,0.06,0.21v10.41
								C51.54,88.78,51.37,88.96,51.15,88.96z M43.65,88.18h7.11v-9.86c-0.02-0.04-0.04-0.08-0.04-0.13
								c-0.16-1.74-1.67-3.05-3.52-3.05c-1.85,0-3.36,1.31-3.52,3.05c0,0.05-0.02,0.09-0.04,0.13V88.18z"/>
						</g>
					</g>
					<g>
						<rect x="46.82" y="74.75" class="st0" width="0.78" height="13.81"/>
					</g>
					<g>
						<rect x="43.56" y="81.95" class="st0" width="7.59" height="0.78"/>
					</g>
				</g>
				<g>
					<g>
						<g>
							<path class="st5" d="M65.06,78.15c-0.18-1.9-1.84-3.4-3.9-3.4c-2.06,0-3.73,1.5-3.91,3.4h-0.04v10.41h7.89V78.15H65.06z"/>
						</g>
						<g>
							<path class="st0" d="M65.1,88.96h-7.89c-0.22,0-0.39-0.17-0.39-0.39V78.15c0-0.08,0.02-0.15,0.06-0.21
								c0.28-2.06,2.09-3.58,4.28-3.58c2.19,0,3.99,1.53,4.27,3.58c0.04,0.06,0.06,0.13,0.06,0.21v10.41
								C65.49,88.78,65.32,88.96,65.1,88.96z M57.6,88.18h7.11v-9.86c-0.02-0.04-0.04-0.08-0.04-0.13
								c-0.16-1.74-1.67-3.05-3.52-3.05c-1.85,0-3.36,1.31-3.52,3.05c0,0.05-0.02,0.09-0.04,0.13V88.18z"/>
						</g>
					</g>
					<g>
						<rect x="60.77" y="74.75" class="st0" width="0.78" height="13.81"/>
					</g>
					<g>
						<rect x="57.51" y="81.95" class="st0" width="7.59" height="0.78"/>
					</g>
				</g>
				<g>
					<g>
						<g>
							<path class="st5" d="M79.01,78.15c-0.18-1.9-1.84-3.4-3.9-3.4c-2.06,0-3.73,1.5-3.91,3.4h-0.04v10.41h7.89V78.15H79.01z"/>
						</g>
						<g>
							<path class="st0" d="M79.05,88.96h-7.89c-0.22,0-0.39-0.17-0.39-0.39V78.15c0-0.08,0.02-0.15,0.06-0.21
								c0.28-2.06,2.09-3.58,4.28-3.58c2.19,0,3.99,1.53,4.27,3.58c0.04,0.06,0.06,0.13,0.06,0.21v10.41
								C79.44,88.78,79.27,88.96,79.05,88.96z M71.55,88.18h7.11v-9.86c-0.02-0.04-0.04-0.08-0.04-0.13
								c-0.16-1.74-1.67-3.05-3.52-3.05c-1.85,0-3.36,1.31-3.52,3.05c0,0.05-0.02,0.09-0.04,0.13V88.18z"/>
						</g>
					</g>
					<g>
						<rect x="74.72" y="74.75" class="st0" width="0.78" height="13.81"/>
					</g>
					<g>
						<rect x="71.46" y="81.95" class="st0" width="7.59" height="0.78"/>
					</g>
				</g>
				<g>
					<g>
						<g>
							<path class="st5" d="M92.96,78.15c-0.18-1.9-1.84-3.4-3.9-3.4c-2.06,0-3.73,1.5-3.91,3.4h-0.04v10.41H93V78.15H92.96z"/>
						</g>
						<g>
							<path class="st0" d="M93,88.96h-7.89c-0.22,0-0.39-0.17-0.39-0.39V78.15c0-0.08,0.02-0.15,0.06-0.21
								c0.28-2.06,2.09-3.58,4.28-3.58c2.19,0,3.99,1.53,4.27,3.58c0.04,0.06,0.06,0.13,0.06,0.21v10.41
								C93.39,88.78,93.22,88.96,93,88.96z M85.5,88.18h7.11v-9.86c-0.02-0.04-0.04-0.08-0.04-0.13c-0.16-1.74-1.67-3.05-3.52-3.05
								c-1.85,0-3.36,1.31-3.52,3.05c0,0.05-0.02,0.09-0.04,0.13V88.18z"/>
						</g>
					</g>
					<g>
						<rect x="88.66" y="74.75" class="st0" width="0.78" height="13.81"/>
					</g>
					<g>
						<rect x="85.41" y="81.95" class="st0" width="7.59" height="0.78"/>
					</g>
				</g>
			</g>
			<g>
				<g>
					<g>
						<g>
							<path class="st5" d="M51.11,57.3c-0.18-1.9-1.84-3.4-3.9-3.4c-2.06,0-3.73,1.5-3.91,3.4h-0.04v10.41h7.89V57.3H51.11z"/>
						</g>
						<g>
							<path class="st0" d="M51.15,68.1h-7.89c-0.22,0-0.39-0.17-0.39-0.39V57.3c0-0.08,0.02-0.15,0.06-0.21
								c0.28-2.06,2.09-3.58,4.28-3.58c2.19,0,3.99,1.53,4.27,3.58c0.04,0.06,0.06,0.13,0.06,0.21v10.41
								C51.54,67.92,51.37,68.1,51.15,68.1z M43.65,67.32h7.11v-9.86c-0.02-0.04-0.04-0.08-0.04-0.13
								c-0.16-1.74-1.67-3.05-3.52-3.05c-1.85,0-3.36,1.31-3.52,3.05c0,0.05-0.02,0.09-0.04,0.13V67.32z"/>
						</g>
					</g>
					<g>
						<rect x="46.82" y="53.9" class="st0" width="0.78" height="13.81"/>
					</g>
					<g>
						<rect x="43.56" y="61.09" class="st0" width="7.59" height="0.78"/>
					</g>
				</g>
				<g>
					<g>
						<g>
							<path class="st5" d="M65.06,57.3c-0.18-1.9-1.84-3.4-3.9-3.4c-2.06,0-3.73,1.5-3.91,3.4h-0.04v10.41h7.89V57.3H65.06z"/>
						</g>
						<g>
							<path class="st0" d="M65.1,68.1h-7.89c-0.22,0-0.39-0.17-0.39-0.39V57.3c0-0.08,0.02-0.15,0.06-0.21
								c0.28-2.06,2.09-3.58,4.28-3.58c2.19,0,3.99,1.53,4.27,3.58c0.04,0.06,0.06,0.13,0.06,0.21v10.41
								C65.49,67.92,65.32,68.1,65.1,68.1z M57.6,67.32h7.11v-9.86c-0.02-0.04-0.04-0.08-0.04-0.13c-0.16-1.74-1.67-3.05-3.52-3.05
								c-1.85,0-3.36,1.31-3.52,3.05c0,0.05-0.02,0.09-0.04,0.13V67.32z"/>
						</g>
					</g>
					<g>
						<rect x="60.77" y="53.9" class="st0" width="0.78" height="13.81"/>
					</g>
					<g>
						<rect x="57.51" y="61.09" class="st0" width="7.59" height="0.78"/>
					</g>
				</g>
				<g>
					<g>
						<g>
							<path class="st5" d="M79.01,57.3c-0.18-1.9-1.84-3.4-3.9-3.4c-2.06,0-3.73,1.5-3.91,3.4h-0.04v10.41h7.89V57.3H79.01z"/>
						</g>
						<g>
							<path class="st0" d="M79.05,68.1h-7.89c-0.22,0-0.39-0.17-0.39-0.39V57.3c0-0.08,0.02-0.15,0.06-0.21
								c0.28-2.06,2.09-3.58,4.28-3.58c2.19,0,3.99,1.53,4.27,3.58c0.04,0.06,0.06,0.13,0.06,0.21v10.41
								C79.44,67.92,79.27,68.1,79.05,68.1z M71.55,67.32h7.11v-9.86c-0.02-0.04-0.04-0.08-0.04-0.13
								c-0.16-1.74-1.67-3.05-3.52-3.05c-1.85,0-3.36,1.31-3.52,3.05c0,0.05-0.02,0.09-0.04,0.13V67.32z"/>
						</g>
					</g>
					<g>
						<rect x="74.72" y="53.9" class="st0" width="0.78" height="13.81"/>
					</g>
					<g>
						<rect x="71.46" y="61.09" class="st0" width="7.59" height="0.78"/>
					</g>
				</g>
				<g>
					<g>
						<g>
							<path class="st5" d="M92.96,57.3c-0.18-1.9-1.84-3.4-3.9-3.4c-2.06,0-3.73,1.5-3.91,3.4h-0.04v10.41H93V57.3H92.96z"/>
						</g>
						<g>
							<path class="st0" d="M93,68.1h-7.89c-0.22,0-0.39-0.17-0.39-0.39V57.3c0-0.08,0.02-0.15,0.06-0.21
								c0.28-2.06,2.09-3.58,4.28-3.58c2.19,0,3.99,1.53,4.27,3.58c0.04,0.06,0.06,0.13,0.06,0.21v10.41
								C93.39,67.92,93.22,68.1,93,68.1z M85.5,67.32h7.11v-9.86c-0.02-0.04-0.04-0.08-0.04-0.13c-0.16-1.74-1.67-3.05-3.52-3.05
								c-1.85,0-3.36,1.31-3.52,3.05c0,0.05-0.02,0.09-0.04,0.13V67.32z"/>
						</g>
					</g>
					<g>
						<rect x="88.66" y="53.9" class="st0" width="0.78" height="13.81"/>
					</g>
					<g>
						<rect x="85.41" y="61.09" class="st0" width="7.59" height="0.78"/>
					</g>
				</g>
			</g>
		</g>
		<g>
			<g>
				<g>
					<rect x="121.94" y="49.51" class="st2" width="59.3" height="46.09"/>
				</g>
				<g>
					<path class="st0" d="M121.55,95.6V49.51c0-0.22,0.17-0.39,0.39-0.39h59.3c0.22,0,0.39,0.17,0.39,0.39V95.6
						c0,0.22-0.17,0.39-0.39,0.39h-59.3C121.73,95.99,121.55,95.81,121.55,95.6z M180.86,49.9h-58.52v45.31h58.52V49.9z"/>
				</g>
			</g>
			<g>
				<g>
					<polygon class="st4" points="121.94,50.08 185.57,50.08 180.55,35.03 121.94,35.03 					"/>
				</g>
				<g>
					<path class="st0" d="M121.55,50.08V35.03c0-0.22,0.17-0.39,0.39-0.39h58.61c0.17,0,0.32,0.11,0.37,0.27l5.02,15.05
						c0.04,0.12,0.02,0.25-0.05,0.35c-0.07,0.1-0.19,0.16-0.32,0.16h-63.62C121.73,50.47,121.55,50.29,121.55,50.08z M180.27,35.42
						h-57.94v14.27h62.69L180.27,35.42z"/>
				</g>
			</g>
			<g>
				<path class="st0" d="M122.75,45.47h61.12c0.22,0,0.39-0.17,0.39-0.39s-0.17-0.39-0.39-0.39h-61.12c-0.22,0-0.39,0.17-0.39,0.39
					S122.54,45.47,122.75,45.47z"/>
			</g>
			<g>
				<g>
					<g>
						<g>
							<path class="st5" d="M168.58,78.15c0.18-1.9,1.84-3.4,3.9-3.4c2.06,0,3.73,1.5,3.91,3.4h0.04v10.41h-7.89V78.15H168.58z"/>
						</g>
						<g>
							<path class="st0" d="M168.15,88.57V78.15c0-0.08,0.02-0.15,0.06-0.21c0.28-2.05,2.09-3.58,4.27-3.58c2.19,0,4,1.53,4.28,3.58
								c0.04,0.06,0.06,0.13,0.06,0.21v10.41c0,0.22-0.17,0.39-0.39,0.39h-7.89C168.32,88.96,168.15,88.78,168.15,88.57z
								 M176.04,78.32c-0.02-0.04-0.03-0.08-0.04-0.13c-0.16-1.74-1.67-3.05-3.52-3.05c-1.84,0-3.36,1.31-3.52,3.05
								c0,0.04-0.02,0.09-0.04,0.13v9.86h7.11V78.32z"/>
						</g>
					</g>
					<g>
						<rect x="172.09" y="74.75" class="st0" width="0.78" height="13.81"/>
					</g>
					<g>
						<rect x="168.54" y="81.95" class="st0" width="7.59" height="0.78"/>
					</g>
				</g>
				<g>
					<g>
						<g>
							<path class="st5" d="M154.63,78.15c0.18-1.9,1.84-3.4,3.9-3.4c2.06,0,3.73,1.5,3.91,3.4h0.04v10.41h-7.89V78.15H154.63z"/>
						</g>
						<g>
							<path class="st0" d="M154.2,88.57V78.15c0-0.08,0.02-0.15,0.06-0.21c0.28-2.05,2.09-3.58,4.27-3.58c2.19,0,4,1.53,4.28,3.58
								c0.04,0.06,0.06,0.13,0.06,0.21v10.41c0,0.22-0.17,0.39-0.39,0.39h-7.89C154.37,88.96,154.2,88.78,154.2,88.57z
								 M162.09,78.32c-0.02-0.04-0.03-0.08-0.04-0.13c-0.16-1.74-1.67-3.05-3.52-3.05c-1.84,0-3.36,1.31-3.52,3.05
								c0,0.04-0.02,0.09-0.04,0.13v9.86h7.11V78.32z"/>
						</g>
					</g>
					<g>
						<rect x="158.14" y="74.75" class="st0" width="0.78" height="13.81"/>
					</g>
					<g>
						<rect x="154.59" y="81.95" class="st0" width="7.59" height="0.78"/>
					</g>
				</g>
				<g>
					<g>
						<g>
							<path class="st5" d="M140.68,78.15c0.18-1.9,1.84-3.4,3.9-3.4c2.06,0,3.73,1.5,3.91,3.4h0.04v10.41h-7.89V78.15H140.68z"/>
						</g>
						<g>
							<path class="st0" d="M140.25,88.57V78.15c0-0.08,0.02-0.15,0.06-0.21c0.28-2.05,2.09-3.58,4.27-3.58c2.19,0,4,1.53,4.28,3.58
								c0.04,0.06,0.06,0.13,0.06,0.21v10.41c0,0.22-0.17,0.39-0.39,0.39h-7.89C140.42,88.96,140.25,88.78,140.25,88.57z
								 M148.14,78.32c-0.02-0.04-0.03-0.08-0.04-0.13c-0.16-1.74-1.67-3.05-3.52-3.05c-1.84,0-3.36,1.31-3.52,3.05
								c0,0.04-0.02,0.09-0.04,0.13v9.86h7.11V78.32z"/>
						</g>
					</g>
					<g>
						<rect x="144.19" y="74.75" class="st0" width="0.78" height="13.81"/>
					</g>
					<g>
						<rect x="140.64" y="81.95" class="st0" width="7.59" height="0.78"/>
					</g>
				</g>
				<g>
					<g>
						<g>
							<path class="st5" d="M126.73,78.15c0.18-1.9,1.84-3.4,3.9-3.4c2.06,0,3.73,1.5,3.91,3.4h0.04v10.41h-7.89V78.15H126.73z"/>
						</g>
						<g>
							<path class="st0" d="M126.3,88.57V78.15c0-0.08,0.02-0.15,0.06-0.21c0.28-2.05,2.09-3.58,4.27-3.58c2.19,0,4,1.53,4.28,3.58
								c0.04,0.06,0.06,0.13,0.06,0.21v10.41c0,0.22-0.17,0.39-0.39,0.39h-7.89C126.47,88.96,126.3,88.78,126.3,88.57z
								 M134.19,78.32c-0.02-0.04-0.03-0.08-0.04-0.13c-0.16-1.74-1.67-3.05-3.52-3.05c-1.84,0-3.36,1.31-3.52,3.05
								c0,0.04-0.02,0.09-0.04,0.13v9.86h7.11V78.32z"/>
						</g>
					</g>
					<g>
						<rect x="130.25" y="74.75" class="st0" width="0.78" height="13.81"/>
					</g>
					<g>
						<rect x="126.69" y="81.95" class="st0" width="7.59" height="0.78"/>
					</g>
				</g>
			</g>
			<g>
				<g>
					<g>
						<g>
							<path class="st5" d="M168.58,57.3c0.18-1.9,1.84-3.4,3.9-3.4c2.06,0,3.73,1.5,3.91,3.4h0.04v10.41h-7.89V57.3H168.58z"/>
						</g>
						<g>
							<path class="st0" d="M168.15,67.71V57.3c0-0.08,0.02-0.15,0.06-0.21c0.28-2.05,2.09-3.58,4.27-3.58c2.19,0,4,1.53,4.28,3.58
								c0.04,0.06,0.06,0.13,0.06,0.21v10.41c0,0.22-0.17,0.39-0.39,0.39h-7.89C168.32,68.1,168.15,67.92,168.15,67.71z
								 M176.04,57.46c-0.02-0.04-0.03-0.08-0.04-0.13c-0.16-1.74-1.67-3.05-3.52-3.05c-1.84,0-3.36,1.31-3.52,3.05
								c0,0.04-0.02,0.09-0.04,0.13v9.86h7.11V57.46z"/>
						</g>
					</g>
					<g>
						<rect x="172.09" y="53.9" class="st0" width="0.78" height="13.81"/>
					</g>
					<g>
						<rect x="168.54" y="61.09" class="st0" width="7.59" height="0.78"/>
					</g>
				</g>
				<g>
					<g>
						<g>
							<path class="st5" d="M154.63,57.3c0.18-1.9,1.84-3.4,3.9-3.4c2.06,0,3.73,1.5,3.91,3.4h0.04v10.41h-7.89V57.3H154.63z"/>
						</g>
						<g>
							<path class="st0" d="M154.2,67.71V57.3c0-0.08,0.02-0.15,0.06-0.21c0.28-2.05,2.09-3.58,4.27-3.58c2.19,0,4,1.53,4.28,3.58
								c0.04,0.06,0.06,0.13,0.06,0.21v10.41c0,0.22-0.17,0.39-0.39,0.39h-7.89C154.37,68.1,154.2,67.92,154.2,67.71z M162.09,57.46
								c-0.02-0.04-0.03-0.08-0.04-0.13c-0.16-1.74-1.67-3.05-3.52-3.05c-1.84,0-3.36,1.31-3.52,3.05c0,0.04-0.02,0.09-0.04,0.13
								v9.86h7.11V57.46z"/>
						</g>
					</g>
					<g>
						<rect x="158.14" y="53.9" class="st0" width="0.78" height="13.81"/>
					</g>
					<g>
						<rect x="154.59" y="61.09" class="st0" width="7.59" height="0.78"/>
					</g>
				</g>
				<g>
					<g>
						<g>
							<path class="st5" d="M140.68,57.3c0.18-1.9,1.84-3.4,3.9-3.4c2.06,0,3.73,1.5,3.91,3.4h0.04v10.41h-7.89V57.3H140.68z"/>
						</g>
						<g>
							<path class="st0" d="M140.25,67.71V57.3c0-0.08,0.02-0.15,0.06-0.21c0.28-2.05,2.09-3.58,4.27-3.58c2.19,0,4,1.53,4.28,3.58
								c0.04,0.06,0.06,0.13,0.06,0.21v10.41c0,0.22-0.17,0.39-0.39,0.39h-7.89C140.42,68.1,140.25,67.92,140.25,67.71z
								 M148.14,57.46c-0.02-0.04-0.03-0.08-0.04-0.13c-0.16-1.74-1.67-3.05-3.52-3.05c-1.84,0-3.36,1.31-3.52,3.05
								c0,0.04-0.02,0.09-0.04,0.13v9.86h7.11V57.46z"/>
						</g>
					</g>
					<g>
						<rect x="144.19" y="53.9" class="st0" width="0.78" height="13.81"/>
					</g>
					<g>
						<rect x="140.64" y="61.09" class="st0" width="7.59" height="0.78"/>
					</g>
				</g>
				<g>
					<g>
						<g>
							<path class="st5" d="M126.73,57.3c0.18-1.9,1.84-3.4,3.9-3.4c2.06,0,3.73,1.5,3.91,3.4h0.04v10.41h-7.89V57.3H126.73z"/>
						</g>
						<g>
							<path class="st0" d="M126.3,67.71V57.3c0-0.08,0.02-0.15,0.06-0.21c0.28-2.05,2.09-3.58,4.27-3.58c2.19,0,4,1.53,4.28,3.58
								c0.04,0.06,0.06,0.13,0.06,0.21v10.41c0,0.22-0.17,0.39-0.39,0.39h-7.89C126.47,68.1,126.3,67.92,126.3,67.71z M134.19,57.46
								c-0.02-0.04-0.03-0.08-0.04-0.13c-0.16-1.74-1.67-3.05-3.52-3.05c-1.84,0-3.36,1.31-3.52,3.05c0,0.04-0.02,0.09-0.04,0.13
								v9.86h7.11V57.46z"/>
						</g>
					</g>
					<g>
						<rect x="130.25" y="53.9" class="st0" width="0.78" height="13.81"/>
					</g>
					<g>
						<rect x="126.69" y="61.09" class="st0" width="7.59" height="0.78"/>
					</g>
				</g>
			</g>
		</g>
		<g>
			<g>
				<rect x="35.65" y="93.23" class="st3" width="61.98" height="3.72"/>
			</g>
			<g>
				<path class="st0" d="M97.63,97.34H35.65c-0.22,0-0.39-0.17-0.39-0.39v-3.72c0-0.22,0.17-0.39,0.39-0.39h61.98
					c0.22,0,0.39,0.17,0.39,0.39v3.72C98.02,97.16,97.85,97.34,97.63,97.34z M36.04,96.56h61.2v-2.94h-61.2V96.56z"/>
			</g>
		</g>
		<g>
			<g>
				<rect x="121.97" y="93.23" class="st3" width="61.98" height="3.72"/>
			</g>
			<g>
				<path class="st0" d="M183.95,97.34h-61.98c-0.22,0-0.39-0.17-0.39-0.39v-3.72c0-0.22,0.17-0.39,0.39-0.39h61.98
					c0.22,0,0.39,0.17,0.39,0.39v3.72C184.34,97.16,184.17,97.34,183.95,97.34z M122.36,96.56h61.2v-2.94h-61.2V96.56z"/>
			</g>
		</g>
		<g>
			<g>
				<polygon class="st2" points="121.97,97.83 97.73,97.83 97.73,31.14 109.89,18.69 121.97,31.14 				"/>
			</g>
			<g>
				<path class="st0" d="M121.97,98.22H97.73c-0.22,0-0.39-0.17-0.39-0.39V31.14c0-0.1,0.04-0.2,0.11-0.27l12.17-12.45
					c0.07-0.08,0.16-0.15,0.28-0.12c0.11,0,0.21,0.04,0.28,0.12l12.07,12.45c0.07,0.07,0.11,0.17,0.11,0.27v66.69
					C122.36,98.04,122.18,98.22,121.97,98.22z M98.12,97.44h23.46V31.3l-11.69-12.05L98.12,31.3V97.44z"/>
			</g>
		</g>
		<g>
			<g>
				<path class="st5" d="M115.05,33.56c0,2.87-2.33,5.2-5.2,5.2c-2.87,0-5.2-2.33-5.2-5.2c0-2.87,2.33-5.2,5.2-5.2
					C112.72,28.35,115.05,30.68,115.05,33.56z"/>
			</g>
			<g>
				<path class="st0" d="M109.85,39.14c-3.08,0-5.59-2.51-5.59-5.59c0-3.08,2.51-5.59,5.59-5.59c3.08,0,5.59,2.51,5.59,5.59
					C115.44,36.64,112.93,39.14,109.85,39.14z M109.85,28.74c-2.65,0-4.81,2.16-4.81,4.81c0,2.65,2.16,4.81,4.81,4.81
					c2.65,0,4.81-2.16,4.81-4.81C114.66,30.9,112.5,28.74,109.85,28.74z"/>
			</g>
		</g>
		<g>
			<g>
				<path class="st5" d="M115.22,80.82c0-3.91-2.41-7.08-5.37-7.08c-2.97,0-5.37,3.17-5.37,7.08c0,0.16,0,14.89,0,14.89h10.74
					C115.22,95.71,115.22,80.99,115.22,80.82z"/>
			</g>
			<g>
				<path class="st0" d="M109.85,73.74c2.96,0,5.37,3.17,5.37,7.08c0,0.16,0,14.89,0,14.89h-10.74c0,0,0-14.72,0-14.89
					C104.48,76.91,106.88,73.74,109.85,73.74L109.85,73.74z M109.85,72.96c-3.39,0-6.15,3.53-6.15,7.86v14.89
					c0,0.43,0.35,0.78,0.78,0.78h10.74c0.43,0,0.78-0.35,0.78-0.78V80.82C116,76.49,113.24,72.96,109.85,72.96L109.85,72.96z"/>
			</g>
		</g>
		<g>
			<g>
				<polygon class="st4" points="109.9,11.16 95.81,23.39 95.81,33.08 109.9,20.84 123.89,33.08 123.89,23.39 				"/>
			</g>
			<g>
				<path class="st0" d="M95.81,33.47c-0.05,0-0.11-0.01-0.16-0.04c-0.14-0.06-0.23-0.2-0.23-0.36v-9.68c0-0.11,0.05-0.22,0.13-0.29
					l14.09-12.24c0.15-0.13,0.37-0.13,0.51,0l13.99,12.24c0.08,0.07,0.13,0.18,0.13,0.29v9.68c0,0.15-0.09,0.29-0.23,0.36
					c-0.14,0.06-0.3,0.04-0.42-0.06L109.9,21.35L96.06,33.37C95.99,33.43,95.9,33.47,95.81,33.47z M96.2,23.57v8.65l13.45-11.68
					c0.15-0.13,0.37-0.13,0.51,0l13.34,11.67v-8.65l-13.6-11.9L96.2,23.57z"/>
			</g>
		</g>
		<g>
			<path class="st0" d="M121.82,67.59H97.88c-0.22,0-0.39-0.17-0.39-0.39c0-0.22,0.17-0.39,0.39-0.39h23.94
				c0.22,0,0.39,0.17,0.39,0.39C122.21,67.41,122.04,67.59,121.82,67.59z"/>
		</g>
		<g>
			<g>
				<rect x="95.11" y="95.64" class="st3" width="29.66" height="3.72"/>
			</g>
			<g>
				<path class="st0" d="M124.77,99.75H95.11c-0.22,0-0.39-0.17-0.39-0.39v-3.72c0-0.22,0.17-0.39,0.39-0.39h29.66
					c0.22,0,0.39,0.17,0.39,0.39v3.72C125.16,99.58,124.99,99.75,124.77,99.75z M95.5,98.97h28.88v-2.94H95.5V98.97z"/>
			</g>
		</g>
		<g>
			<g>
				<g>
					<path class="st5" d="M113.75,49.82c-0.17-1.9-1.84-3.4-3.9-3.4c-2.06,0-3.73,1.5-3.91,3.4h-0.04v10.41h7.89V49.82H113.75z"/>
				</g>
				<g>
					<path class="st0" d="M113.79,60.62h-7.89c-0.22,0-0.39-0.17-0.39-0.39V49.82c0-0.08,0.02-0.15,0.06-0.21
						c0.28-2.06,2.08-3.59,4.28-3.59c2.19,0,3.99,1.53,4.27,3.58c0.04,0.06,0.06,0.13,0.06,0.21v10.41
						C114.19,60.44,114.01,60.62,113.79,60.62z M106.29,59.84h7.11v-9.86c-0.02-0.04-0.04-0.08-0.04-0.13
						c-0.16-1.74-1.67-3.05-3.52-3.05c-1.85,0-3.36,1.31-3.52,3.05c0,0.05-0.02,0.09-0.04,0.13V59.84z"/>
				</g>
			</g>
			<g>
				<rect x="109.46" y="46.42" class="st0" width="0.78" height="13.81"/>
			</g>
			<g>
				<rect x="106.21" y="53.61" class="st0" width="7.59" height="0.78"/>
			</g>
		</g>
		<g>
			<g>
				<g>
					<rect x="99.5" y="95.69" class="st2" width="21.19" height="4.47"/>
				</g>
				<g>
					<path class="st0" d="M120.7,100.54H99.5c-0.22,0-0.39-0.17-0.39-0.39v-4.47c0-0.22,0.17-0.39,0.39-0.39h21.19
						c0.22,0,0.39,0.17,0.39,0.39v4.47C121.09,100.37,120.91,100.54,120.7,100.54z M99.89,99.76h20.41v-3.69H99.89V99.76z"/>
				</g>
			</g>
			<g>
				<g>
					<rect x="98.26" y="99.66" class="st2" width="23.68" height="4.47"/>
				</g>
				<g>
					<path class="st0" d="M121.94,104.51H98.26c-0.22,0-0.39-0.17-0.39-0.39v-4.47c0-0.22,0.17-0.39,0.39-0.39h23.68
						c0.22,0,0.39,0.17,0.39,0.39v4.47C122.33,104.34,122.16,104.51,121.94,104.51z M98.65,103.73h22.9v-3.69h-22.9V103.73z"/>
				</g>
			</g>
			<g>
				<g>
					<rect x="96.74" y="103.25" class="st2" width="26.73" height="4.47"/>
				</g>
				<g>
					<path class="st0" d="M123.46,108.11H96.74c-0.22,0-0.39-0.17-0.39-0.39v-4.47c0-0.22,0.17-0.39,0.39-0.39h26.73
						c0.22,0,0.39,0.17,0.39,0.39v4.47C123.85,107.94,123.68,108.11,123.46,108.11z M97.13,107.33h25.94v-3.69H97.13V107.33z"/>
				</g>
			</g>
			<g>
				<g>
					<rect x="94.77" y="106.94" class="st2" width="30.66" height="4.47"/>
				</g>
				<g>
					<path class="st0" d="M125.43,111.8H94.77c-0.25,0-0.45-0.17-0.45-0.39v-4.47c0-0.22,0.2-0.39,0.45-0.39h30.66
						c0.25,0,0.45,0.17,0.45,0.39v4.47C125.88,111.63,125.68,111.8,125.43,111.8z M95.22,111.02h29.77v-3.69H95.22V111.02z"/>
				</g>
			</g>
		</g>
	</g>
	<g>
		<g>
			<g>
				<path class="st7" d="M86.85,88.11c-0.34,0-0.66,0.06-0.96,0.15c-0.24-1.7-1.68-3.02-3.45-3.02c-1.64,0-3,1.13-3.38,2.65
					c-0.27-1.17-1.3-2.04-2.55-2.04c-1.37,0-2.47,1.05-2.59,2.39c-0.28-0.07-0.57-0.12-0.88-0.12c-1.91,0-3.47,1.55-3.47,3.47
					c0,1.85,1.45,3.35,3.27,3.45v0.02h14.01c1.92,0,3.47-1.55,3.47-3.47C90.32,89.67,88.77,88.11,86.85,88.11z"/>
			</g>
			<g>
				<path class="st0" d="M86.85,95.44H72.84c-0.05,0-0.11-0.01-0.15-0.03c-1.98-0.18-3.51-1.84-3.51-3.83
					c0-2.13,1.73-3.86,3.86-3.86c0.18,0,0.37,0.02,0.56,0.05c0.31-1.34,1.5-2.31,2.91-2.31c1.06,0,2.01,0.54,2.54,1.4
					c0.67-1.21,1.95-2,3.39-2c1.78,0,3.32,1.23,3.75,2.93c0.23-0.04,0.44-0.07,0.66-0.07c2.13,0,3.86,1.73,3.86,3.86
					C90.72,93.71,88.98,95.44,86.85,95.44z M72.97,94.66h13.89c1.7,0,3.08-1.38,3.08-3.08c0-1.7-1.38-3.08-3.08-3.08
					c-0.26,0-0.54,0.04-0.85,0.14c-0.11,0.03-0.23,0.02-0.32-0.05c-0.1-0.06-0.16-0.16-0.17-0.27c-0.21-1.53-1.53-2.68-3.06-2.68
					c-1.42,0-2.66,0.97-3,2.35c-0.04,0.17-0.23,0.29-0.38,0.3c-0.18,0-0.34-0.13-0.38-0.3c-0.23-1.03-1.13-1.74-2.17-1.74
					c-1.15,0-2.1,0.87-2.21,2.03c-0.01,0.12-0.07,0.22-0.16,0.28c-0.09,0.07-0.21,0.09-0.32,0.06c-0.29-0.08-0.54-0.11-0.78-0.11
					c-1.7,0-3.08,1.38-3.08,3.08c0,1.62,1.27,2.97,2.9,3.06C72.9,94.65,72.93,94.65,72.97,94.66z"/>
			</g>
		</g>
		<g>
			<g>
				<rect x="72.03" y="95.05" class="st2" width="16.14" height="3.65"/>
			</g>
			<g>
				<path class="st0" d="M88.17,99.1H72.03c-0.22,0-0.39-0.17-0.39-0.39v-3.65c0-0.22,0.17-0.39,0.39-0.39h16.14
					c0.22,0,0.39,0.17,0.39,0.39v3.65C88.56,98.92,88.39,99.1,88.17,99.1z M72.42,98.32h15.36v-2.87H72.42V98.32z"/>
			</g>
		</g>
	</g>
	<g>
		<g>
			<g>
				<path class="st7" d="M43.1,73.91c0,4.84-3.93,8.77-8.77,8.77c-4.84,0-8.77-3.93-8.77-8.77c0-4.84,3.93-17.38,8.77-17.38
					C39.17,56.52,43.1,69.06,43.1,73.91z"/>
			</g>
			<g>
				<path class="st0" d="M34.33,83.07c-5.05,0-9.16-4.11-9.16-9.16c0-5.01,4.06-17.78,9.16-17.78c5.1,0,9.16,12.76,9.16,17.78
					C43.49,78.96,39.38,83.07,34.33,83.07z M34.33,56.91c-1.92,0-4.05,2.42-5.84,6.64c-1.67,3.93-2.54,8.18-2.54,10.36
					c0,4.62,3.76,8.38,8.38,8.38s8.38-3.76,8.38-8.38c0-2.17-0.87-6.43-2.54-10.36C38.38,59.33,36.25,56.91,34.33,56.91z"/>
			</g>
		</g>
	</g>
	<g>
		<g>
			<path class="st0" d="M39.7,71.97c-0.22,0-0.39-0.17-0.39-0.39c0-1.11-0.32-2.81-0.84-4.55c-0.94-3.11-2.73-6.74-4.66-6.74
				c-0.22,0-0.39-0.17-0.39-0.39c0-0.22,0.17-0.39,0.39-0.39c2.96,0,4.88,5.58,5.4,7.3c0.55,1.81,0.88,3.59,0.88,4.77
				C40.09,71.8,39.92,71.97,39.7,71.97z"/>
		</g>
	</g>
	<g>
		<g>
			<g>
				<path class="st7" d="M29.33,79.57c0,4.84-3.93,8.77-8.77,8.77c-4.84,0-8.77-3.93-8.77-8.77c0-4.84,3.93-17.38,8.77-17.38
					C25.41,62.18,29.33,74.72,29.33,79.57z"/>
			</g>
			<g>
				<path class="st0" d="M20.56,88.72c-5.05,0-9.16-4.11-9.16-9.16c0-5.01,4.06-17.78,9.16-17.78c5.1,0,9.16,12.76,9.16,17.78
					C29.72,84.62,25.61,88.72,20.56,88.72z M20.56,62.57c-1.92,0-4.05,2.42-5.84,6.64c-1.67,3.93-2.54,8.18-2.54,10.36
					c0,4.62,3.76,8.38,8.38,8.38s8.38-3.76,8.38-8.38c0-2.17-0.87-6.43-2.54-10.36C24.61,64.99,22.48,62.57,20.56,62.57z"/>
			</g>
		</g>
	</g>
	<g>
		<g>
			<path class="st0" d="M20.56,86.38c-3.72,0-6.74-3.49-6.74-7.78c0-0.22,0.17-0.39,0.39-0.39c0.22,0,0.39,0.17,0.39,0.39
				c0,3.86,2.68,7,5.96,7c3.29,0,5.96-3.14,5.96-7c0-0.22,0.17-0.39,0.39-0.39c0.22,0,0.39,0.17,0.39,0.39
				C27.31,82.89,24.28,86.38,20.56,86.38z"/>
		</g>
	</g>
	<g>
		<g>
			<g>
				<g>
					<path class="st7" d="M203.77,61.34c0,5.28-4.28,9.56-9.56,9.56c-5.28,0-9.56-4.28-9.56-9.56c0-5.28,4.28-9.56,9.56-9.56
						C199.49,51.78,203.77,56.06,203.77,61.34z"/>
				</g>
				<g>
					<path class="st0" d="M194.21,71.29c-5.49,0-9.95-4.46-9.95-9.95s4.46-9.95,9.95-9.95c5.49,0,9.95,4.46,9.95,9.95
						S199.7,71.29,194.21,71.29z M194.21,52.17c-5.06,0-9.17,4.11-9.17,9.17s4.11,9.17,9.17,9.17c5.06,0,9.17-4.11,9.17-9.17
						S199.27,52.17,194.21,52.17z"/>
				</g>
			</g>
			<g>
				<g>
					<path class="st7" d="M208.98,68.81c0,3.55-2.87,6.42-6.42,6.42c-3.55,0-6.42-2.87-6.42-6.42c0-3.55,2.87-6.42,6.42-6.42
						C206.11,62.39,208.98,65.26,208.98,68.81z"/>
				</g>
				<g>
					<path class="st0" d="M202.56,75.62c-3.75,0-6.81-3.05-6.81-6.81c0-3.75,3.05-6.81,6.81-6.81c3.76,0,6.81,3.06,6.81,6.81
						C209.37,72.56,206.32,75.62,202.56,75.62z M202.56,62.78c-3.32,0-6.03,2.7-6.03,6.03c0,3.32,2.7,6.03,6.03,6.03
						c3.32,0,6.03-2.7,6.03-6.03C208.59,65.49,205.88,62.78,202.56,62.78z"/>
				</g>
			</g>
		</g>
		<g>
			<path class="st0" d="M194.51,87.76c-0.22,0-0.39-0.17-0.39-0.39v-22.7c0-0.22,0.17-0.39,0.39-0.39c0.22,0,0.39,0.17,0.39,0.39
				v22.7C194.9,87.58,194.73,87.76,194.51,87.76z"/>
		</g>
		<g>
			<path class="st0" d="M194.69,76.76c-0.11,0-0.22-0.04-0.29-0.13c-0.14-0.16-0.13-0.41,0.03-0.55l5.81-5.12
				c0.16-0.14,0.41-0.13,0.55,0.03c0.14,0.16,0.13,0.41-0.03,0.55l-5.81,5.12C194.87,76.72,194.78,76.76,194.69,76.76z"/>
		</g>
		<g>
			<path class="st0" d="M193.87,68.43c-3.89,0-7.06-3.16-7.06-7.06c0-3.89,3.16-7.06,7.06-7.06c0.22,0,0.39,0.17,0.39,0.39
				s-0.17,0.39-0.39,0.39c-3.46,0-6.28,2.82-6.28,6.28c0,3.46,2.82,6.28,6.28,6.28c0.22,0,0.39,0.17,0.39,0.39
				C194.26,68.26,194.09,68.43,193.87,68.43z"/>
		</g>
		<g>
			<path class="st0" d="M203.64,73.93c-1.09,0-2.16-0.5-2.85-1.45c-0.13-0.17-0.09-0.42,0.09-0.54c0.17-0.13,0.42-0.09,0.54,0.09
				c0.89,1.22,2.6,1.49,3.81,0.61c0.59-0.43,0.98-1.06,1.09-1.78c0.11-0.72-0.06-1.44-0.49-2.03c-0.13-0.17-0.09-0.42,0.09-0.54
				c0.17-0.13,0.42-0.09,0.54,0.09c0.55,0.76,0.77,1.69,0.63,2.61c-0.15,0.93-0.65,1.74-1.4,2.29
				C205.08,73.71,204.36,73.93,203.64,73.93z"/>
		</g>
		<g>
			<path class="st0" d="M194.59,80.46c-0.13,0-0.25-0.06-0.33-0.18l-4.68-7.22c-0.12-0.18-0.07-0.42,0.12-0.54
				c0.18-0.12,0.42-0.07,0.54,0.12l4.68,7.22c0.12,0.18,0.07,0.42-0.12,0.54C194.74,80.44,194.66,80.46,194.59,80.46z"/>
		</g>
		<g>
			<g>
				<circle class="st7" cx="189.42" cy="71.98" r="3.22"/>
			</g>
			<g>
				<path class="st0" d="M189.42,75.59c-1.99,0-3.61-1.62-3.61-3.61c0-1.99,1.62-3.61,3.61-3.61c1.99,0,3.61,1.62,3.61,3.61
					C193.03,73.97,191.41,75.59,189.42,75.59z M189.42,69.15c-1.56,0-2.83,1.27-2.83,2.83c0,1.56,1.27,2.83,2.83,2.83
					s2.83-1.27,2.83-2.83C192.25,70.42,190.98,69.15,189.42,69.15z"/>
			</g>
		</g>
	</g>
	<g>
		<path class="st0" d="M20.56,100.95c-0.22,0-0.39-0.17-0.39-0.39V88.33c0-0.22,0.17-0.39,0.39-0.39s0.39,0.17,0.39,0.39v12.22
			C20.95,100.77,20.78,100.95,20.56,100.95z"/>
	</g>
	<g>
		<path class="st0" d="M20.71,94.51c-0.05,0-0.1-0.01-0.14-0.03c-0.2-0.08-0.3-0.31-0.22-0.51l2.47-6.24
			c0.08-0.2,0.31-0.3,0.51-0.22c0.2,0.08,0.3,0.31,0.22,0.51l-2.47,6.24C21.01,94.42,20.87,94.51,20.71,94.51z"/>
	</g>
	<g>
		<path class="st0" d="M34.5,97.53c-0.22,0-0.39-0.17-0.39-0.39V72.17c0-0.22,0.17-0.39,0.39-0.39s0.39,0.17,0.39,0.39v24.97
			C34.89,97.36,34.71,97.53,34.5,97.53z"/>
	</g>
	<g>
		<path class="st0" d="M34.21,79.98c-0.11,0-0.23-0.05-0.3-0.14l-3.51-4.29c-0.14-0.17-0.11-0.41,0.06-0.55
			c0.17-0.14,0.41-0.11,0.55,0.05l3.51,4.29c0.14,0.17,0.11,0.41-0.06,0.55C34.38,79.95,34.29,79.98,34.21,79.98z"/>
	</g>
	<g>
		<path class="st0" d="M34.69,75.59c-0.09,0-0.18-0.03-0.26-0.1c-0.16-0.14-0.18-0.39-0.04-0.55l2.54-2.93
			c0.14-0.16,0.39-0.18,0.55-0.04c0.16,0.14,0.18,0.39,0.04,0.55l-2.54,2.93C34.91,75.54,34.8,75.59,34.69,75.59z"/>
	</g>
	<g>
		<g>
			<g>
				<path class="st7" d="M43.61,90.68c-0.34,0-0.66,0.06-0.96,0.15c-0.24-1.7-1.68-3.02-3.45-3.02c-1.64,0-3,1.13-3.38,2.65
					c-0.27-1.17-1.3-2.04-2.55-2.04c-1.37,0-2.47,1.05-2.59,2.39c-0.28-0.07-0.57-0.12-0.88-0.12c-1.91,0-3.47,1.55-3.47,3.47
					c0,1.85,1.45,3.35,3.27,3.45v0.02h14.01c1.92,0,3.47-1.55,3.47-3.47C47.08,92.23,45.53,90.68,43.61,90.68z"/>
			</g>
			<g>
				<path class="st0" d="M43.61,98.01H29.59c-0.05,0-0.11-0.01-0.15-0.03c-1.98-0.18-3.51-1.84-3.51-3.83
					c0-2.13,1.73-3.86,3.86-3.86c0.18,0,0.37,0.02,0.56,0.05c0.32-1.34,1.5-2.31,2.91-2.31c1.06,0,2.01,0.54,2.54,1.4
					c0.67-1.21,1.95-2,3.39-2c1.78,0,3.32,1.23,3.75,2.93c0.23-0.04,0.44-0.07,0.66-0.07c2.13,0,3.86,1.73,3.86,3.86
					C47.47,96.28,45.74,98.01,43.61,98.01z M29.72,97.23h13.89c1.7,0,3.08-1.38,3.08-3.08c0-1.7-1.38-3.08-3.08-3.08
					c-0.26,0-0.54,0.04-0.85,0.14c-0.11,0.03-0.23,0.02-0.32-0.05c-0.1-0.06-0.16-0.16-0.17-0.27c-0.21-1.53-1.53-2.68-3.06-2.68
					c-1.42,0-2.66,0.97-3,2.35c-0.04,0.17-0.2,0.3-0.38,0.3c0,0,0,0,0,0c-0.18,0-0.34-0.13-0.38-0.3c-0.23-1.03-1.13-1.74-2.17-1.74
					c-1.15,0-2.1,0.87-2.21,2.03c-0.01,0.11-0.07,0.22-0.16,0.28c-0.09,0.07-0.21,0.09-0.32,0.06c-0.29-0.08-0.54-0.11-0.78-0.11
					c-1.7,0-3.08,1.38-3.08,3.08c0,1.62,1.27,2.97,2.9,3.06C29.65,97.21,29.69,97.22,29.72,97.23z"/>
			</g>
		</g>
		<g>
			<g>
				<rect x="28.79" y="97.62" class="st2" width="16.14" height="3.65"/>
			</g>
			<g>
				<path class="st0" d="M44.93,101.66H28.79c-0.22,0-0.39-0.17-0.39-0.39v-3.65c0-0.22,0.17-0.39,0.39-0.39h16.14
					c0.22,0,0.39,0.17,0.39,0.39v3.65C45.32,101.49,45.14,101.66,44.93,101.66z M29.18,100.88h15.36v-2.87H29.18V100.88z"/>
			</g>
		</g>
	</g>
	<g>
		<g>
			<g>
				<path class="st7" d="M203.24,85.05c-0.34,0-0.66,0.06-0.96,0.15c-0.24-1.7-1.68-3.02-3.45-3.02c-1.64,0-3,1.13-3.38,2.65
					c-0.27-1.17-1.3-2.04-2.55-2.04c-1.37,0-2.47,1.05-2.59,2.39c-0.28-0.07-0.57-0.12-0.88-0.12c-1.91,0-3.47,1.55-3.47,3.47
					c0,1.85,1.45,3.35,3.27,3.45v0.02h14.01c1.92,0,3.47-1.55,3.47-3.47C206.71,86.61,205.16,85.05,203.24,85.05z"/>
			</g>
			<g>
				<path class="st0" d="M203.24,92.38h-14.01c-0.05,0-0.11-0.01-0.15-0.03c-1.98-0.18-3.51-1.84-3.51-3.83
					c0-2.13,1.73-3.86,3.86-3.86c0.18,0,0.37,0.02,0.56,0.05c0.32-1.34,1.5-2.31,2.91-2.31c1.06,0,2.01,0.54,2.54,1.4
					c0.67-1.21,1.95-2,3.39-2c1.78,0,3.32,1.23,3.75,2.93c0.23-0.04,0.44-0.07,0.66-0.07c2.13,0,3.86,1.73,3.86,3.86
					C207.1,90.65,205.37,92.38,203.24,92.38z M189.35,91.6h13.89c1.7,0,3.08-1.38,3.08-3.08c0-1.7-1.38-3.08-3.08-3.08
					c-0.26,0-0.54,0.04-0.85,0.14c-0.11,0.03-0.23,0.02-0.32-0.05c-0.1-0.06-0.16-0.16-0.17-0.27c-0.21-1.53-1.53-2.68-3.06-2.68
					c-1.42,0-2.66,0.97-3,2.35c-0.04,0.17-0.2,0.3-0.38,0.3c0,0,0,0,0,0c-0.18,0-0.34-0.13-0.38-0.3c-0.23-1.03-1.13-1.74-2.17-1.74
					c-1.15,0-2.1,0.87-2.21,2.03c-0.01,0.11-0.07,0.22-0.16,0.28c-0.09,0.07-0.21,0.09-0.32,0.06c-0.29-0.08-0.54-0.11-0.78-0.11
					c-1.7,0-3.08,1.38-3.08,3.08c0,1.62,1.27,2.97,2.9,3.06C189.28,91.58,189.32,91.59,189.35,91.6z"/>
			</g>
		</g>
		<g>
			<g>
				<rect x="188.42" y="91.99" class="st2" width="16.14" height="3.65"/>
			</g>
			<g>
				<path class="st0" d="M204.56,96.04h-16.14c-0.22,0-0.39-0.17-0.39-0.39v-3.65c0-0.22,0.17-0.39,0.39-0.39h16.14
					c0.22,0,0.39,0.17,0.39,0.39v3.65C204.95,95.86,204.77,96.04,204.56,96.04z M188.81,95.26h15.36v-2.87h-15.36V95.26z"/>
			</g>
		</g>
	</g>
	<g>
		<g>
			<g>
				<g>
					<g>
						<g>
							<rect x="42.23" y="112.57" class="st3" width="1.4" height="4.19"/>
						</g>
						<g>
							<path class="st0" d="M43.62,117.27h-1.4c-0.28,0-0.51-0.23-0.51-0.51v-4.19c0-0.28,0.23-0.51,0.51-0.51h1.4
								c0.28,0,0.51,0.23,0.51,0.51v4.19C44.13,117.04,43.91,117.27,43.62,117.27z M42.74,116.25h0.38v-3.17h-0.38V116.25z"/>
						</g>
					</g>
					<g>
						<g>
							<rect x="54.1" y="112.57" class="st3" width="1.4" height="4.19"/>
						</g>
						<g>
							<path class="st0" d="M55.49,117.27h-1.4c-0.28,0-0.51-0.23-0.51-0.51v-4.19c0-0.28,0.23-0.51,0.51-0.51h1.4
								c0.28,0,0.51,0.23,0.51,0.51v4.19C56,117.04,55.78,117.27,55.49,117.27z M54.61,116.25h0.38v-3.17h-0.38V116.25z"/>
						</g>
					</g>
				</g>
				<g>
					<g>
						<rect x="40.13" y="109.92" class="st4" width="17.46" height="3.07"/>
					</g>
					<g>
						<path class="st0" d="M57.59,113.5H40.13c-0.28,0-0.51-0.23-0.51-0.51v-3.07c0-0.28,0.23-0.51,0.51-0.51h17.46
							c0.28,0,0.51,0.23,0.51,0.51v3.07C58.1,113.27,57.87,113.5,57.59,113.5z M40.64,112.48h16.44v-2.05H40.64V112.48z"/>
					</g>
				</g>
				<g>
					<g>
						<rect x="40.13" y="102.24" class="st4" width="17.46" height="6.28"/>
					</g>
					<g>
						<path class="st0" d="M57.59,109.03H40.13c-0.28,0-0.51-0.23-0.51-0.51v-6.28c0-0.28,0.23-0.51,0.51-0.51h17.46
							c0.28,0,0.51,0.23,0.51,0.51v6.28C58.1,108.8,57.87,109.03,57.59,109.03z M40.64,108.01h16.44v-5.26H40.64V108.01z"/>
					</g>
				</g>
			</g>
			<g>
				<g>
					<g>
						<g>
							<rect x="63.65" y="112.57" class="st3" width="1.4" height="4.19"/>
						</g>
						<g>
							<path class="st0" d="M65.05,117.27h-1.4c-0.28,0-0.51-0.23-0.51-0.51v-4.19c0-0.28,0.23-0.51,0.51-0.51h1.4
								c0.28,0,0.51,0.23,0.51,0.51v4.19C65.56,117.04,65.33,117.27,65.05,117.27z M64.16,116.25h0.38v-3.17h-0.38V116.25z"/>
						</g>
					</g>
					<g>
						<g>
							<rect x="75.52" y="112.57" class="st3" width="1.4" height="4.19"/>
						</g>
						<g>
							<path class="st0" d="M76.92,117.27h-1.4c-0.28,0-0.51-0.23-0.51-0.51v-4.19c0-0.28,0.23-0.51,0.51-0.51h1.4
								c0.28,0,0.51,0.23,0.51,0.51v4.19C77.43,117.04,77.2,117.27,76.92,117.27z M76.03,116.25h0.38v-3.17h-0.38V116.25z"/>
						</g>
					</g>
				</g>
				<g>
					<g>
						<rect x="61.56" y="109.92" class="st4" width="17.46" height="3.07"/>
					</g>
					<g>
						<path class="st0" d="M79.02,113.5H61.56c-0.28,0-0.51-0.23-0.51-0.51v-3.07c0-0.28,0.23-0.51,0.51-0.51h17.46
							c0.28,0,0.51,0.23,0.51,0.51v3.07C79.53,113.27,79.3,113.5,79.02,113.5z M62.07,112.48h16.44v-2.05H62.07V112.48z"/>
					</g>
				</g>
				<g>
					<g>
						<rect x="61.56" y="102.24" class="st4" width="17.46" height="6.28"/>
					</g>
					<g>
						<path class="st0" d="M79.02,109.03H61.56c-0.28,0-0.51-0.23-0.51-0.51v-6.28c0-0.28,0.23-0.51,0.51-0.51h17.46
							c0.28,0,0.51,0.23,0.51,0.51v6.28C79.53,108.8,79.3,109.03,79.02,109.03z M62.07,108.01h16.44v-5.26H62.07V108.01z"/>
					</g>
				</g>
			</g>
			<g>
				<g>
					<g>
						<path class="st0" d="M31.41,111.19c-0.28,0-0.51-0.23-0.51-0.51v-20.9c0-0.28,0.23-0.51,0.51-0.51c0.28,0,0.51,0.23,0.51,0.51
							v20.9C31.92,110.96,31.69,111.19,31.41,111.19z"/>
					</g>
				</g>
				<g>
					<g>
						<g>
							<rect x="28.13" y="109.18" class="st3" width="6.77" height="2.17"/>
						</g>
						<g>
							<path class="st0" d="M34.89,111.86h-6.77c-0.28,0-0.51-0.23-0.51-0.51v-2.17c0-0.28,0.23-0.51,0.51-0.51h6.77
								c0.28,0,0.51,0.23,0.51,0.51v2.17C35.4,111.63,35.18,111.86,34.89,111.86z M28.64,110.84h5.75v-1.15h-5.75V110.84z"/>
						</g>
					</g>
					<g>
						<g>
							<rect x="27" y="111.6" class="st3" width="9.02" height="2.17"/>
						</g>
						<g>
							<path class="st0" d="M36.02,114.28H27c-0.28,0-0.51-0.23-0.51-0.51v-2.17c0-0.28,0.23-0.51,0.51-0.51h9.02
								c0.28,0,0.51,0.23,0.51,0.51v2.17C36.53,114.05,36.3,114.28,36.02,114.28z M27.51,113.26h8v-1.15h-8V113.26z"/>
						</g>
					</g>
				</g>
				<g>
					<g>
						<g>
							<path class="st2" d="M35.34,85.96c0,2.11-1.71,3.82-3.82,3.82c-2.11,0-3.83-1.71-3.83-3.82s1.71-3.83,3.83-3.83
								C33.62,82.13,35.34,83.84,35.34,85.96z"/>
						</g>
						<g>
							<path class="st0" d="M31.51,90.29c-2.39,0-4.34-1.94-4.34-4.33c0-2.39,1.95-4.34,4.34-4.34c2.39,0,4.33,1.95,4.33,4.34
								C35.85,88.35,33.9,90.29,31.51,90.29z M31.51,82.64c-1.83,0-3.32,1.49-3.32,3.32c0,1.83,1.49,3.31,3.32,3.31
								c1.83,0,3.31-1.49,3.31-3.31C34.83,84.13,33.34,82.64,31.51,82.64z"/>
						</g>
					</g>
					<g>
						<g>
							<rect x="28.91" y="88.79" class="st3" width="5.19" height="2.46"/>
						</g>
						<g>
							<path class="st0" d="M34.11,91.76h-5.19c-0.28,0-0.51-0.23-0.51-0.51v-2.46c0-0.28,0.23-0.51,0.51-0.51h5.19
								c0.28,0,0.51,0.23,0.51,0.51v2.46C34.62,91.54,34.39,91.76,34.11,91.76z M29.42,90.74h4.17V89.3h-4.17V90.74z"/>
						</g>
					</g>
				</g>
			</g>
			<g>
				<g>
					<g>
						<path class="st0" d="M87.36,111.19c-0.28,0-0.51-0.23-0.51-0.51v-20.9c0-0.28,0.23-0.51,0.51-0.51c0.28,0,0.51,0.23,0.51,0.51
							v20.9C87.87,110.96,87.64,111.19,87.36,111.19z"/>
					</g>
				</g>
				<g>
					<g>
						<g>
							<rect x="84.08" y="109.18" class="st3" width="6.77" height="2.17"/>
						</g>
						<g>
							<path class="st0" d="M90.85,111.86h-6.77c-0.28,0-0.51-0.23-0.51-0.51v-2.17c0-0.28,0.23-0.51,0.51-0.51h6.77
								c0.28,0,0.51,0.23,0.51,0.51v2.17C91.36,111.63,91.13,111.86,90.85,111.86z M84.59,110.84h5.75v-1.15h-5.75V110.84z"/>
						</g>
					</g>
					<g>
						<g>
							<rect x="82.95" y="111.6" class="st3" width="9.02" height="2.17"/>
						</g>
						<g>
							<path class="st0" d="M91.97,114.28h-9.02c-0.28,0-0.51-0.23-0.51-0.51v-2.17c0-0.28,0.23-0.51,0.51-0.51h9.02
								c0.28,0,0.51,0.23,0.51,0.51v2.17C92.48,114.05,92.25,114.28,91.97,114.28z M83.47,113.26h8v-1.15h-8V113.26z"/>
						</g>
					</g>
				</g>
				<g>
					<g>
						<g>
							<path class="st2" d="M91.29,85.96c0,2.11-1.71,3.82-3.82,3.82c-2.11,0-3.83-1.71-3.83-3.82s1.71-3.83,3.83-3.83
								C89.58,82.13,91.29,83.84,91.29,85.96z"/>
						</g>
						<g>
							<path class="st0" d="M87.46,90.29c-2.39,0-4.34-1.94-4.34-4.33c0-2.39,1.95-4.34,4.34-4.34c2.39,0,4.33,1.95,4.33,4.34
								C91.8,88.35,89.85,90.29,87.46,90.29z M87.46,82.64c-1.83,0-3.32,1.49-3.32,3.32c0,1.83,1.49,3.31,3.32,3.31
								c1.83,0,3.31-1.49,3.31-3.31C90.78,84.13,89.29,82.64,87.46,82.64z"/>
						</g>
					</g>
					<g>
						<g>
							<rect x="84.86" y="88.79" class="st3" width="5.19" height="2.46"/>
						</g>
						<g>
							<path class="st0" d="M90.06,91.76h-5.19c-0.28,0-0.51-0.23-0.51-0.51v-2.46c0-0.28,0.23-0.51,0.51-0.51h5.19
								c0.28,0,0.51,0.23,0.51,0.51v2.46C90.57,91.54,90.34,91.76,90.06,91.76z M85.37,90.74h4.17V89.3h-4.17V90.74z"/>
						</g>
					</g>
				</g>
			</g>
		</g>
		<g>
			<g>
				<g>
					<g>
						<g>
							<rect x="145.46" y="112.57" class="st3" width="1.4" height="4.19"/>
						</g>
						<g>
							<path class="st0" d="M146.85,117.27h-1.4c-0.28,0-0.51-0.23-0.51-0.51v-4.19c0-0.28,0.23-0.51,0.51-0.51h1.4
								c0.28,0,0.51,0.23,0.51,0.51v4.19C147.37,117.04,147.14,117.27,146.85,117.27z M145.97,116.25h0.38v-3.17h-0.38V116.25z"/>
						</g>
					</g>
					<g>
						<g>
							<rect x="157.33" y="112.57" class="st3" width="1.4" height="4.19"/>
						</g>
						<g>
							<path class="st0" d="M158.73,117.27h-1.4c-0.28,0-0.51-0.23-0.51-0.51v-4.19c0-0.28,0.23-0.51,0.51-0.51h1.4
								c0.28,0,0.51,0.23,0.51,0.51v4.19C159.24,117.04,159.01,117.27,158.73,117.27z M157.84,116.25h0.38v-3.17h-0.38V116.25z"/>
						</g>
					</g>
				</g>
				<g>
					<g>
						<rect x="143.36" y="109.92" class="st4" width="17.46" height="3.07"/>
					</g>
					<g>
						<path class="st0" d="M160.82,113.5h-17.46c-0.28,0-0.51-0.23-0.51-0.51v-3.07c0-0.28,0.23-0.51,0.51-0.51h17.46
							c0.28,0,0.51,0.23,0.51,0.51v3.07C161.33,113.27,161.1,113.5,160.82,113.5z M143.87,112.48h16.44v-2.05h-16.44V112.48z"/>
					</g>
				</g>
				<g>
					<g>
						<rect x="143.36" y="102.24" class="st4" width="17.46" height="6.28"/>
					</g>
					<g>
						<path class="st0" d="M160.82,109.03h-17.46c-0.28,0-0.51-0.23-0.51-0.51v-6.28c0-0.28,0.23-0.51,0.51-0.51h17.46
							c0.28,0,0.51,0.23,0.51,0.51v6.28C161.33,108.8,161.1,109.03,160.82,109.03z M143.87,108.01h16.44v-5.26h-16.44V108.01z"/>
					</g>
				</g>
			</g>
			<g>
				<g>
					<g>
						<g>
							<rect x="166.88" y="112.57" class="st3" width="1.4" height="4.19"/>
						</g>
						<g>
							<path class="st0" d="M168.28,117.27h-1.4c-0.28,0-0.51-0.23-0.51-0.51v-4.19c0-0.28,0.23-0.51,0.51-0.51h1.4
								c0.28,0,0.51,0.23,0.51,0.51v4.19C168.79,117.04,168.56,117.27,168.28,117.27z M167.39,116.25h0.38v-3.17h-0.38V116.25z"/>
						</g>
					</g>
					<g>
						<g>
							<rect x="178.75" y="112.57" class="st3" width="1.4" height="4.19"/>
						</g>
						<g>
							<path class="st0" d="M180.15,117.27h-1.4c-0.28,0-0.51-0.23-0.51-0.51v-4.19c0-0.28,0.23-0.51,0.51-0.51h1.4
								c0.28,0,0.51,0.23,0.51,0.51v4.19C180.66,117.04,180.43,117.27,180.15,117.27z M179.26,116.25h0.38v-3.17h-0.38V116.25z"/>
						</g>
					</g>
				</g>
				<g>
					<g>
						<rect x="164.79" y="109.92" class="st4" width="17.46" height="3.07"/>
					</g>
					<g>
						<path class="st0" d="M182.25,113.5h-17.46c-0.28,0-0.51-0.23-0.51-0.51v-3.07c0-0.28,0.23-0.51,0.51-0.51h17.46
							c0.28,0,0.51,0.23,0.51,0.51v3.07C182.76,113.27,182.53,113.5,182.25,113.5z M165.3,112.48h16.44v-2.05H165.3V112.48z"/>
					</g>
				</g>
				<g>
					<g>
						<rect x="164.79" y="102.24" class="st4" width="17.46" height="6.28"/>
					</g>
					<g>
						<path class="st0" d="M182.25,109.03h-17.46c-0.28,0-0.51-0.23-0.51-0.51v-6.28c0-0.28,0.23-0.51,0.51-0.51h17.46
							c0.28,0,0.51,0.23,0.51,0.51v6.28C182.76,108.8,182.53,109.03,182.25,109.03z M165.3,108.01h16.44v-5.26H165.3V108.01z"/>
					</g>
				</g>
			</g>
			<g>
				<g>
					<g>
						<path class="st0" d="M134.64,111.19c-0.28,0-0.51-0.23-0.51-0.51v-20.9c0-0.28,0.23-0.51,0.51-0.51
							c0.28,0,0.51,0.23,0.51,0.51v20.9C135.15,110.96,134.92,111.19,134.64,111.19z"/>
					</g>
				</g>
				<g>
					<g>
						<g>
							<rect x="131.36" y="109.18" class="st3" width="6.77" height="2.17"/>
						</g>
						<g>
							<path class="st0" d="M138.12,111.86h-6.77c-0.28,0-0.51-0.23-0.51-0.51v-2.17c0-0.28,0.23-0.51,0.51-0.51h6.77
								c0.28,0,0.51,0.23,0.51,0.51v2.17C138.63,111.63,138.41,111.86,138.12,111.86z M131.87,110.84h5.75v-1.15h-5.75V110.84z"/>
						</g>
					</g>
					<g>
						<g>
							<rect x="130.23" y="111.6" class="st3" width="9.02" height="2.17"/>
						</g>
						<g>
							<path class="st0" d="M139.25,114.28h-9.02c-0.28,0-0.51-0.23-0.51-0.51v-2.17c0-0.28,0.23-0.51,0.51-0.51h9.02
								c0.28,0,0.51,0.23,0.51,0.51v2.17C139.76,114.05,139.53,114.28,139.25,114.28z M130.74,113.26h8v-1.15h-8V113.26z"/>
						</g>
					</g>
				</g>
				<g>
					<g>
						<g>
							<path class="st2" d="M138.57,85.96c0,2.11-1.71,3.82-3.82,3.82c-2.11,0-3.83-1.71-3.83-3.82s1.71-3.83,3.83-3.83
								C136.86,82.13,138.57,83.84,138.57,85.96z"/>
						</g>
						<g>
							<path class="st0" d="M134.74,90.29c-2.39,0-4.34-1.94-4.34-4.33c0-2.39,1.95-4.34,4.34-4.34c2.39,0,4.33,1.95,4.33,4.34
								C139.08,88.35,137.13,90.29,134.74,90.29z M134.74,82.64c-1.83,0-3.32,1.49-3.32,3.32c0,1.83,1.49,3.31,3.32,3.31
								c1.83,0,3.31-1.49,3.31-3.31C138.06,84.13,136.57,82.64,134.74,82.64z"/>
						</g>
					</g>
					<g>
						<g>
							<rect x="132.14" y="88.79" class="st3" width="5.19" height="2.46"/>
						</g>
						<g>
							<path class="st0" d="M137.34,91.76h-5.19c-0.28,0-0.51-0.23-0.51-0.51v-2.46c0-0.28,0.23-0.51,0.51-0.51h5.19
								c0.28,0,0.51,0.23,0.51,0.51v2.46C137.85,91.54,137.62,91.76,137.34,91.76z M132.65,90.74h4.17V89.3h-4.17V90.74z"/>
						</g>
					</g>
				</g>
			</g>
			<g>
				<g>
					<g>
						<path class="st0" d="M190.59,111.19c-0.28,0-0.51-0.23-0.51-0.51v-20.9c0-0.28,0.23-0.51,0.51-0.51
							c0.28,0,0.51,0.23,0.51,0.51v20.9C191.1,110.96,190.88,111.19,190.59,111.19z"/>
					</g>
				</g>
				<g>
					<g>
						<g>
							<rect x="187.31" y="109.18" class="st3" width="6.77" height="2.17"/>
						</g>
						<g>
							<path class="st0" d="M194.08,111.86h-6.77c-0.28,0-0.51-0.23-0.51-0.51v-2.17c0-0.28,0.23-0.51,0.51-0.51h6.77
								c0.28,0,0.51,0.23,0.51,0.51v2.17C194.59,111.63,194.36,111.86,194.08,111.86z M187.82,110.84h5.75v-1.15h-5.75V110.84z"/>
						</g>
					</g>
					<g>
						<g>
							<rect x="186.19" y="111.6" class="st3" width="9.02" height="2.17"/>
						</g>
						<g>
							<path class="st0" d="M195.2,114.28h-9.02c-0.28,0-0.51-0.23-0.51-0.51v-2.17c0-0.28,0.23-0.51,0.51-0.51h9.02
								c0.28,0,0.51,0.23,0.51,0.51v2.17C195.71,114.05,195.48,114.28,195.2,114.28z M186.7,113.26h8v-1.15h-8V113.26z"/>
						</g>
					</g>
				</g>
				<g>
					<g>
						<g>
							<path class="st2" d="M194.52,85.96c0,2.11-1.71,3.82-3.82,3.82c-2.11,0-3.83-1.71-3.83-3.82s1.71-3.83,3.83-3.83
								C192.81,82.13,194.52,83.84,194.52,85.96z"/>
						</g>
						<g>
							<path class="st0" d="M190.69,90.29c-2.39,0-4.34-1.94-4.34-4.33c0-2.39,1.95-4.34,4.34-4.34c2.39,0,4.33,1.95,4.33,4.34
								C195.03,88.35,193.09,90.29,190.69,90.29z M190.69,82.64c-1.83,0-3.32,1.49-3.32,3.32c0,1.83,1.49,3.31,3.32,3.31
								c1.83,0,3.31-1.49,3.31-3.31C194.01,84.13,192.52,82.64,190.69,82.64z"/>
						</g>
					</g>
					<g>
						<g>
							<rect x="188.1" y="88.79" class="st3" width="5.19" height="2.46"/>
						</g>
						<g>
							<path class="st0" d="M193.29,91.76h-5.19c-0.28,0-0.51-0.23-0.51-0.51v-2.46c0-0.28,0.23-0.51,0.51-0.51h5.19
								c0.28,0,0.51,0.23,0.51,0.51v2.46C193.8,91.54,193.57,91.76,193.29,91.76z M188.61,90.74h4.17V89.3h-4.17V90.74z"/>
						</g>
					</g>
				</g>
			</g>
		</g>
	</g>
</g>
</svg>
