<svg id="Group_627" data-name="Group 627" xmlns="http://www.w3.org/2000/svg" xmlns:xlink="http://www.w3.org/1999/xlink" width="164.489" height="120" viewBox="0 0 164.489 120">
  <defs>
    <clipPath id="clip-path">
      <rect id="Rectangle_22739" data-name="Rectangle 22739" width="164.489" height="120" fill="none"/>
    </clipPath>
  </defs>
  <g id="Group_626" data-name="Group 626" clip-path="url(#clip-path)">
    <path id="Path_76607" data-name="Path 76607" d="M37.572,99.431H.466a.466.466,0,1,1,0-.931H37.572a.466.466,0,1,1,0,.931" fill="#1b1918"/>
    <path id="Path_76608" data-name="Path 76608" d="M48.2,99.431H41.452a.466.466,0,1,1,0-.931H48.2a.466.466,0,1,1,0,.931" fill="#1b1918"/>
    <path id="Path_76609" data-name="Path 76609" d="M153.209,99.716H98.251a3.263,3.263,0,0,1-3.259-3.259V83a2.333,2.333,0,0,0-2.329-2.33H70.581A2.332,2.332,0,0,0,68.253,83V96.171a3.264,3.264,0,0,1-3.26,3.26H52.007a.466.466,0,1,1,0-.931H64.993a2.331,2.331,0,0,0,2.328-2.329V83a3.265,3.265,0,0,1,3.26-3.261H92.663A3.265,3.265,0,0,1,95.923,83V96.457a2.331,2.331,0,0,0,2.328,2.328h54.958a.466.466,0,1,1,0,.931" fill="#1b1918"/>
    <path id="Path_76610" data-name="Path 76610" d="M133,119.534h0Z" fill="#1b1918"/>
    <path id="Path_76611" data-name="Path 76611" d="M141.1,120H133a.466.466,0,1,1,0-.931h8.1a.466.466,0,1,1,0,.931" fill="#1b1918"/>
    <path id="Path_76612" data-name="Path 76612" d="M27.016,119.534h0Z" fill="#1b1918"/>
    <path id="Path_76613" data-name="Path 76613" d="M126.012,120h-99a.466.466,0,0,1,0-.931h99a.466.466,0,1,1,0,.931" fill="#1b1918"/>
    <path id="Path_76614" data-name="Path 76614" d="M12.573,119.534h0Z" fill="#1b1918"/>
    <path id="Path_76615" data-name="Path 76615" d="M22.67,120h-10.1a.466.466,0,0,1,0-.931h10.1a.466.466,0,1,1,0,.931" fill="#1b1918"/>
    <path id="Path_76616" data-name="Path 76616" d="M155.236,77.964a2.677,2.677,0,0,1-2.865-2.436v-1.85a2.675,2.675,0,0,0-2.863-2.435H13.688a2.675,2.675,0,0,0-2.863,2.435v1.85A2.677,2.677,0,0,1,7.96,77.964,2.675,2.675,0,0,0,5.1,80.4v8.366c0,2,1.927,3.642,4.283,3.642H153.816c2.356,0,4.284-1.639,4.284-3.642V80.4a2.675,2.675,0,0,0-2.864-2.433" fill="#2f914d"/>
    <path id="Path_76617" data-name="Path 76617" d="M153.816,92.87H9.38c-2.618,0-4.748-1.843-4.748-4.107V80.4A3.14,3.14,0,0,1,7.96,77.5a2.219,2.219,0,0,0,2.4-1.97v-1.85a3.141,3.141,0,0,1,3.329-2.9h135.82a3.14,3.14,0,0,1,3.329,2.9v1.85a2.219,2.219,0,0,0,2.4,1.97,3.141,3.141,0,0,1,3.33,2.9v8.366c0,2.264-2.131,4.107-4.75,4.107M13.688,71.709a2.218,2.218,0,0,0-2.4,1.969v1.85a3.141,3.141,0,0,1-3.33,2.9,2.217,2.217,0,0,0-2.4,1.967v8.366c0,1.751,1.713,3.176,3.817,3.176H153.816c2.106,0,3.819-1.425,3.819-3.176V80.4a2.218,2.218,0,0,0-2.4-1.967,3.142,3.142,0,0,1-3.33-2.9v-1.85a2.218,2.218,0,0,0-2.4-1.969Z" fill="#1b1918"/>
    <rect id="Rectangle_22720" data-name="Rectangle 22720" width="96.615" height="45.319" transform="translate(33.356 38.172)" fill="#fff"/>
    <path id="Path_76618" data-name="Path 76618" d="M129.971,83.957H33.356a.465.465,0,0,1-.465-.466V38.173a.465.465,0,0,1,.465-.466h96.615a.465.465,0,0,1,.466.466V83.491a.465.465,0,0,1-.466.466m-96.149-.931h95.684V38.639H33.822Z" fill="#1b1918"/>
    <rect id="Rectangle_22721" data-name="Rectangle 22721" width="99.447" height="3.937" transform="translate(31.94 79.683)" fill="#323232"/>
    <path id="Path_76619" data-name="Path 76619" d="M131.387,84.086H31.94a.466.466,0,0,1-.466-.466V79.683a.465.465,0,0,1,.466-.466h99.447a.465.465,0,0,1,.465.466V83.62a.466.466,0,0,1-.465.466M32.4,83.154h98.516V80.148H32.4Z" fill="#1b1918"/>
    <path id="Path_76620" data-name="Path 76620" d="M125.222,32.353V29.595h-9.66v2.758h-67.8V29.595H38.108v2.758H30.917v5.978H132.411V32.353Z" fill="red"/>
    <path id="Path_76621" data-name="Path 76621" d="M132.41,38.8H30.916a.465.465,0,0,1-.465-.465V32.352a.465.465,0,0,1,.465-.465h6.725V29.595a.466.466,0,0,1,.466-.466h9.658a.466.466,0,0,1,.466.466v2.292H115.1V29.595a.465.465,0,0,1,.466-.466h9.659a.466.466,0,0,1,.467.466v2.292h6.722a.464.464,0,0,1,.466.465v5.979a.464.464,0,0,1-.466.465M31.382,37.865H131.944V32.818h-6.723a.465.465,0,0,1-.464-.466V30.06h-8.73v2.292a.465.465,0,0,1-.465.466h-67.8a.466.466,0,0,1-.466-.466V30.06H38.573v2.292a.466.466,0,0,1-.466.466H31.382Z" fill="#1b1918"/>
    <rect id="Rectangle_22722" data-name="Rectangle 22722" width="60.423" height="72.068" transform="translate(51.668 14.429)" fill="#fff"/>
    <path id="Path_76622" data-name="Path 76622" d="M112.091,86.963H51.668A.466.466,0,0,1,51.2,86.5V14.429a.465.465,0,0,1,.466-.465h60.423a.465.465,0,0,1,.465.465V86.5a.466.466,0,0,1-.465.466m-59.958-.932h59.492V14.9H52.133Z" fill="#1b1918"/>
    <path id="Path_76623" data-name="Path 76623" d="M80.286,68.937a1.023,1.023,0,1,1-1.023-1.023,1.024,1.024,0,0,1,1.023,1.023"/>
    <path id="Path_76624" data-name="Path 76624" d="M85.635,68.937a1.023,1.023,0,1,1-1.023-1.023,1.024,1.024,0,0,1,1.023,1.023"/>
    <path id="Path_76625" data-name="Path 76625" d="M81.413,9.864v0Z" fill="#1b1918"/>
    <path id="Path_76626" data-name="Path 76626" d="M81.413,10.33a.466.466,0,0,1-.466-.466v-6.4a.466.466,0,0,1,.932,0v6.4a.466.466,0,0,1-.466.466" fill="#1b1918"/>
    <path id="Path_76627" data-name="Path 76627" d="M93.326,5.8H81.413V.466H93.326l-2.133,2.9Z" fill="red"/>
    <path id="Path_76628" data-name="Path 76628" d="M93.326,6.264H81.413a.465.465,0,0,1-.465-.465V.465A.465.465,0,0,1,81.413,0H93.326A.465.465,0,0,1,93.7.741l-1.911,2.6,1.886,2.148a.466.466,0,0,1-.35.773M81.879,5.333H92.3L90.843,3.677a.465.465,0,0,1-.026-.583L92.406.931H81.879Z" fill="#1b1918"/>
    <rect id="Rectangle_22723" data-name="Rectangle 22723" width="16.133" height="3.245" transform="translate(73.598 53.983)" fill="#6b6b6b"/>
    <path id="Path_76629" data-name="Path 76629" d="M89.731,57.693H73.6a.466.466,0,0,1-.466-.465V53.983a.466.466,0,0,1,.466-.466H89.731a.466.466,0,0,1,.466.466v3.245a.465.465,0,0,1-.466.465m-15.667-.931h15.2V54.449h-15.2Z" fill="#1b1918"/>
    <rect id="Rectangle_22724" data-name="Rectangle 22724" width="16.05" height="6.137" transform="translate(73.639 18.505)" fill="#6b6b6b"/>
    <path id="Path_76630" data-name="Path 76630" d="M89.689,25.108H73.639a.465.465,0,0,1-.465-.466V18.5a.465.465,0,0,1,.465-.466h16.05a.465.465,0,0,1,.466.466v6.137a.465.465,0,0,1-.466.466m-15.584-.931H89.224V18.971H74.105Z" fill="#1b1918"/>
    <path id="Path_76631" data-name="Path 76631" d="M81.586,18.889v0Z" fill="#1b1918"/>
    <path id="Path_76632" data-name="Path 76632" d="M81.586,24.792a.466.466,0,0,1-.466-.466V18.889a.466.466,0,1,1,.932,0v5.437a.466.466,0,0,1-.466.466" fill="#1b1918"/>
    <rect id="Rectangle_22725" data-name="Rectangle 22725" width="16.051" height="23.289" transform="translate(73.54 27.002)" fill="#6b6b6b"/>
    <path id="Path_76633" data-name="Path 76633" d="M89.591,50.756H73.541a.465.465,0,0,1-.466-.465V27a.465.465,0,0,1,.466-.465h16.05a.465.465,0,0,1,.466.465v23.29a.465.465,0,0,1-.466.465m-15.585-.931H89.125V27.467H74.006Z" fill="#1b1918"/>
    <path id="Path_76634" data-name="Path 76634" d="M81.762,27.2v0Z" fill="#1b1918"/>
    <path id="Path_76635" data-name="Path 76635" d="M81.762,50.637a.466.466,0,0,1-.466-.466V27.2a.466.466,0,0,1,.932,0V50.171a.466.466,0,0,1-.466.466" fill="#1b1918"/>
    <path id="Path_76636" data-name="Path 76636" d="M73.895,34.828h0Z" fill="#1b1918"/>
    <path id="Path_76637" data-name="Path 76637" d="M88.89,35.294h-15a.466.466,0,1,1,0-.931h15a.466.466,0,1,1,0,.931" fill="#1b1918"/>
    <path id="Path_76638" data-name="Path 76638" d="M73.736,42.54h0Z" fill="#1b1918"/>
    <path id="Path_76639" data-name="Path 76639" d="M89.122,43.005H73.736a.466.466,0,1,1,0-.931H89.122a.466.466,0,1,1,0,.931" fill="#1b1918"/>
    <rect id="Rectangle_22726" data-name="Rectangle 22726" width="66.562" height="5.982" transform="translate(48.383 9.219)" fill="red"/>
    <path id="Path_76640" data-name="Path 76640" d="M114.945,15.666H48.383a.465.465,0,0,1-.465-.465V9.219a.466.466,0,0,1,.465-.466h66.562a.466.466,0,0,1,.466.466V15.2a.465.465,0,0,1-.466.465m-66.1-.931h65.63V9.685H48.849Z" fill="#1b1918"/>
    <rect id="Rectangle_22727" data-name="Rectangle 22727" width="61.997" height="3.938" transform="translate(50.665 83.458)" fill="#323232"/>
    <path id="Path_76641" data-name="Path 76641" d="M112.662,87.862h-62A.466.466,0,0,1,50.2,87.4V83.458a.466.466,0,0,1,.466-.466h62a.466.466,0,0,1,.465.466V87.4a.466.466,0,0,1-.465.466M51.13,86.93H112.2V83.923H51.13Z" fill="#1b1918"/>
    <path id="Path_76642" data-name="Path 76642" d="M81.939,60.3H72.266V79.5H90.843V60.3Z" fill="#6b6b6b"/>
    <path id="Path_76643" data-name="Path 76643" d="M90.843,79.961H72.266A.466.466,0,0,1,71.8,79.5V60.3a.466.466,0,0,1,.466-.466H90.843a.465.465,0,0,1,.466.466V79.5a.465.465,0,0,1-.466.466M72.732,79.03H90.378V60.765H72.732Z" fill="#1b1918"/>
    <path id="Path_76644" data-name="Path 76644" d="M81.57,79.308a.466.466,0,0,1-.466-.466V60.729a.466.466,0,0,1,.932,0V78.842a.466.466,0,0,1-.466.466" fill="#1b1918"/>
    <path id="Path_76645" data-name="Path 76645" d="M72.858,49.153H51.947a.466.466,0,0,1,0-.931H72.858a.466.466,0,1,1,0,.931" fill="#1b1918"/>
    <path id="Path_76646" data-name="Path 76646" d="M111.44,49.153H90.2a.466.466,0,1,1,0-.931H111.44a.466.466,0,1,1,0,.931" fill="#1b1918"/>
    <path id="Path_76647" data-name="Path 76647" d="M130.013,60.479H112.065a.466.466,0,1,1,0-.931h17.948a.466.466,0,1,1,0,.931" fill="#1b1918"/>
    <path id="Path_76648" data-name="Path 76648" d="M51.425,60.479H33.476a.466.466,0,0,1,0-.931H51.425a.466.466,0,1,1,0,.931" fill="#1b1918"/>
    <path id="Path_76649" data-name="Path 76649" d="M47.939,32.86H37.658a.466.466,0,1,1,0-.931H47.939a.466.466,0,1,1,0,.931" fill="#1b1918"/>
    <path id="Path_76650" data-name="Path 76650" d="M126.006,32.8H115.724a.466.466,0,1,1,0-.931h10.282a.466.466,0,1,1,0,.931" fill="#1b1918"/>
    <rect id="Rectangle_22728" data-name="Rectangle 22728" width="8.558" height="12.418" transform="translate(58.255 25.859)" fill="#6b6b6b"/>
    <path id="Path_76651" data-name="Path 76651" d="M66.813,38.743H58.255a.466.466,0,0,1-.466-.466V25.859a.466.466,0,0,1,.466-.466h8.558a.465.465,0,0,1,.466.466V38.277a.465.465,0,0,1-.466.466m-8.092-.932h7.627V26.324H58.721Z" fill="#1b1918"/>
    <path id="Path_76652" data-name="Path 76652" d="M62.64,25.963v0Z" fill="#1b1918"/>
    <path id="Path_76653" data-name="Path 76653" d="M62.64,38.68a.466.466,0,0,1-.466-.466V25.963a.466.466,0,0,1,.932,0V38.214a.466.466,0,0,1-.466.466" fill="#1b1918"/>
    <path id="Path_76654" data-name="Path 76654" d="M58.458,32.176h0Z" fill="#1b1918"/>
    <path id="Path_76655" data-name="Path 76655" d="M66.782,32.642H58.458a.465.465,0,1,1,0-.931h8.324a.465.465,0,1,1,0,.931" fill="#1b1918"/>
    <rect id="Rectangle_22729" data-name="Rectangle 22729" width="8.558" height="12.418" transform="translate(38.043 43.316)" fill="#6b6b6b"/>
    <path id="Path_76656" data-name="Path 76656" d="M46.6,56.2H38.043a.466.466,0,0,1-.466-.466V43.316a.466.466,0,0,1,.466-.466H46.6a.465.465,0,0,1,.466.466V55.734a.466.466,0,0,1-.466.466m-8.092-.932h7.627V43.781H38.509Z" fill="#1b1918"/>
    <path id="Path_76657" data-name="Path 76657" d="M42.428,43.42v0Z" fill="#1b1918"/>
    <path id="Path_76658" data-name="Path 76658" d="M42.428,56.136a.466.466,0,0,1-.466-.466V43.419a.466.466,0,0,1,.932,0V55.67a.466.466,0,0,1-.466.466" fill="#1b1918"/>
    <path id="Path_76659" data-name="Path 76659" d="M38.246,49.633h0Z" fill="#1b1918"/>
    <path id="Path_76660" data-name="Path 76660" d="M46.57,50.1H38.246a.466.466,0,1,1,0-.931H46.57a.466.466,0,1,1,0,.931" fill="#1b1918"/>
    <rect id="Rectangle_22730" data-name="Rectangle 22730" width="8.558" height="12.418" transform="translate(38.043 63.66)" fill="#6b6b6b"/>
    <path id="Path_76661" data-name="Path 76661" d="M46.6,76.543H38.043a.466.466,0,0,1-.466-.465V63.659a.466.466,0,0,1,.466-.465H46.6a.465.465,0,0,1,.466.465V76.078a.465.465,0,0,1-.466.465m-8.092-.931h7.627V64.125H38.509Z" fill="#1b1918"/>
    <path id="Path_76662" data-name="Path 76662" d="M42.428,63.764v0Z" fill="#1b1918"/>
    <path id="Path_76663" data-name="Path 76663" d="M42.428,76.48a.466.466,0,0,1-.466-.466V63.763a.466.466,0,0,1,.932,0V76.014a.466.466,0,0,1-.466.466" fill="#1b1918"/>
    <path id="Path_76664" data-name="Path 76664" d="M38.246,69.977h0Z" fill="#1b1918"/>
    <path id="Path_76665" data-name="Path 76665" d="M46.57,70.442H38.246a.466.466,0,1,1,0-.931H46.57a.466.466,0,1,1,0,.931" fill="#1b1918"/>
    <rect id="Rectangle_22731" data-name="Rectangle 22731" width="8.558" height="12.418" transform="translate(116.532 43.316)" fill="#6b6b6b"/>
    <path id="Path_76666" data-name="Path 76666" d="M125.09,56.2h-8.559a.466.466,0,0,1-.465-.466V43.316a.465.465,0,0,1,.465-.466h8.559a.465.465,0,0,1,.465.466V55.734a.466.466,0,0,1-.465.466M117,55.268h7.627V43.781H117Z" fill="#1b1918"/>
    <path id="Path_76667" data-name="Path 76667" d="M120.917,43.42v0Z" fill="#1b1918"/>
    <path id="Path_76668" data-name="Path 76668" d="M120.917,56.136a.466.466,0,0,1-.466-.466V43.419a.466.466,0,0,1,.932,0V55.67a.466.466,0,0,1-.466.466" fill="#1b1918"/>
    <path id="Path_76669" data-name="Path 76669" d="M116.735,49.633h0Z" fill="#1b1918"/>
    <path id="Path_76670" data-name="Path 76670" d="M125.059,50.1h-8.324a.466.466,0,1,1,0-.931h8.324a.466.466,0,1,1,0,.931" fill="#1b1918"/>
    <rect id="Rectangle_22732" data-name="Rectangle 22732" width="8.558" height="12.418" transform="translate(116.532 63.66)" fill="#6b6b6b"/>
    <path id="Path_76671" data-name="Path 76671" d="M125.09,76.543h-8.559a.465.465,0,0,1-.465-.465V63.659a.465.465,0,0,1,.465-.465h8.559a.465.465,0,0,1,.465.465V76.078a.465.465,0,0,1-.465.465M117,75.612h7.627V64.125H117Z" fill="#1b1918"/>
    <path id="Path_76672" data-name="Path 76672" d="M120.917,63.764v0Z" fill="#1b1918"/>
    <path id="Path_76673" data-name="Path 76673" d="M120.917,76.48a.466.466,0,0,1-.466-.466V63.763a.466.466,0,0,1,.932,0V76.014a.466.466,0,0,1-.466.466" fill="#1b1918"/>
    <path id="Path_76674" data-name="Path 76674" d="M116.735,69.977h0Z" fill="#1b1918"/>
    <path id="Path_76675" data-name="Path 76675" d="M125.059,70.442h-8.324a.466.466,0,1,1,0-.931h8.324a.466.466,0,1,1,0,.931" fill="#1b1918"/>
    <rect id="Rectangle_22733" data-name="Rectangle 22733" width="8.558" height="12.418" transform="translate(58.255 59.329)" fill="#6b6b6b"/>
    <path id="Path_76676" data-name="Path 76676" d="M66.813,72.212H58.255a.466.466,0,0,1-.466-.465V59.328a.466.466,0,0,1,.466-.465h8.558a.465.465,0,0,1,.466.465V71.747a.465.465,0,0,1-.466.465m-8.092-.931h7.627V59.794H58.721Z" fill="#1b1918"/>
    <path id="Path_76677" data-name="Path 76677" d="M62.64,59.432v0Z" fill="#1b1918"/>
    <path id="Path_76678" data-name="Path 76678" d="M62.64,72.149a.466.466,0,0,1-.466-.466V59.432a.466.466,0,0,1,.932,0V71.683a.466.466,0,0,1-.466.466" fill="#1b1918"/>
    <path id="Path_76679" data-name="Path 76679" d="M58.458,65.645h0Z" fill="#1b1918"/>
    <path id="Path_76680" data-name="Path 76680" d="M66.782,66.111H58.458a.466.466,0,1,1,0-.931h8.324a.466.466,0,1,1,0,.931" fill="#1b1918"/>
    <rect id="Rectangle_22734" data-name="Rectangle 22734" width="8.558" height="12.418" transform="translate(96.713 59.329)" fill="#6b6b6b"/>
    <path id="Path_76681" data-name="Path 76681" d="M105.271,72.212H96.713a.465.465,0,0,1-.466-.465V59.328a.465.465,0,0,1,.466-.465h8.558a.466.466,0,0,1,.466.465V71.747a.466.466,0,0,1-.466.465m-8.093-.931h7.627V59.794H97.178Z" fill="#1b1918"/>
    <path id="Path_76682" data-name="Path 76682" d="M101.1,59.432v0Z" fill="#1b1918"/>
    <path id="Path_76683" data-name="Path 76683" d="M101.1,72.149a.466.466,0,0,1-.466-.466V59.432a.466.466,0,0,1,.932,0V71.683a.466.466,0,0,1-.466.466" fill="#1b1918"/>
    <path id="Path_76684" data-name="Path 76684" d="M96.916,65.645h0Z" fill="#1b1918"/>
    <path id="Path_76685" data-name="Path 76685" d="M105.24,66.111H96.916a.466.466,0,1,1,0-.931h8.324a.466.466,0,1,1,0,.931" fill="#1b1918"/>
    <rect id="Rectangle_22735" data-name="Rectangle 22735" width="8.558" height="12.418" transform="translate(96.713 25.859)" fill="#6b6b6b"/>
    <path id="Path_76686" data-name="Path 76686" d="M105.271,38.743H96.713a.465.465,0,0,1-.466-.466V25.859a.465.465,0,0,1,.466-.466h8.558a.466.466,0,0,1,.466.466V38.277a.466.466,0,0,1-.466.466m-8.093-.932h7.627V26.324H97.178Z" fill="#1b1918"/>
    <path id="Path_76687" data-name="Path 76687" d="M101.1,25.963v0Z" fill="#1b1918"/>
    <path id="Path_76688" data-name="Path 76688" d="M101.1,38.68a.466.466,0,0,1-.466-.466V25.963a.466.466,0,0,1,.932,0V38.214a.466.466,0,0,1-.466.466" fill="#1b1918"/>
    <path id="Path_76689" data-name="Path 76689" d="M96.916,32.176h0Z" fill="#1b1918"/>
    <path id="Path_76690" data-name="Path 76690" d="M105.24,32.642H96.916a.465.465,0,1,1,0-.931h8.324a.465.465,0,1,1,0,.931" fill="#1b1918"/>
    <rect id="Rectangle_22736" data-name="Rectangle 22736" width="22.416" height="4.726" transform="translate(70.413 79.512)" fill="#fff"/>
    <path id="Path_76691" data-name="Path 76691" d="M92.829,84.7H70.413a.465.465,0,0,1-.466-.465V79.512a.466.466,0,0,1,.466-.466H92.829a.466.466,0,0,1,.465.466v4.726a.465.465,0,0,1-.465.465m-21.95-.931H92.363V79.978H70.879Z" fill="#1b1918"/>
    <rect id="Rectangle_22737" data-name="Rectangle 22737" width="25.046" height="4.726" transform="translate(69.098 83.71)" fill="#fff"/>
    <path id="Path_76692" data-name="Path 76692" d="M94.144,88.9H69.1a.466.466,0,0,1-.466-.466V83.711a.465.465,0,0,1,.466-.466H94.144a.466.466,0,0,1,.466.466v4.725a.466.466,0,0,1-.466.466M69.563,87.97H93.678V84.176H69.563Z" fill="#1b1918"/>
    <rect id="Rectangle_22738" data-name="Rectangle 22738" width="28.267" height="4.725" transform="translate(67.487 87.515)" fill="#fff"/>
    <path id="Path_76693" data-name="Path 76693" d="M95.754,92.706H67.487a.465.465,0,0,1-.465-.466V87.515a.466.466,0,0,1,.465-.466H95.754a.466.466,0,0,1,.466.466V92.24a.465.465,0,0,1-.466.466m-27.8-.932H95.288V87.98H67.953Z" fill="#1b1918"/>
    <path id="Path_76694" data-name="Path 76694" d="M89.039,100.291a1.967,1.967,0,1,1-3.934,0V97.96a1.967,1.967,0,1,1,3.934,0Z" fill="#fff"/>
    <path id="Path_76695" data-name="Path 76695" d="M87.072,102.723a2.436,2.436,0,0,1-2.433-2.432V97.96a2.433,2.433,0,0,1,4.866,0v2.331a2.436,2.436,0,0,1-2.433,2.432m0-6.264a1.5,1.5,0,0,0-1.5,1.5v2.331a1.5,1.5,0,0,0,3,0V97.96a1.5,1.5,0,0,0-1.5-1.5" fill="#323232"/>
    <path id="Path_76696" data-name="Path 76696" d="M140.032,78.583H101.895c-1.647,0-7.627,11.938-7.627,11.938,0,.114-3.979.332-3.979.332A2.985,2.985,0,0,0,87.3,93.837v8.623a2.985,2.985,0,0,0,2.985,2.984h49.743a3.244,3.244,0,0,0,2.985-3.453V82.036a3.244,3.244,0,0,0-2.985-3.453" fill="#ffc203"/>
    <path id="Path_76697" data-name="Path 76697" d="M140.032,105.91H90.289a3.454,3.454,0,0,1-3.45-3.45V93.838a3.455,3.455,0,0,1,3.45-3.451c1.468-.081,3.118-.195,3.66-.267,1.892-3.764,6.23-12,7.946-12h38.137a3.712,3.712,0,0,1,3.451,3.919v19.955a3.711,3.711,0,0,1-3.451,3.918m-45.3-15.274c-.025.415-.345.459-4.418.682a2.529,2.529,0,0,0-2.544,2.52v8.622a2.522,2.522,0,0,0,2.519,2.519h49.743a2.787,2.787,0,0,0,2.52-2.987V82.037a2.787,2.787,0,0,0-2.52-2.988H101.895c-.922.185-4.429,6.139-7.163,11.587" fill="#323232"/>
    <path id="Path_76698" data-name="Path 76698" d="M101.066,90.853,105.59,81.9h33.53v8.954Z" fill="#fff"/>
    <path id="Path_76699" data-name="Path 76699" d="M139.121,91.318H101.067a.466.466,0,0,1-.416-.675l4.525-8.954a.465.465,0,0,1,.415-.256h33.53a.465.465,0,0,1,.465.466v8.954a.465.465,0,0,1-.465.465m-37.3-.931h36.831V82.364H105.878Z" fill="#323232"/>
    <path id="Path_76700" data-name="Path 76700" d="M94.268,90.6h4.808l4.643-8.871-4.477-.166Z" fill="#fff"/>
    <path id="Path_76701" data-name="Path 76701" d="M99.077,91.07H94.268a.465.465,0,0,1-.408-.69l4.975-9.037a.442.442,0,0,1,.425-.241l4.477.166a.465.465,0,0,1,.4.682l-4.643,8.871a.465.465,0,0,1-.412.249m-4.021-.931h3.739l4.17-7.968-3.453-.127Z" fill="#323232"/>
    <path id="Path_76702" data-name="Path 76702" d="M108.776,105.373a5.845,5.845,0,1,1-5.845-5.845,5.845,5.845,0,0,1,5.845,5.845" fill="#fff"/>
    <path id="Path_76703" data-name="Path 76703" d="M102.931,111.684a6.31,6.31,0,1,1,6.31-6.311,6.318,6.318,0,0,1-6.31,6.311m0-11.69a5.379,5.379,0,1,0,5.379,5.379,5.385,5.385,0,0,0-5.379-5.379" fill="#323232"/>
    <path id="Path_76704" data-name="Path 76704" d="M106.165,105.373a3.234,3.234,0,1,1-3.233-3.233,3.233,3.233,0,0,1,3.233,3.233" fill="#ffc203"/>
    <path id="Path_76705" data-name="Path 76705" d="M102.931,109.072a3.7,3.7,0,1,1,3.7-3.7,3.7,3.7,0,0,1-3.7,3.7m0-6.467a2.767,2.767,0,1,0,2.768,2.768,2.771,2.771,0,0,0-2.768-2.768" fill="#323232"/>
    <path id="Path_76706" data-name="Path 76706" d="M137.738,105.373a5.845,5.845,0,1,1-5.845-5.845,5.845,5.845,0,0,1,5.845,5.845" fill="#fff"/>
    <path id="Path_76707" data-name="Path 76707" d="M131.894,111.684a6.31,6.31,0,1,1,6.31-6.311,6.318,6.318,0,0,1-6.31,6.311m0-11.69a5.379,5.379,0,1,0,5.379,5.379,5.385,5.385,0,0,0-5.379-5.379" fill="#323232"/>
    <path id="Path_76708" data-name="Path 76708" d="M135.127,105.373a3.233,3.233,0,1,1-3.233-3.233,3.232,3.232,0,0,1,3.233,3.233" fill="#ffc203"/>
    <path id="Path_76709" data-name="Path 76709" d="M131.894,109.072a3.7,3.7,0,1,1,3.7-3.7,3.7,3.7,0,0,1-3.7,3.7m0-6.467a2.767,2.767,0,1,0,2.767,2.768,2.771,2.771,0,0,0-2.767-2.768" fill="#323232"/>
    <path id="Path_76710" data-name="Path 76710" d="M139.52,95.8H101.058a.466.466,0,1,1,0-.931H139.52a.466.466,0,1,1,0,.931" fill="#323232"/>
    <path id="Path_76711" data-name="Path 76711" d="M107.966,91.244a.465.465,0,0,1-.415-.676l1.94-3.842a.466.466,0,0,1,.832.421l-1.941,3.841a.466.466,0,0,1-.416.256" fill="#323232"/>
    <path id="Path_76712" data-name="Path 76712" d="M114.205,91.244a.465.465,0,0,1-.415-.676l1.94-3.842a.466.466,0,0,1,.832.421l-1.941,3.841a.466.466,0,0,1-.416.256" fill="#323232"/>
    <path id="Path_76713" data-name="Path 76713" d="M120.443,91.244a.465.465,0,0,1-.415-.676l1.94-3.842a.466.466,0,0,1,.832.421l-1.941,3.841a.466.466,0,0,1-.416.256" fill="#323232"/>
    <path id="Path_76714" data-name="Path 76714" d="M126.681,91.244a.465.465,0,0,1-.415-.676l1.94-3.842a.466.466,0,0,1,.832.421L127.1,90.988a.466.466,0,0,1-.416.256" fill="#323232"/>
    <path id="Path_76715" data-name="Path 76715" d="M132.919,91.244a.465.465,0,0,1-.415-.676l1.94-3.842a.466.466,0,0,1,.832.421l-1.941,3.841a.466.466,0,0,1-.416.256" fill="#323232"/>
    <path id="Path_76716" data-name="Path 76716" d="M158.144,112.433h-5.627a.466.466,0,1,1,0-.931h5.627a.466.466,0,1,1,0,.931" fill="#1b1918"/>
    <path id="Path_76717" data-name="Path 76717" d="M148.559,112.433h-54.8a.466.466,0,1,1,0-.931h54.8a.466.466,0,0,1,0,.931" fill="#1b1918"/>
    <path id="Path_76718" data-name="Path 76718" d="M88.486,112.433h-6.83a.466.466,0,1,1,0-.931h6.83a.466.466,0,1,1,0,.931" fill="#1b1918"/>
    <path id="Path_76719" data-name="Path 76719" d="M11.928,51.141a11.41,11.41,0,1,0,11.41-11.409,11.411,11.411,0,0,0-11.41,11.409" fill="#58bd7d"/>
    <path id="Path_76720" data-name="Path 76720" d="M23.338,63.016A11.875,11.875,0,1,1,35.212,51.141,11.889,11.889,0,0,1,23.338,63.016m0-22.818A10.943,10.943,0,1,0,34.281,51.141,10.956,10.956,0,0,0,23.338,40.2" fill="#323232"/>
    <path id="Path_76721" data-name="Path 76721" d="M5.714,60.053a7.661,7.661,0,1,0,7.662-7.662,7.66,7.66,0,0,0-7.662,7.662" fill="#58bd7d"/>
    <path id="Path_76722" data-name="Path 76722" d="M13.376,68.178A8.127,8.127,0,1,1,21.5,60.054a8.135,8.135,0,0,1-8.126,8.124m0-15.322a7.2,7.2,0,1,0,7.195,7.2,7.2,7.2,0,0,0-7.195-7.2" fill="#323232"/>
    <path id="Path_76723" data-name="Path 76723" d="M22.98,82.668a.466.466,0,0,1-.466-.466V55.116a.466.466,0,1,1,.932,0V82.2a.466.466,0,0,1-.466.466" fill="#323232"/>
    <path id="Path_76724" data-name="Path 76724" d="M23.058,69.784a.462.462,0,0,1-.308-.116L15.532,63.3a.465.465,0,0,1,.616-.7l7.218,6.364a.466.466,0,0,1-.308.815" fill="#323232"/>
    <path id="Path_76725" data-name="Path 76725" d="M23.746,59.6a.466.466,0,1,1,0-.931,7.489,7.489,0,0,0,0-14.979.466.466,0,1,1,0-.931,8.421,8.421,0,0,1,0,16.841" fill="#323232"/>
    <path id="Path_76726" data-name="Path 76726" d="M11.7,64.413a4.191,4.191,0,1,1,0-8.381.466.466,0,1,1,0,.931,3.259,3.259,0,0,0,0,6.519.466.466,0,1,1,0,.931" fill="#323232"/>
    <path id="Path_76727" data-name="Path 76727" d="M157.809,47.353A11.41,11.41,0,1,1,146.4,35.944a11.411,11.411,0,0,1,11.41,11.409" fill="#58bd7d"/>
    <path id="Path_76728" data-name="Path 76728" d="M146.4,59.228a11.875,11.875,0,1,1,11.876-11.875A11.887,11.887,0,0,1,146.4,59.228m0-22.818a10.944,10.944,0,1,0,10.944,10.943A10.955,10.955,0,0,0,146.4,36.41" fill="#323232"/>
    <path id="Path_76729" data-name="Path 76729" d="M164.023,56.265a7.661,7.661,0,1,1-7.662-7.661,7.659,7.659,0,0,1,7.662,7.661" fill="#58bd7d"/>
    <path id="Path_76730" data-name="Path 76730" d="M156.361,64.39a8.126,8.126,0,1,1,8.128-8.124,8.134,8.134,0,0,1-8.128,8.124m0-15.321a7.195,7.195,0,1,0,7.2,7.2,7.2,7.2,0,0,0-7.2-7.2" fill="#323232"/>
    <path id="Path_76731" data-name="Path 76731" d="M146.757,78.88a.466.466,0,0,1-.466-.466V51.328a.466.466,0,0,1,.932,0V78.414a.466.466,0,0,1-.466.466" fill="#323232"/>
    <path id="Path_76732" data-name="Path 76732" d="M146.968,65.748a.466.466,0,0,1-.308-.815l6.929-6.116a.466.466,0,1,1,.617.7l-6.93,6.117a.462.462,0,0,1-.308.116" fill="#323232"/>
    <path id="Path_76733" data-name="Path 76733" d="M145.992,55.813a8.42,8.42,0,0,1,0-16.841.466.466,0,1,1,0,.931,7.49,7.49,0,0,0,0,14.979.466.466,0,1,1,0,.931" fill="#323232"/>
    <path id="Path_76734" data-name="Path 76734" d="M157.655,62.379a4.209,4.209,0,0,1-3.4-1.729.466.466,0,1,1,.754-.548,3.259,3.259,0,1,0,5.274-3.83.466.466,0,0,1,.753-.548,4.192,4.192,0,0,1-3.381,6.655" fill="#323232"/>
    <path id="Path_76735" data-name="Path 76735" d="M146.852,70.172a.466.466,0,0,1-.391-.212l-5.588-8.615a.466.466,0,1,1,.781-.507l5.588,8.615a.465.465,0,0,1-.39.719" fill="#323232"/>
    <path id="Path_76736" data-name="Path 76736" d="M144.523,60.044a3.842,3.842,0,1,1-3.842-3.842,3.842,3.842,0,0,1,3.842,3.842" fill="#58bd7d"/>
    <path id="Path_76737" data-name="Path 76737" d="M140.681,64.351a4.307,4.307,0,1,1,4.308-4.308,4.313,4.313,0,0,1-4.308,4.308m0-7.684a3.376,3.376,0,1,0,3.376,3.376,3.379,3.379,0,0,0-3.376-3.376" fill="#323232"/>
  </g>
</svg>
