<?xml version="1.0" encoding="utf-8"?>
<!-- Generator: Adobe Illustrator 26.3.1, SVG Export Plug-In . SVG Version: 6.00 Build 0)  -->
<svg version="1.1" id="Layer_1" xmlns="http://www.w3.org/2000/svg" xmlns:xlink="http://www.w3.org/1999/xlink" x="0px" y="0px"
	 viewBox="0 0 170 130" style="enable-background:new 0 0 170 130;" xml:space="preserve">
<style type="text/css">
	.st0{fill:#1B1918;}
	.st1{fill:#2F914D;}
	.st2{fill:#FFFFFF;}
	.st3{fill:#323232;}
	.st4{fill:#FF0000;}
	.st5{fill:#6B6B6B;}
	.st6{fill:#FFC203;}
	.st7{fill:#58BD7D;}
	.st8{fill:#FFB948;}
	.st9{fill:#FF7171;}
	.st10{fill:#ED443A;}
	.st11{fill:#EBF3FA;}
	.st12{fill:#FFB27D;}
	.st13{fill:#2C3A64;}
	.st14{fill:#2B478B;}
	.st15{fill:#233862;}
	.st16{fill:#ED985F;}
	.st17{fill:#F99746;}
	.st18{fill:#ED7D2B;}
	.st19{fill:#F0995E;}
	.st20{fill:#FFB93E;}
	.st21{fill:#ED9E20;}
	.st22{fill:#E3A330;}
	.st23{fill:#2E3552;}
	.st24{fill:#D2E3FC;}
	.st25{fill:#B7D3F3;}
	.st26{fill:#FFF3F3;}
	.st27{opacity:0.1;clip-path:url(#SVGID_00000154417853156226773510000003557497306154459303_);}
	.st28{fill:#020202;}
	.st29{fill:#FFC5BB;}
	.st30{fill:#FFBCB3;}
	.st31{fill:#00A5A5;}
	.st32{fill:#EA2D2D;}
	.st33{fill:#230D42;}
	.st34{fill:#321851;}
	.st35{fill:#FFAFA4;}
	.st36{fill:#990000;}
	.st37{fill:#0E031E;}
	.st38{fill:#161616;}
	.st39{fill:#00C2CC;}
	.st40{fill:#1F0B38;}
	.st41{fill:#7C35C3;}
	.st42{fill:#FFB6AE;}
	.st43{fill:#191919;}
	.st44{fill:#562391;}
	.st45{fill:#180A2D;}
	.st46{fill:#111111;}
	.st47{fill:#FE7893;}
	.st48{fill:#282828;}
	.st49{opacity:0.1;clip-path:url(#SVGID_00000078010359978334585200000014784161255921332635_);}
</style>
<g>
	<g>
		<path class="st0" d="M40.33,104.43H3.22c-0.26,0-0.47-0.21-0.47-0.47c0-0.26,0.21-0.47,0.47-0.47h37.11
			c0.26,0,0.47,0.21,0.47,0.47C40.79,104.22,40.58,104.43,40.33,104.43z"/>
	</g>
	<g>
		<path class="st0" d="M50.96,104.43h-6.75c-0.26,0-0.47-0.21-0.47-0.47c0-0.26,0.21-0.47,0.47-0.47h6.75
			c0.26,0,0.47,0.21,0.47,0.47C51.43,104.22,51.22,104.43,50.96,104.43z"/>
	</g>
	<g>
		<path class="st0" d="M155.96,104.72h-54.96c-1.8,0-3.26-1.46-3.26-3.26V88c0-1.28-1.04-2.33-2.33-2.33H73.34
			c-1.28,0-2.33,1.04-2.33,2.33v13.17c0,1.8-1.46,3.26-3.26,3.26H54.76c-0.26,0-0.47-0.21-0.47-0.47c0-0.26,0.21-0.47,0.47-0.47
			h12.99c1.28,0,2.33-1.04,2.33-2.33V88c0-1.8,1.46-3.26,3.26-3.26h22.08c1.8,0,3.26,1.46,3.26,3.26v13.45
			c0,1.28,1.04,2.33,2.33,2.33h54.96c0.26,0,0.47,0.21,0.47,0.47C156.43,104.51,156.22,104.72,155.96,104.72z"/>
	</g>
	<g>
		<g>
			<g>
				<path class="st0" d="M143.86,125h-8.1c-0.26,0-0.47-0.21-0.47-0.47c0-0.26,0.21-0.47,0.47-0.47h8.1c0.26,0,0.47,0.21,0.47,0.47
					C144.32,124.79,144.11,125,143.86,125z"/>
			</g>
		</g>
		<g>
			<g>
				<path class="st0" d="M128.77,125h-99c-0.26,0-0.47-0.21-0.47-0.47c0-0.26,0.21-0.47,0.47-0.47h99c0.26,0,0.47,0.21,0.47,0.47
					C129.23,124.79,129.03,125,128.77,125z"/>
			</g>
		</g>
		<g>
			<g>
				<path class="st0" d="M25.43,125h-10.1c-0.26,0-0.47-0.21-0.47-0.47c0-0.26,0.21-0.47,0.47-0.47h10.1c0.26,0,0.47,0.21,0.47,0.47
					C25.89,124.79,25.68,125,25.43,125z"/>
			</g>
		</g>
	</g>
	<g>
		<g>
			<path class="st1" d="M157.99,82.96c-1.58,0-2.86-1.09-2.86-2.44v-1.85c0-1.34-1.28-2.43-2.86-2.43H16.44
				c-1.58,0-2.86,1.09-2.86,2.43v1.85c0,1.35-1.28,2.44-2.86,2.44c-1.58,0-2.86,1.09-2.86,2.43v4.72v0.11v3.53
				c0,2,1.93,3.64,4.28,3.64h144.44c2.36,0,4.28-1.64,4.28-3.64v-3.53v-0.11V85.4C160.86,84.05,159.57,82.96,157.99,82.96z"/>
		</g>
		<g>
			<path class="st0" d="M156.57,97.87H12.14c-2.62,0-4.75-1.84-4.75-4.11V85.4c0-1.6,1.49-2.9,3.33-2.9c1.32,0,2.4-0.88,2.4-1.97
				v-1.85c0-1.6,1.49-2.9,3.33-2.9h135.82c1.84,0,3.33,1.3,3.33,2.9v1.85c0,1.09,1.08,1.97,2.4,1.97c1.84,0,3.33,1.3,3.33,2.9v8.37
				C161.32,96.03,159.19,97.87,156.57,97.87z M16.44,76.71c-1.32,0-2.4,0.88-2.4,1.97v1.85c0,1.6-1.49,2.9-3.33,2.9
				c-1.32,0-2.4,0.88-2.4,1.97v8.37c0,1.75,1.71,3.18,3.82,3.18h144.44c2.11,0,3.82-1.42,3.82-3.18V85.4c0-1.09-1.08-1.97-2.4-1.97
				c-1.84,0-3.33-1.3-3.33-2.9v-1.85c0-1.09-1.08-1.97-2.4-1.97H16.44z"/>
		</g>
	</g>
	<g>
		<g>
			<rect x="36.11" y="43.17" class="st2" width="96.62" height="45.32"/>
		</g>
		<g>
			<path class="st0" d="M132.73,88.96H36.11c-0.26,0-0.47-0.21-0.47-0.47V43.17c0-0.26,0.21-0.47,0.47-0.47h96.62
				c0.26,0,0.47,0.21,0.47,0.47v45.32C133.19,88.75,132.98,88.96,132.73,88.96z M36.58,88.03h95.68V43.64H36.58V88.03z"/>
		</g>
	</g>
	<g>
		<g>
			<rect x="34.7" y="84.68" class="st3" width="99.45" height="3.94"/>
		</g>
		<g>
			<path class="st0" d="M134.14,89.09H34.7c-0.26,0-0.47-0.21-0.47-0.47v-3.94c0-0.26,0.21-0.47,0.47-0.47h99.45
				c0.26,0,0.47,0.21,0.47,0.47v3.94C134.61,88.88,134.4,89.09,134.14,89.09z M35.16,88.15h98.52v-3.01H35.16V88.15z"/>
		</g>
	</g>
	<g>
		<g>
			<polygon class="st4" points="127.98,37.35 127.98,34.59 118.32,34.59 118.32,37.35 50.52,37.35 50.52,34.59 40.86,34.59 
				40.86,37.35 33.67,37.35 33.67,43.33 135.17,43.33 135.17,37.35 			"/>
		</g>
		<g>
			<path class="st0" d="M135.17,43.8H33.67c-0.26,0-0.47-0.21-0.47-0.47v-5.98c0-0.26,0.21-0.47,0.47-0.47h6.73v-2.29
				c0-0.26,0.21-0.47,0.47-0.47h9.66c0.26,0,0.47,0.21,0.47,0.47v2.29h66.87v-2.29c0-0.26,0.21-0.47,0.47-0.47h9.66
				c0.26,0,0.47,0.21,0.47,0.47v2.29h6.72c0.26,0,0.47,0.21,0.47,0.47v5.98C135.63,43.59,135.42,43.8,135.17,43.8z M34.14,42.87
				H134.7v-5.05h-6.72c-0.26,0-0.47-0.21-0.47-0.47v-2.29h-8.73v2.29c0,0.26-0.21,0.47-0.47,0.47h-67.8c-0.26,0-0.47-0.21-0.47-0.47
				v-2.29h-8.73v2.29c0,0.26-0.21,0.47-0.47,0.47h-6.73V42.87z"/>
		</g>
	</g>
	<g>
		<g>
			<rect x="54.42" y="19.43" class="st2" width="60.42" height="72.07"/>
		</g>
		<g>
			<path class="st0" d="M114.85,91.96H54.42c-0.26,0-0.47-0.21-0.47-0.47V19.43c0-0.26,0.21-0.47,0.47-0.47h60.42
				c0.26,0,0.47,0.21,0.47,0.47V91.5C115.31,91.75,115.1,91.96,114.85,91.96z M54.89,91.03h59.49V19.89H54.89V91.03z"/>
		</g>
	</g>
	<g>
		<g>
			<path d="M83.04,73.94c0,0.56-0.46,1.02-1.02,1.02c-0.57,0-1.02-0.46-1.02-1.02c0-0.56,0.46-1.02,1.02-1.02
				C82.58,72.91,83.04,73.37,83.04,73.94z"/>
		</g>
		<g>
			<path d="M88.39,73.94c0,0.56-0.46,1.02-1.02,1.02c-0.56,0-1.02-0.46-1.02-1.02c0-0.56,0.46-1.02,1.02-1.02
				C87.93,72.91,88.39,73.37,88.39,73.94z"/>
		</g>
	</g>
	<g>
		<g>
			<g>
				<path class="st0" d="M84.17,15.33c-0.26,0-0.47-0.21-0.47-0.47v-6.4C83.7,8.21,83.91,8,84.17,8c0.26,0,0.47,0.21,0.47,0.47v6.4
					C84.63,15.12,84.43,15.33,84.17,15.33z"/>
			</g>
		</g>
		<g>
			<g>
				<polygon class="st4" points="96.08,10.8 84.17,10.8 84.17,5.47 96.08,5.47 93.95,8.37 				"/>
			</g>
			<g>
				<path class="st0" d="M96.08,11.26H84.17c-0.26,0-0.47-0.21-0.47-0.47V5.47C83.7,5.21,83.91,5,84.17,5h11.91
					c0.18,0,0.34,0.1,0.42,0.26c0.08,0.16,0.06,0.34-0.04,0.49l-1.91,2.6l1.89,2.15c0.12,0.14,0.15,0.33,0.07,0.5
					C96.43,11.16,96.26,11.26,96.08,11.26z M84.63,10.33h10.42L93.6,8.68c-0.14-0.16-0.16-0.41-0.03-0.58l1.59-2.16H84.63V10.33z"/>
			</g>
		</g>
	</g>
	<g>
		<g>
			<rect x="76.35" y="58.98" class="st5" width="16.13" height="3.24"/>
		</g>
		<g>
			<path class="st0" d="M92.49,62.69H76.35c-0.26,0-0.47-0.21-0.47-0.47v-3.24c0-0.26,0.21-0.47,0.47-0.47h16.13
				c0.26,0,0.47,0.21,0.47,0.47v3.24C92.95,62.49,92.74,62.69,92.49,62.69z M76.82,61.76h15.2v-2.31h-15.2V61.76z"/>
		</g>
	</g>
	<g>
		<g>
			<g>
				<rect x="76.39" y="23.5" class="st5" width="16.05" height="6.14"/>
			</g>
			<g>
				<path class="st0" d="M92.44,30.11H76.39c-0.26,0-0.47-0.21-0.47-0.47V23.5c0-0.26,0.21-0.47,0.47-0.47h16.05
					c0.26,0,0.47,0.21,0.47,0.47v6.14C92.91,29.9,92.7,30.11,92.44,30.11z M76.86,29.18h15.12v-5.21H76.86V29.18z"/>
			</g>
		</g>
		<g>
			<g>
				<path class="st0" d="M84.34,29.79c-0.26,0-0.47-0.21-0.47-0.47v-5.44c0-0.26,0.21-0.47,0.47-0.47c0.26,0,0.47,0.21,0.47,0.47
					v5.44C84.81,29.58,84.6,29.79,84.34,29.79z"/>
			</g>
		</g>
	</g>
	<g>
		<g>
			<g>
				<rect x="76.3" y="32" class="st5" width="16.05" height="23.29"/>
			</g>
			<g>
				<path class="st0" d="M92.35,55.76H76.3c-0.26,0-0.47-0.21-0.47-0.47V32c0-0.26,0.21-0.47,0.47-0.47h16.05
					c0.26,0,0.47,0.21,0.47,0.47v23.29C92.81,55.55,92.6,55.76,92.35,55.76z M76.76,54.83h15.12V32.47H76.76V54.83z"/>
			</g>
		</g>
		<g>
			<g>
				<g>
					<path class="st0" d="M84.52,55.64c-0.26,0-0.47-0.21-0.47-0.47V32.2c0-0.26,0.21-0.47,0.47-0.47s0.47,0.21,0.47,0.47v22.97
						C84.98,55.43,84.78,55.64,84.52,55.64z"/>
				</g>
			</g>
			<g>
				<g>
					<g>
						<path class="st0" d="M91.65,40.29h-15c-0.26,0-0.47-0.21-0.47-0.47c0-0.26,0.21-0.47,0.47-0.47h15c0.26,0,0.47,0.21,0.47,0.47
							C92.11,40.09,91.9,40.29,91.65,40.29z"/>
					</g>
				</g>
				<g>
					<g>
						<path class="st0" d="M91.88,48.01H76.49c-0.26,0-0.47-0.21-0.47-0.47c0-0.26,0.21-0.47,0.47-0.47h15.39
							c0.26,0,0.47,0.21,0.47,0.47C92.34,47.8,92.14,48.01,91.88,48.01z"/>
					</g>
				</g>
			</g>
		</g>
	</g>
	<g>
		<g>
			<rect x="51.14" y="14.22" class="st4" width="66.56" height="5.98"/>
		</g>
		<g>
			<path class="st0" d="M117.7,20.67H51.14c-0.26,0-0.47-0.21-0.47-0.47v-5.98c0-0.26,0.21-0.47,0.47-0.47h66.56
				c0.26,0,0.47,0.21,0.47,0.47v5.98C118.17,20.46,117.96,20.67,117.7,20.67z M51.6,19.73h65.63v-5.05H51.6V19.73z"/>
		</g>
	</g>
	<g>
		<g>
			<rect x="53.42" y="88.46" class="st3" width="62" height="3.94"/>
		</g>
		<g>
			<path class="st0" d="M115.42,92.86h-62c-0.26,0-0.47-0.21-0.47-0.47v-3.94c0-0.26,0.21-0.47,0.47-0.47h62
				c0.26,0,0.47,0.21,0.47,0.47v3.94C115.88,92.65,115.67,92.86,115.42,92.86z M53.89,91.93h61.07v-3.01H53.89V91.93z"/>
		</g>
	</g>
	<g>
		<g>
			<polygon class="st5" points="84.69,65.3 84.39,65.3 75.02,65.3 75.02,84.5 84.39,84.5 84.69,84.5 93.6,84.5 93.6,65.3 			"/>
		</g>
		<g>
			<path class="st0" d="M93.6,84.96H75.02c-0.26,0-0.47-0.21-0.47-0.47V65.3c0-0.26,0.21-0.47,0.47-0.47H93.6
				c0.26,0,0.47,0.21,0.47,0.47v19.2C94.06,84.75,93.86,84.96,93.6,84.96z M75.49,84.03h17.65V65.76H75.49V84.03z"/>
		</g>
	</g>
	<g>
		<path class="st0" d="M84.33,84.31c-0.26,0-0.47-0.21-0.47-0.47V65.73c0-0.26,0.21-0.47,0.47-0.47c0.26,0,0.47,0.21,0.47,0.47
			v18.11C84.79,84.1,84.58,84.31,84.33,84.31z"/>
	</g>
	<g>
		<path class="st0" d="M75.61,54.15H54.7c-0.26,0-0.47-0.21-0.47-0.47c0-0.26,0.21-0.47,0.47-0.47h20.91c0.26,0,0.47,0.21,0.47,0.47
			C76.08,53.94,75.87,54.15,75.61,54.15z"/>
	</g>
	<g>
		<path class="st0" d="M114.2,54.15H92.96c-0.26,0-0.47-0.21-0.47-0.47c0-0.26,0.21-0.47,0.47-0.47h21.24
			c0.26,0,0.47,0.21,0.47,0.47C114.67,53.94,114.46,54.15,114.2,54.15z"/>
	</g>
	<g>
		<path class="st0" d="M132.77,65.48h-17.95c-0.26,0-0.47-0.21-0.47-0.47c0-0.26,0.21-0.47,0.47-0.47h17.95
			c0.26,0,0.47,0.21,0.47,0.47C133.23,65.27,133.03,65.48,132.77,65.48z"/>
	</g>
	<g>
		<path class="st0" d="M54.18,65.48H36.23c-0.26,0-0.47-0.21-0.47-0.47c0-0.26,0.21-0.47,0.47-0.47h17.95
			c0.26,0,0.47,0.21,0.47,0.47C54.65,65.27,54.44,65.48,54.18,65.48z"/>
	</g>
	<g>
		<path class="st0" d="M50.69,37.86H40.41c-0.26,0-0.47-0.21-0.47-0.47c0-0.26,0.21-0.47,0.47-0.47h10.28
			c0.26,0,0.47,0.21,0.47,0.47C51.16,37.65,50.95,37.86,50.69,37.86z"/>
	</g>
	<g>
		<path class="st0" d="M128.76,37.8h-10.28c-0.26,0-0.47-0.21-0.47-0.47c0-0.26,0.21-0.47,0.47-0.47h10.28
			c0.26,0,0.47,0.21,0.47,0.47C129.23,37.59,129.02,37.8,128.76,37.8z"/>
	</g>
	<g>
		<g>
			<g>
				<rect x="61.01" y="30.86" class="st5" width="8.56" height="12.42"/>
			</g>
			<g>
				<path class="st0" d="M69.57,43.74h-8.56c-0.26,0-0.47-0.21-0.47-0.47V30.86c0-0.26,0.21-0.47,0.47-0.47h8.56
					c0.26,0,0.47,0.21,0.47,0.47v12.42C70.03,43.53,69.83,43.74,69.57,43.74z M61.48,42.81h7.63V31.32h-7.63V42.81z"/>
			</g>
		</g>
		<g>
			<g>
				<g>
					<path class="st0" d="M65.4,43.68c-0.26,0-0.47-0.21-0.47-0.47V30.96c0-0.26,0.21-0.47,0.47-0.47c0.26,0,0.47,0.21,0.47,0.47
						v12.25C65.86,43.47,65.65,43.68,65.4,43.68z"/>
				</g>
			</g>
			<g>
				<g>
					<g>
						<path class="st0" d="M69.54,37.64h-8.32c-0.26,0-0.47-0.21-0.47-0.47c0-0.26,0.21-0.47,0.47-0.47h8.32
							c0.26,0,0.47,0.21,0.47,0.47C70,37.43,69.8,37.64,69.54,37.64z"/>
					</g>
				</g>
			</g>
		</g>
	</g>
	<g>
		<g>
			<g>
				<rect x="40.8" y="48.32" class="st5" width="8.56" height="12.42"/>
			</g>
			<g>
				<path class="st0" d="M49.36,61.2H40.8c-0.26,0-0.47-0.21-0.47-0.47V48.32c0-0.26,0.21-0.47,0.47-0.47h8.56
					c0.26,0,0.47,0.21,0.47,0.47v12.42C49.82,60.99,49.61,61.2,49.36,61.2z M41.26,60.27h7.63V48.78h-7.63V60.27z"/>
			</g>
		</g>
		<g>
			<g>
				<g>
					<path class="st0" d="M45.18,61.14c-0.26,0-0.47-0.21-0.47-0.47V48.42c0-0.26,0.21-0.47,0.47-0.47c0.26,0,0.47,0.21,0.47,0.47
						v12.25C45.65,60.93,45.44,61.14,45.18,61.14z"/>
				</g>
			</g>
			<g>
				<g>
					<g>
						<path class="st0" d="M49.33,55.1H41c-0.26,0-0.47-0.21-0.47-0.47s0.21-0.47,0.47-0.47h8.32c0.26,0,0.47,0.21,0.47,0.47
							S49.58,55.1,49.33,55.1z"/>
					</g>
				</g>
			</g>
		</g>
	</g>
	<g>
		<g>
			<g>
				<rect x="40.8" y="68.66" class="st5" width="8.56" height="12.42"/>
			</g>
			<g>
				<path class="st0" d="M49.36,81.54H40.8c-0.26,0-0.47-0.21-0.47-0.47V68.66c0-0.26,0.21-0.47,0.47-0.47h8.56
					c0.26,0,0.47,0.21,0.47,0.47v12.42C49.82,81.34,49.61,81.54,49.36,81.54z M41.26,80.61h7.63V69.13h-7.63V80.61z"/>
			</g>
		</g>
		<g>
			<g>
				<g>
					<path class="st0" d="M45.18,81.48c-0.26,0-0.47-0.21-0.47-0.47V68.76c0-0.26,0.21-0.47,0.47-0.47c0.26,0,0.47,0.21,0.47,0.47
						v12.25C45.65,81.27,45.44,81.48,45.18,81.48z"/>
				</g>
			</g>
			<g>
				<g>
					<g>
						<path class="st0" d="M49.33,75.44H41c-0.26,0-0.47-0.21-0.47-0.47c0-0.26,0.21-0.47,0.47-0.47h8.32
							c0.26,0,0.47,0.21,0.47,0.47C49.79,75.23,49.58,75.44,49.33,75.44z"/>
					</g>
				</g>
			</g>
		</g>
	</g>
	<g>
		<g>
			<g>
				<rect x="119.29" y="48.32" class="st5" width="8.56" height="12.42"/>
			</g>
			<g>
				<path class="st0" d="M127.85,61.2h-8.56c-0.26,0-0.47-0.21-0.47-0.47V48.32c0-0.26,0.21-0.47,0.47-0.47h8.56
					c0.26,0,0.47,0.21,0.47,0.47v12.42C128.31,60.99,128.1,61.2,127.85,61.2z M119.75,60.27h7.63V48.78h-7.63V60.27z"/>
			</g>
		</g>
		<g>
			<g>
				<g>
					<path class="st0" d="M123.67,61.14c-0.26,0-0.47-0.21-0.47-0.47V48.42c0-0.26,0.21-0.47,0.47-0.47c0.26,0,0.47,0.21,0.47,0.47
						v12.25C124.14,60.93,123.93,61.14,123.67,61.14z"/>
				</g>
			</g>
			<g>
				<g>
					<g>
						<path class="st0" d="M127.81,55.1h-8.32c-0.26,0-0.47-0.21-0.47-0.47s0.21-0.47,0.47-0.47h8.32c0.26,0,0.47,0.21,0.47,0.47
							S128.07,55.1,127.81,55.1z"/>
					</g>
				</g>
			</g>
		</g>
	</g>
	<g>
		<g>
			<g>
				<rect x="119.29" y="68.66" class="st5" width="8.56" height="12.42"/>
			</g>
			<g>
				<path class="st0" d="M127.85,81.54h-8.56c-0.26,0-0.47-0.21-0.47-0.47V68.66c0-0.26,0.21-0.47,0.47-0.47h8.56
					c0.26,0,0.47,0.21,0.47,0.47v12.42C128.31,81.34,128.1,81.54,127.85,81.54z M119.75,80.61h7.63V69.13h-7.63V80.61z"/>
			</g>
		</g>
		<g>
			<g>
				<g>
					<path class="st0" d="M123.67,81.48c-0.26,0-0.47-0.21-0.47-0.47V68.76c0-0.26,0.21-0.47,0.47-0.47c0.26,0,0.47,0.21,0.47,0.47
						v12.25C124.14,81.27,123.93,81.48,123.67,81.48z"/>
				</g>
			</g>
			<g>
				<g>
					<g>
						<path class="st0" d="M127.81,75.44h-8.32c-0.26,0-0.47-0.21-0.47-0.47c0-0.26,0.21-0.47,0.47-0.47h8.32
							c0.26,0,0.47,0.21,0.47,0.47C128.28,75.23,128.07,75.44,127.81,75.44z"/>
					</g>
				</g>
			</g>
		</g>
	</g>
	<g>
		<g>
			<g>
				<rect x="61.01" y="64.33" class="st5" width="8.56" height="12.42"/>
			</g>
			<g>
				<path class="st0" d="M69.57,77.21h-8.56c-0.26,0-0.47-0.21-0.47-0.47V64.33c0-0.26,0.21-0.47,0.47-0.47h8.56
					c0.26,0,0.47,0.21,0.47,0.47v12.42C70.03,77,69.83,77.21,69.57,77.21z M61.48,76.28h7.63V64.79h-7.63V76.28z"/>
			</g>
		</g>
		<g>
			<g>
				<g>
					<path class="st0" d="M65.4,77.15c-0.26,0-0.47-0.21-0.47-0.47V64.43c0-0.26,0.21-0.47,0.47-0.47c0.26,0,0.47,0.21,0.47,0.47
						v12.25C65.86,76.94,65.65,77.15,65.4,77.15z"/>
				</g>
			</g>
			<g>
				<g>
					<g>
						<path class="st0" d="M69.54,71.11h-8.32c-0.26,0-0.47-0.21-0.47-0.47c0-0.26,0.21-0.47,0.47-0.47h8.32
							c0.26,0,0.47,0.21,0.47,0.47C70,70.9,69.8,71.11,69.54,71.11z"/>
					</g>
				</g>
			</g>
		</g>
	</g>
	<g>
		<g>
			<g>
				<rect x="99.47" y="64.33" class="st5" width="8.56" height="12.42"/>
			</g>
			<g>
				<path class="st0" d="M108.03,77.21h-8.56C99.21,77.21,99,77,99,76.75V64.33c0-0.26,0.21-0.47,0.47-0.47h8.56
					c0.26,0,0.47,0.21,0.47,0.47v12.42C108.49,77,108.28,77.21,108.03,77.21z M99.93,76.28h7.63V64.79h-7.63V76.28z"/>
			</g>
		</g>
		<g>
			<g>
				<g>
					<path class="st0" d="M103.85,77.15c-0.26,0-0.47-0.21-0.47-0.47V64.43c0-0.26,0.21-0.47,0.47-0.47c0.26,0,0.47,0.21,0.47,0.47
						v12.25C104.32,76.94,104.11,77.15,103.85,77.15z"/>
				</g>
			</g>
			<g>
				<g>
					<g>
						<path class="st0" d="M108,71.11h-8.32c-0.26,0-0.47-0.21-0.47-0.47c0-0.26,0.21-0.47,0.47-0.47H108
							c0.26,0,0.47,0.21,0.47,0.47C108.46,70.9,108.25,71.11,108,71.11z"/>
					</g>
				</g>
			</g>
		</g>
	</g>
	<g>
		<g>
			<g>
				<rect x="99.47" y="30.86" class="st5" width="8.56" height="12.42"/>
			</g>
			<g>
				<path class="st0" d="M108.03,43.74h-8.56c-0.26,0-0.47-0.21-0.47-0.47V30.86c0-0.26,0.21-0.47,0.47-0.47h8.56
					c0.26,0,0.47,0.21,0.47,0.47v12.42C108.49,43.53,108.28,43.74,108.03,43.74z M99.93,42.81h7.63V31.32h-7.63V42.81z"/>
			</g>
		</g>
		<g>
			<g>
				<g>
					<path class="st0" d="M103.85,43.68c-0.26,0-0.47-0.21-0.47-0.47V30.96c0-0.26,0.21-0.47,0.47-0.47c0.26,0,0.47,0.21,0.47,0.47
						v12.25C104.32,43.47,104.11,43.68,103.85,43.68z"/>
				</g>
			</g>
			<g>
				<g>
					<g>
						<path class="st0" d="M108,37.64h-8.32c-0.26,0-0.47-0.21-0.47-0.47c0-0.26,0.21-0.47,0.47-0.47H108
							c0.26,0,0.47,0.21,0.47,0.47C108.46,37.43,108.25,37.64,108,37.64z"/>
					</g>
				</g>
			</g>
		</g>
	</g>
	<g>
		<g>
			<g>
				<rect x="73.17" y="84.51" class="st2" width="22.42" height="4.73"/>
			</g>
			<g>
				<path class="st0" d="M95.58,89.7H73.17c-0.26,0-0.47-0.21-0.47-0.47v-4.73c0-0.26,0.21-0.47,0.47-0.47h22.42
					c0.26,0,0.47,0.21,0.47,0.47v4.73C96.05,89.5,95.84,89.7,95.58,89.7z M73.63,88.77h21.48v-3.79H73.63V88.77z"/>
			</g>
		</g>
		<g>
			<g>
				<rect x="71.85" y="88.71" class="st2" width="25.05" height="4.73"/>
			</g>
			<g>
				<path class="st0" d="M96.9,93.9H71.85c-0.26,0-0.47-0.21-0.47-0.47v-4.73c0-0.26,0.21-0.47,0.47-0.47H96.9
					c0.26,0,0.47,0.21,0.47,0.47v4.73C97.37,93.69,97.16,93.9,96.9,93.9z M72.32,92.97h24.11v-3.79H72.32V92.97z"/>
			</g>
		</g>
		<g>
			<g>
				<rect x="70.24" y="92.52" class="st2" width="28.27" height="4.72"/>
			</g>
			<g>
				<path class="st0" d="M98.51,97.71H70.24c-0.26,0-0.47-0.21-0.47-0.47v-4.72c0-0.26,0.21-0.47,0.47-0.47h28.27
					c0.26,0,0.47,0.21,0.47,0.47v4.72C98.98,97.5,98.77,97.71,98.51,97.71z M70.71,96.77h27.34v-3.79H70.71V96.77z"/>
			</g>
		</g>
	</g>
	<g>
		<g>
			<g>
				<path class="st2" d="M91.79,105.29c0,1.09-0.88,1.97-1.97,1.97l0,0c-1.09,0-1.97-0.88-1.97-1.97v-2.33
					c0-1.09,0.88-1.97,1.97-1.97l0,0c1.09,0,1.97,0.88,1.97,1.97V105.29z"/>
			</g>
			<g>
				<path class="st3" d="M89.83,107.72c-1.34,0-2.43-1.09-2.43-2.43v-2.33c0-1.34,1.09-2.43,2.43-2.43c1.34,0,2.43,1.09,2.43,2.43
					v2.33C92.26,106.63,91.17,107.72,89.83,107.72z M89.83,101.46c-0.83,0-1.5,0.67-1.5,1.5v2.33c0,0.83,0.67,1.5,1.5,1.5
					c0.83,0,1.5-0.67,1.5-1.5v-2.33C91.33,102.13,90.66,101.46,89.83,101.46z"/>
			</g>
		</g>
		<g>
			<g>
				<g>
					<path class="st6" d="M142.79,83.58h-38.14c-1.65,0-7.63,11.94-7.63,11.94c0,0.11-3.98,0.33-3.98,0.33
						c-1.65,0-2.98,1.34-2.98,2.98v8.62c0,1.65,1.34,2.98,2.98,2.98h4.64c1.09,0,3.97,0,4.97,0h40.13c1.65,0,2.99-1.55,2.99-3.45
						V87.04C145.77,85.13,144.44,83.58,142.79,83.58z"/>
				</g>
				<g>
					<path class="st3" d="M142.79,110.91H93.04c-1.9,0-3.45-1.55-3.45-3.45v-8.62c0-1.9,1.55-3.45,3.45-3.45
						c1.47-0.08,3.12-0.2,3.66-0.27c1.89-3.76,6.23-12,7.95-12h38.14c1.9,0,3.45,1.76,3.45,3.92v19.95
						C146.24,109.15,144.69,110.91,142.79,110.91z M97.49,95.64c-0.03,0.41-0.34,0.46-4.42,0.68c-1.41,0-2.54,1.13-2.54,2.52v8.62
						c0,1.39,1.13,2.52,2.52,2.52h49.74c1.39,0,2.52-1.34,2.52-2.99V87.04c0-1.65-1.13-2.99-2.52-2.99h-38.14
						C103.73,84.23,100.22,90.19,97.49,95.64z"/>
				</g>
			</g>
			<g>
				<g>
					<polygon class="st2" points="103.82,95.85 108.35,86.9 141.88,86.9 141.88,95.85 					"/>
				</g>
				<g>
					<path class="st3" d="M141.88,96.32h-38.05c-0.16,0-0.31-0.08-0.4-0.22c-0.09-0.14-0.09-0.31-0.02-0.45l4.52-8.95
						c0.08-0.16,0.24-0.26,0.42-0.26h33.53c0.26,0,0.47,0.21,0.47,0.47v8.95C142.34,96.11,142.13,96.32,141.88,96.32z M104.58,95.39
						h36.83v-8.02h-32.78L104.58,95.39z"/>
				</g>
			</g>
			<g>
				<g>
					<polygon class="st2" points="97.02,95.6 101.83,95.6 106.48,86.73 102,86.57 					"/>
				</g>
				<g>
					<path class="st3" d="M101.83,96.07h-4.81c-0.16,0-0.32-0.09-0.4-0.23c-0.08-0.14-0.09-0.32-0.01-0.46l4.97-9.04
						c0.08-0.15,0.24-0.26,0.43-0.24l4.48,0.17c0.16,0.01,0.31,0.09,0.39,0.23c0.08,0.14,0.08,0.31,0.01,0.45l-4.64,8.87
						C102.16,95.97,102.01,96.07,101.83,96.07z M97.81,95.14h3.74l4.17-7.97l-3.45-0.13L97.81,95.14z"/>
				</g>
			</g>
			<g>
				<g>
					<g>
						<g>
							<path class="st2" d="M111.53,110.37c0,3.23-2.62,5.85-5.84,5.85c-3.23,0-5.84-2.62-5.84-5.85c0-3.23,2.62-5.84,5.84-5.84
								C108.91,104.53,111.53,107.14,111.53,110.37z"/>
						</g>
						<g>
							<path class="st3" d="M105.69,116.68c-3.48,0-6.31-2.83-6.31-6.31c0-3.48,2.83-6.31,6.31-6.31c3.48,0,6.31,2.83,6.31,6.31
								C112,113.85,109.17,116.68,105.69,116.68z M105.69,104.99c-2.97,0-5.38,2.41-5.38,5.38c0,2.97,2.41,5.38,5.38,5.38
								c2.97,0,5.38-2.41,5.38-5.38C111.07,107.41,108.65,104.99,105.69,104.99z"/>
						</g>
					</g>
					<g>
						<g>
							<circle class="st6" cx="105.69" cy="110.37" r="3.23"/>
						</g>
						<g>
							<path class="st3" d="M105.69,114.07c-2.04,0-3.7-1.66-3.7-3.7c0-2.04,1.66-3.7,3.7-3.7c2.04,0,3.7,1.66,3.7,3.7
								C109.39,112.41,107.73,114.07,105.69,114.07z M105.69,107.61c-1.53,0-2.77,1.24-2.77,2.77c0,1.53,1.24,2.77,2.77,2.77
								c1.53,0,2.77-1.24,2.77-2.77C108.45,108.85,107.21,107.61,105.69,107.61z"/>
						</g>
					</g>
				</g>
				<g>
					<g>
						<g>
							<path class="st2" d="M140.49,110.37c0,3.23-2.62,5.85-5.84,5.85c-3.23,0-5.84-2.62-5.84-5.85c0-3.23,2.62-5.84,5.84-5.84
								C137.88,104.53,140.49,107.14,140.49,110.37z"/>
						</g>
						<g>
							<path class="st3" d="M134.65,116.68c-3.48,0-6.31-2.83-6.31-6.31c0-3.48,2.83-6.31,6.31-6.31c3.48,0,6.31,2.83,6.31,6.31
								C140.96,113.85,138.13,116.68,134.65,116.68z M134.65,104.99c-2.97,0-5.38,2.41-5.38,5.38c0,2.97,2.41,5.38,5.38,5.38
								c2.97,0,5.38-2.41,5.38-5.38C140.03,107.41,137.62,104.99,134.65,104.99z"/>
						</g>
					</g>
					<g>
						<g>
							<path class="st6" d="M137.88,110.37c0,1.79-1.45,3.23-3.23,3.23s-3.23-1.45-3.23-3.23c0-1.79,1.45-3.23,3.23-3.23
								S137.88,108.59,137.88,110.37z"/>
						</g>
						<g>
							<path class="st3" d="M134.65,114.07c-2.04,0-3.7-1.66-3.7-3.7c0-2.04,1.66-3.7,3.7-3.7c2.04,0,3.7,1.66,3.7,3.7
								C138.35,112.41,136.69,114.07,134.65,114.07z M134.65,107.61c-1.53,0-2.77,1.24-2.77,2.77c0,1.53,1.24,2.77,2.77,2.77
								c1.53,0,2.77-1.24,2.77-2.77C137.42,108.85,136.18,107.61,134.65,107.61z"/>
						</g>
					</g>
				</g>
			</g>
			<g>
				<path class="st3" d="M142.28,100.8h-38.46c-0.26,0-0.47-0.21-0.47-0.47c0-0.26,0.21-0.47,0.47-0.47h38.46
					c0.26,0,0.47,0.21,0.47,0.47C142.74,100.59,142.53,100.8,142.28,100.8z"/>
			</g>
			<g>
				<path class="st3" d="M110.72,96.24c-0.07,0-0.14-0.02-0.21-0.05c-0.23-0.12-0.32-0.4-0.21-0.63l1.94-3.84
					c0.12-0.23,0.4-0.32,0.63-0.21c0.23,0.12,0.32,0.4,0.21,0.63l-1.94,3.84C111.06,96.15,110.89,96.24,110.72,96.24z"/>
				<path class="st3" d="M116.96,96.24c-0.07,0-0.14-0.02-0.21-0.05c-0.23-0.12-0.32-0.4-0.21-0.63l1.94-3.84
					c0.12-0.23,0.4-0.32,0.63-0.21c0.23,0.12,0.32,0.4,0.21,0.63l-1.94,3.84C117.29,96.15,117.13,96.24,116.96,96.24z"/>
				<path class="st3" d="M123.2,96.24c-0.07,0-0.14-0.02-0.21-0.05c-0.23-0.12-0.32-0.4-0.21-0.63l1.94-3.84
					c0.12-0.23,0.4-0.32,0.63-0.21c0.23,0.12,0.32,0.4,0.21,0.63l-1.94,3.84C123.53,96.15,123.37,96.24,123.2,96.24z"/>
				<path class="st3" d="M129.44,96.24c-0.07,0-0.14-0.02-0.21-0.05c-0.23-0.12-0.32-0.4-0.21-0.63l1.94-3.84
					c0.12-0.23,0.4-0.32,0.63-0.21c0.23,0.12,0.32,0.4,0.21,0.63l-1.94,3.84C129.77,96.15,129.61,96.24,129.44,96.24z"/>
				<path class="st3" d="M135.67,96.24c-0.07,0-0.14-0.02-0.21-0.05c-0.23-0.12-0.32-0.4-0.21-0.63l1.94-3.84
					c0.12-0.23,0.4-0.32,0.63-0.21c0.23,0.12,0.32,0.4,0.21,0.63l-1.94,3.84C136.01,96.15,135.84,96.24,135.67,96.24z"/>
			</g>
		</g>
	</g>
	<g>
		<path class="st0" d="M160.9,117.43h-5.63c-0.26,0-0.47-0.21-0.47-0.47s0.21-0.47,0.47-0.47h5.63c0.26,0,0.47,0.21,0.47,0.47
			S161.16,117.43,160.9,117.43z"/>
	</g>
	<g>
		<path class="st0" d="M151.31,117.43H96.52c-0.26,0-0.47-0.21-0.47-0.47s0.21-0.47,0.47-0.47h54.79c0.26,0,0.47,0.21,0.47,0.47
			S151.57,117.43,151.31,117.43z"/>
	</g>
	<g>
		<path class="st0" d="M91.24,117.43h-6.83c-0.26,0-0.47-0.21-0.47-0.47s0.21-0.47,0.47-0.47h6.83c0.26,0,0.47,0.21,0.47,0.47
			S91.5,117.43,91.24,117.43z"/>
	</g>
	<g>
		<g>
			<g>
				<g>
					<path class="st7" d="M14.68,56.14c0,6.3,5.11,11.41,11.41,11.41S37.5,62.44,37.5,56.14c0-6.3-5.11-11.41-11.41-11.41
						S14.68,49.84,14.68,56.14z"/>
				</g>
				<g>
					<path class="st3" d="M26.09,68.02c-6.55,0-11.88-5.33-11.88-11.87s5.33-11.87,11.88-11.87c6.55,0,11.87,5.33,11.87,11.87
						S32.64,68.02,26.09,68.02z M26.09,45.2c-6.03,0-10.94,4.91-10.94,10.94c0,6.03,4.91,10.94,10.94,10.94
						c6.03,0,10.94-4.91,10.94-10.94C37.04,50.11,32.13,45.2,26.09,45.2z"/>
				</g>
			</g>
			<g>
				<g>
					<path class="st7" d="M8.47,65.05c0,4.23,3.43,7.66,7.66,7.66c4.23,0,7.66-3.43,7.66-7.66c0-4.23-3.43-7.66-7.66-7.66
						C11.9,57.39,8.47,60.82,8.47,65.05z"/>
				</g>
				<g>
					<path class="st3" d="M16.13,73.18c-4.48,0-8.13-3.64-8.13-8.12c0-4.48,3.65-8.13,8.13-8.13c4.48,0,8.13,3.65,8.13,8.13
						C24.26,69.53,20.61,73.18,16.13,73.18z M16.13,57.86c-3.97,0-7.2,3.23-7.2,7.2c0,3.97,3.23,7.19,7.2,7.19
						c3.97,0,7.19-3.23,7.19-7.19C23.33,61.08,20.1,57.86,16.13,57.86z"/>
				</g>
			</g>
		</g>
		<g>
			<path class="st3" d="M25.74,87.67c-0.26,0-0.47-0.21-0.47-0.47V60.12c0-0.26,0.21-0.47,0.47-0.47c0.26,0,0.47,0.21,0.47,0.47
				V87.2C26.2,87.46,25.99,87.67,25.74,87.67z"/>
		</g>
		<g>
			<path class="st3" d="M25.81,74.78c-0.11,0-0.22-0.04-0.31-0.12l-7.22-6.36c-0.19-0.17-0.21-0.46-0.04-0.66
				c0.17-0.19,0.47-0.21,0.66-0.04l7.22,6.36c0.19,0.17,0.21,0.46,0.04,0.66C26.07,74.73,25.94,74.78,25.81,74.78z"/>
		</g>
		<g>
			<path class="st3" d="M26.5,64.6c-0.26,0-0.47-0.21-0.47-0.47c0-0.26,0.21-0.47,0.47-0.47c4.13,0,7.49-3.36,7.49-7.49
				c0-4.13-3.36-7.49-7.49-7.49c-0.26,0-0.47-0.21-0.47-0.47c0-0.26,0.21-0.47,0.47-0.47c4.64,0,8.42,3.78,8.42,8.42
				C34.92,60.82,31.14,64.6,26.5,64.6z"/>
		</g>
		<g>
			<path class="st3" d="M14.45,69.41c-2.31,0-4.19-1.88-4.19-4.19c0-2.31,1.88-4.19,4.19-4.19c0.26,0,0.47,0.21,0.47,0.47
				s-0.21,0.47-0.47,0.47c-1.8,0-3.26,1.46-3.26,3.26c0,1.8,1.46,3.26,3.26,3.26c0.26,0,0.47,0.21,0.47,0.47
				C14.92,69.2,14.71,69.41,14.45,69.41z"/>
		</g>
	</g>
	<g>
		<g>
			<g>
				<g>
					<path class="st7" d="M160.56,52.35c0,6.3-5.11,11.41-11.41,11.41c-6.3,0-11.41-5.11-11.41-11.41c0-6.3,5.11-11.41,11.41-11.41
						C155.46,40.94,160.56,46.05,160.56,52.35z"/>
				</g>
				<g>
					<path class="st3" d="M149.15,64.23c-6.55,0-11.87-5.33-11.87-11.87s5.33-11.87,11.87-11.87c6.55,0,11.88,5.33,11.88,11.87
						S155.7,64.23,149.15,64.23z M149.15,41.41c-6.03,0-10.94,4.91-10.94,10.94c0,6.03,4.91,10.94,10.94,10.94
						c6.03,0,10.94-4.91,10.94-10.94C160.1,46.32,155.19,41.41,149.15,41.41z"/>
				</g>
			</g>
			<g>
				<g>
					<path class="st7" d="M166.78,61.27c0,4.23-3.43,7.66-7.66,7.66c-4.23,0-7.66-3.43-7.66-7.66c0-4.23,3.43-7.66,7.66-7.66
						C163.35,53.6,166.78,57.03,166.78,61.27z"/>
				</g>
				<g>
					<path class="st3" d="M159.12,69.39c-4.48,0-8.13-3.64-8.13-8.12c0-4.48,3.65-8.13,8.13-8.13c4.48,0,8.13,3.65,8.13,8.13
						C167.24,65.75,163.6,69.39,159.12,69.39z M159.12,54.07c-3.97,0-7.19,3.23-7.19,7.2c0,3.97,3.23,7.19,7.19,7.19
						c3.97,0,7.2-3.23,7.2-7.19C166.31,57.3,163.08,54.07,159.12,54.07z"/>
				</g>
			</g>
		</g>
		<g>
			<path class="st3" d="M149.51,83.88c-0.26,0-0.47-0.21-0.47-0.47V56.33c0-0.26,0.21-0.47,0.47-0.47c0.26,0,0.47,0.21,0.47,0.47
				v27.09C149.98,83.67,149.77,83.88,149.51,83.88z"/>
		</g>
		<g>
			<path class="st3" d="M149.72,70.75c-0.13,0-0.26-0.05-0.35-0.16c-0.17-0.19-0.15-0.49,0.04-0.66l6.93-6.12
				c0.19-0.17,0.49-0.15,0.66,0.04c0.17,0.19,0.15,0.49-0.04,0.66l-6.93,6.12C149.94,70.71,149.83,70.75,149.72,70.75z"/>
		</g>
		<g>
			<path class="st3" d="M148.75,60.81c-4.64,0-8.42-3.78-8.42-8.42c0-4.64,3.78-8.42,8.42-8.42c0.26,0,0.47,0.21,0.47,0.47
				s-0.21,0.47-0.47,0.47c-4.13,0-7.49,3.36-7.49,7.49c0,4.13,3.36,7.49,7.49,7.49c0.26,0,0.47,0.21,0.47,0.47
				C149.21,60.6,149,60.81,148.75,60.81z"/>
		</g>
		<g>
			<path class="st3" d="M160.41,67.38c-0.22,0-0.44-0.02-0.66-0.05c-1.11-0.18-2.08-0.77-2.73-1.68c-0.15-0.21-0.1-0.5,0.1-0.65
				c0.21-0.15,0.5-0.1,0.65,0.1c0.51,0.7,1.27,1.17,2.13,1.3c0.86,0.14,1.72-0.07,2.43-0.58c0.7-0.51,1.17-1.27,1.3-2.13
				c0.14-0.86-0.07-1.72-0.58-2.43c-0.15-0.21-0.11-0.5,0.1-0.65c0.21-0.15,0.5-0.11,0.65,0.1c0.66,0.91,0.92,2.01,0.75,3.12
				c-0.18,1.11-0.77,2.08-1.68,2.73C162.14,67.1,161.29,67.38,160.41,67.38z"/>
		</g>
		<g>
			<path class="st3" d="M149.61,75.17c-0.15,0-0.3-0.07-0.39-0.21l-5.59-8.62c-0.14-0.22-0.08-0.5,0.14-0.64
				c0.22-0.14,0.5-0.08,0.64,0.14l5.59,8.62c0.14,0.22,0.08,0.5-0.14,0.64C149.78,75.15,149.69,75.17,149.61,75.17z"/>
		</g>
		<g>
			<g>
				<circle class="st7" cx="143.44" cy="65.04" r="3.84"/>
			</g>
			<g>
				<path class="st3" d="M143.44,69.35c-2.38,0-4.31-1.93-4.31-4.31c0-2.38,1.93-4.31,4.31-4.31s4.31,1.93,4.31,4.31
					C147.74,67.42,145.81,69.35,143.44,69.35z M143.44,61.67c-1.86,0-3.38,1.51-3.38,3.38c0,1.86,1.51,3.38,3.38,3.38
					c1.86,0,3.38-1.51,3.38-3.38C146.81,63.18,145.3,61.67,143.44,61.67z"/>
			</g>
		</g>
	</g>
</g>
</svg>
